<svg width="507" height="515" viewBox="0 0 507 515" fill="none" xmlns="http://www.w3.org/2000/svg">
<g filter="url(#filter0_d_186_5406)">
<path d="M315.069 143.353L312.067 148.136L314.584 149.224L314.299 153.595L316.605 154.099L314.487 157.845L314.979 159.136L312.05 162.302L312.807 167.137L311.113 168.067L307.32 168.451L303.32 168.091L300.176 168.832L299.096 171.493L300.155 173.323L298.837 176.202L296.412 178.845L292.957 180.353L290.18 179.737L288.374 180.843L286.331 180.156L282.116 180.642L279.996 180.15L282.185 177.179L278.645 171.661L270.469 171.066L265.656 172.412L262.871 171.134L263.746 168.477L263.417 166.37L261.154 164.363L259.09 163.948L257.05 161.709L256.845 158.487L254.272 156.777L250.909 152.429L250.188 150.679L251.855 148.339L250.147 146.106L250.511 142.534L249.014 139.303L247.777 138.327L246.016 132.869L251.179 131.026L253.073 128.721L253.887 124.494L254.905 123.441L256.561 126.448L258.196 125.931L261.275 126.956L264.927 126.493L267.289 125.063L268.591 125.972L272.259 126.392L273.392 127.791L275.413 126.099L281.797 129.659L286.269 130.491L290.264 132.629L292.143 130.741L294.202 132.158L300.285 131.339L300.869 129.887L303.222 130.222L305.021 133.394L304.302 134.891L308.915 138.391L309.801 140.451L315.069 143.353Z" fill="white"/>
<path d="M296.413 178.845L299.604 180.396L300.334 183.503L301.362 184.144L303.03 188.745L298.916 192.12L299.567 197.492L296.18 199.495L294.096 199.348L293.763 202.169L296.038 203.642L296.991 205.495L294.708 212.5L296.179 215.978L294.034 221.221L298.002 225.295L297.953 227.291L299.587 232.104L299.515 235.621L301.258 237.725L301.381 241.06L300.367 243.54L301.042 246.251L299.726 249.262L297.202 248.809L292.497 252.319L288.025 253.038L284.696 255.666L283.634 258.846L284.755 261.814L282.151 263.369L280.746 262.645L276.176 263.393L273.923 265.585L273.035 268.405L270.162 267.985L265.673 268.355L262.795 267.737L256.633 267.717L255.857 266.436L253.314 269.707L251.797 268.249L249.326 268.819L245.66 268.014L243.08 271.267L240.136 268.958L238.236 270.411L235.048 270.386L234.84 267.673L232.926 266.304L232.809 263.377L229.441 261.725L224.748 258.485L224.012 256.819L225.299 253.387L221.341 248.175L221.297 246.579L217.742 242.559L217.354 238.821L213.233 237.149L214.055 239.644L210.662 239.528L208.394 240.875L205.89 239.744L203.923 240.29L203.674 234.307L197.674 230.262L196.014 230.44L195.301 228.363L196.384 222.265L198.568 219.61L200.385 215.117L200.291 213.634L201.99 209.923L202.358 205.592L205.453 206.5L207.385 207.916L210.218 204.393L214.707 203.025L214.622 200.769L219.81 196.443L221.546 194.42L221.013 191.742L224.239 189.222L223.281 186.936L223.959 182.633L225.091 179.343L222.855 176.177L223.997 175.21L221.812 170.34L222.637 168.668L226.023 167.933L229.004 164.131L228.065 162.616L229.122 159.398L227.914 157.737L225.179 156.179L223.922 151.995L225.991 150.298L229.186 148.998L231.697 148.892L236.102 146.936L241.687 147.51L243.325 145.709L242.891 143.791L246.337 141.815L246.409 138.483L247.778 138.327L249.015 139.303L250.511 142.533L250.147 146.106L251.855 148.339L250.188 150.679L250.91 152.429L254.273 156.777L256.846 158.487L257.05 161.709L259.09 163.948L261.155 164.363L263.418 166.37L263.746 168.477L262.871 171.134L265.656 172.412L270.469 171.066L278.646 171.661L282.186 177.179L279.996 180.15L282.117 180.642L286.331 180.156L288.374 180.843L290.18 179.737L292.958 180.353L296.413 178.845Z" fill="white"/>
<path d="M442.46 209.071L437.466 209.823L438.13 211.808L436.028 212.987L435.662 217.031L440.038 216.488L438.789 219.574L436.429 220.521L437.05 222.688L434.539 225.052L433.571 227.371L430.096 229.911L426.367 235.865L421.916 237.738L419.462 239.751L420.672 241.672L419.821 246.285L420.03 248.321L414.668 252.21L408.836 258.327L410.536 259.862L407.723 264.084L407.504 266.617L404.771 269.425L402.257 273.639L400.296 274.864L395.746 275.063L395.284 272.591L392.921 271.062L389.194 274.813L386.784 275.173L386.753 272.544L379.74 266.056L377.291 264.768L375.773 262.743L371.611 264.316L369.575 262.915L367.288 262.851L365.823 266.639L365.774 268.485L362.136 279.75L359.547 275.169L357.442 273.881L356.221 275.114L352.227 275.866L348.864 274.504L347.237 279.444L345.568 280.98L341.711 279.792L340.238 280.946L337.996 279.661L335.291 281.196L333.313 279.504L330.359 278.937L330.566 274.917L333.642 273.537L333.349 269.4L334.325 267.106L332.613 264.708L329.158 264.64L324.912 262.296L324.485 258.914L320.689 252.206L318.053 253.259L318.439 254.645L315.487 256.465L313.391 253.557L309.688 254.686L308.127 253.267L305.825 255.222L303.173 252.729L300.32 251.142L299.725 249.262L301.041 246.251L300.366 243.54L301.38 241.06L301.257 237.725L299.514 235.621L299.586 232.104L297.952 227.291L298.001 225.295L294.033 221.221L296.178 215.978L294.707 212.5L296.99 205.495L296.037 203.642L293.762 202.169L294.095 199.348L296.179 199.495L299.566 197.492L298.915 192.12L303.029 188.745L301.361 184.144L300.333 183.503L299.603 180.396L296.412 178.845L298.836 176.202L300.155 173.323L299.096 171.493L300.175 168.832L303.32 168.091L307.319 168.451L311.112 168.067L312.806 167.137L315.654 168.181L318.776 171.693L320.044 174.073L319.225 176.779L321.592 179.992L324.281 178.538L326.348 181.909L327.065 184.94L330.186 188.326L329.5 190.729L333.725 190.666L338.871 189.02L343.287 190.707L343.817 188.882L347.548 188.431L348.593 189.045L352.281 188.394L353.051 185.229L357.213 185.397L360.377 186.178L360.702 188.458L362.338 188.508L366.22 193.278L367.286 196.699L366.45 201.798L368.484 201.513L369.922 203.396L374.156 204.153L376.379 205.658L380.485 207.042L382.168 202.866L384.799 202.134L386.352 202.69L390.567 202.42L392.461 197.611L391.537 195.468L393.587 193.385L396.071 193.296L397.197 190.313L400.093 186.425L402.306 187.545L403.554 185.008L406.623 183.873L407.772 187.197L410.494 188.419L411.808 187.285L414.699 186.775L417.335 187.941L418.899 190.503L421.131 189.494L423.109 187.255L424.573 189.237L434.136 195.32L438.568 197.851L438.44 204.604L440.685 204.528L442.46 209.071Z" fill="white"/>
<path d="M244.881 80.2974L247.308 81.7941L252.152 86.7749L255.715 89.7232L256.385 93.5713L258.03 96.378L255.579 97.7494L255.811 103.297L254.906 104.511L256.62 107.685L255.563 109.359L257.531 111.079L255.718 113.036L255.607 115.174L256.92 116.681L257.092 119.176L254.904 123.441L253.886 124.494L253.072 128.721L251.179 131.026L246.015 132.869L247.777 138.327L246.408 138.483L246.336 141.815L242.891 143.791L243.325 145.709L241.687 147.51L236.101 146.936L231.696 148.892L229.185 148.998L225.99 150.298L223.921 151.995L225.178 156.179L227.913 157.737L229.121 159.398L228.064 162.616L229.003 164.131L226.023 167.933L222.636 168.668L221.811 170.34L223.996 175.21L222.855 176.177L220.306 175.922L218.983 172.958L214.786 173.303L208.812 168.578L208.355 162.47L206.26 160.941L203.42 161.19L199.265 164.319L196.537 165.762L193.825 165.247L194.131 161.875L190.842 161.504L191.145 157.952L189.04 155.987L186.761 158.821L185.133 157.944L183.287 159.257L178.625 158.387L176.914 160.214L173.642 161.516L173.356 159.445L169.929 161.743L169.358 160.201L166.624 158.223L163.424 157.243L162.626 158.455L159.486 157.479L156.139 156.15L152.662 155.807L148.708 159.585L145.122 157.351L143.802 151.977L142.739 150.506L147.011 150.722L148.661 149.36L145.427 147.698L143.01 143.841L143.313 137.942L144.187 131.399L143.121 130.028L142.816 126.12L143.544 124.329L143.266 119.301L142.163 119.792L140.192 114.64L136.985 111.677L135.976 104.517L134.962 102.821L136.515 101.053L136.103 97.2579L133.336 95.6594L133.646 93.2194L137.488 95.2871L141.166 96.1244L142.419 97.239L147.394 97.6176L150.437 95.5529L152.6 95.3078L155.359 96.1927L157.159 99.8827L154.468 102.293L154.301 104.05L158.603 111.045L157.846 113.651L160.098 113.613L161.815 112.129L166.741 112.283L169.576 114.13L177.44 115.506L178.993 115.239L184.746 116.338L189.866 118.812L194.622 118.492L199.198 115.989L201.498 113.7L205.274 112.116L201.949 110.137L200.222 107.333L205.28 97.3254L209.212 96.0347L217.725 90.7565L222.341 89.6637L225.013 89.6408L230.823 87.5048L232.774 87.7489L238.859 85.0203L244.881 80.2974Z" fill="white"/>
<path d="M254.902 123.441L257.09 119.176L256.917 116.681L255.605 115.174L255.716 113.036L257.529 111.079L255.561 109.359L256.618 107.685L254.904 104.511L255.808 103.297L255.577 97.7494L258.028 96.3781L256.383 93.5713L255.713 89.7232L252.149 86.7749L247.306 81.7942L244.879 80.2974L247.332 78.1097L249.588 73.1659L253.041 72.7822L250.319 69.0116L251.961 56.336L251.441 47.7275L252.546 46.1045L253.02 42.8121L252.15 39.8138L254.257 38.5487L257.053 35.5749L262.987 33.3425L269.579 32.1893L271.614 30.2076L272.879 30.8587L276.796 29.6535L279.263 29.8643L283.816 28L284.784 31.8851L286.534 35.5397L285.686 38.4111L286.662 42.2702L289.378 42.2537L291.694 46.6269L295.274 48.4362L296.59 45.7919L299.202 44.3188L303.444 43.4652L305.562 47.4646L307.263 49.2589L307.755 56.4426L309.432 58.0134L315.694 58.678L318.577 58.5143L320.379 60.5519L320.546 66.2472L322.034 68.4958L323.24 66.0188L326.748 65.9814L327.891 67.1245L332.502 65.5336L335.669 68.606L335.741 69.853L338.955 70.5875L336.988 73.5218L336.848 75.5531L338.243 76.9628L339.422 80.1297L336.329 82.8903L338.367 86.2414L339.59 86.0963L340.384 88.8959L338.878 95.2164L339.619 96.9944L338.195 99.465L336.267 100.574L335.371 103.141L332.966 103.713L334.656 106.094L333.74 107.442L333.433 117.004L330.922 116.136L329.685 114.593L325.577 117.146L320.272 119.575L321.484 125.019L323.877 127.561L319.607 127.906L319.275 129.599L320.587 133.478L320.276 135.46L318.144 139.654L316.531 140.232L315.067 143.353L309.799 140.451L308.912 138.391L304.3 134.891L305.018 133.394L303.219 130.222L300.867 129.887L300.282 131.339L294.199 132.158L292.141 130.741L290.261 132.629L286.266 130.491L281.795 129.659L275.411 126.099L273.389 127.791L272.256 126.391L268.589 125.972L267.286 125.063L264.924 126.493L261.272 126.956L258.194 125.931L256.558 126.448L254.902 123.441Z" fill="white"/>
<path d="M312.807 167.137L312.051 162.302L314.979 159.136L314.487 157.845L316.605 154.099L314.299 153.595L314.585 149.224L312.067 148.136L315.07 143.353L316.534 140.232L318.147 139.654L320.279 135.46L320.59 133.478L319.278 129.599L319.61 127.906L323.88 127.561L321.487 125.019L320.274 119.575L325.58 117.146L329.687 114.593L330.925 116.136L333.435 117.004L333.743 107.442L334.659 106.094L332.969 103.713L335.374 103.141L336.27 100.574L338.198 99.465L339.622 96.9944L338.881 95.2163L340.386 88.8959L339.592 86.0963L342.115 85.4429L346.674 87.0373L348.852 86.5173L351.154 84.5575L354.56 83.2274L355.028 78.7022L359.02 75.2698L360.699 75.5552L358.327 85.7172L360.069 86.207L361.494 88.1794L360.29 91.1274L360.509 94.2281L365.6 94.6208L368.468 95.4875L370.917 99.053L374.395 98.7919L377.302 102.09L379.779 103.697L381.291 108.276L392.15 105.696L393.669 106.109L394.727 108.271L398.292 108.578L400.714 110.731L403.479 108.449L407.802 107.253L410.479 109.353L413.613 108.701L417.269 110.673L419.179 113.298L419.37 116.432L421.898 118.375L423.805 123.125L428.039 124.836L430.712 121.024L432.645 121.609L434.519 123.544L435.661 126.478L437.201 124.159L438.785 125.644L441.965 125.218L443.801 125.778L445.903 122.831L448.261 122.298L451.628 126.381L453.039 127.197L459.891 128.452L460.688 127.459L463.27 128.983L465.344 127.575L474.689 132.143L472.904 135.609L471.251 140.64L467.761 142.84L467.516 144.78L465.263 147.918L463.701 148.976L462.408 152.138L462.775 155.846L461.621 157.076L460.649 162.591L461.283 165.101L459.608 166.969L458.972 170.999L456.178 176.675L456.136 180.872L458.127 183.744L456.195 188.947L455.61 193.633L456.323 196.222L455.507 199.782L458.25 203.071L458.055 204.469L455.395 206.227L455.729 208.649L451.549 212.243L449.579 211.847L447.018 212.877L444.002 212.04L444.609 209.702L442.461 209.071L440.686 204.528L438.44 204.604L438.569 197.851L434.137 195.32L424.573 189.237L423.11 187.255L421.132 189.494L418.9 190.503L417.336 187.941L414.7 186.775L411.809 187.285L410.494 188.419L407.773 187.197L406.623 183.873L403.555 185.008L402.307 187.546L400.094 186.425L397.198 190.313L396.071 193.296L393.587 193.385L391.538 195.469L392.462 197.611L390.567 202.42L386.352 202.69L384.799 202.134L382.168 202.866L380.485 207.042L376.38 205.658L374.156 204.153L369.923 203.396L368.484 201.513L366.45 201.798L367.287 196.699L366.221 193.278L362.339 188.508L360.702 188.458L360.377 186.178L357.214 185.397L353.052 185.229L352.282 188.394L348.594 189.045L347.548 188.431L343.818 188.882L343.288 190.707L338.872 189.02L333.726 190.666L329.501 190.729L330.187 188.326L327.066 184.94L326.349 181.909L324.282 178.538L321.592 179.992L319.226 176.779L320.045 174.073L318.777 171.694L315.654 168.181L312.807 167.137Z" fill="white"/>
<path d="M222.853 176.177L225.088 179.343L223.956 182.633L223.278 186.936L224.236 189.222L221.01 191.742L221.543 194.42L219.808 196.443L214.619 200.769L214.704 203.025L210.216 204.393L207.382 207.916L205.45 206.5L202.355 205.592L201.987 209.923L200.288 213.634L200.382 215.117L198.565 219.61L196.381 222.265L195.298 228.363L194.094 227.684L191.718 231.852L189.632 233.218L186.947 232.86L186.802 230.879L179.145 232.498L173.642 232.598L173.403 234.317L171.319 236.186L164.023 235.827L162.191 237.638L163.784 238.869L163.593 241.287L165.74 244.062L167.727 244.816L166.995 247.687L169.314 251.132L170.588 255.178L170.829 259.799L169.939 261.6L170.272 265.933L172.75 267.48L171.851 268.794L168.393 270.925L165.582 271.311L161.908 269.311L158.55 270.682L158.244 269.304L155.794 268.227L152.446 270.148L148.946 270.05L147.865 271.834L143.514 267.965L139.663 268.031L138.077 264.748L135.512 264.39L127.814 259.528L126.595 253.45L123.709 248.761L119.96 244.48L117.209 242.005L116.943 238.584L120.624 235.542L122.876 229.997L120.609 227.796L115.721 226.301L117.423 224.347L117.921 221.995L117.213 218.308L113.167 220.429L111.229 218.316L108.583 218.863L105.963 216.513L104.812 212.917L108.319 209.078L113.282 208.743L114.276 206.086L115.958 207.233L121.13 205.533L121.235 202.301L123.069 199.685L126.147 197.793L131.181 197.149L134.732 197.879L137.112 197.296L138.268 194.881L143.894 192.667L146.882 192.124L147.395 193.415L151.448 194.783L153.672 190.245L154.905 185.654L157.03 184.129L159.755 184.017L159.995 180.206L159.074 179.039L157.736 170.067L159.861 166.829L158.924 160.939L159.484 157.479L162.624 158.455L163.422 157.243L166.622 158.223L169.356 160.201L169.928 161.743L173.354 159.445L173.64 161.516L176.912 160.214L178.623 158.387L183.285 159.257L185.131 157.944L186.759 158.821L189.038 155.987L191.143 157.952L190.84 161.504L194.129 161.875L193.823 165.247L196.535 165.762L199.263 164.319L203.418 161.19L206.258 160.941L208.353 162.47L208.811 168.578L214.784 173.303L218.981 172.958L220.304 175.922L222.853 176.177Z" fill="white"/>
<path d="M142.738 150.506L143.802 151.977L145.121 157.351L148.707 159.585L152.662 155.807L156.138 156.15L159.486 157.479L158.926 160.939L159.862 166.829L157.738 170.067L159.076 179.039L159.996 180.206L159.757 184.017L157.031 184.129L154.906 185.654L153.673 190.245L151.449 194.783L147.397 193.415L146.883 192.124L143.895 192.667L138.269 194.881L137.114 197.296L134.733 197.879L131.183 197.149L126.148 197.793L123.07 199.685L121.237 202.301L121.131 205.533L115.959 207.233L114.277 206.086L113.284 208.743L108.32 209.078L109.17 206.524L106.547 204.884L102.838 205.777L101.423 204.947L96.0744 206.203L93.5913 203.138L97.3446 202.911L99.1248 203.543L99.8732 200.712L98.8123 199.427L95.4244 199.39L91.8112 201.107L85.6055 201.304L84.5677 199.107L80.5937 194.741L78.6992 193.401L74.8594 193.796L72.308 189.877L67.1981 188.926L61.8918 187.418L58.1865 181.946L57.3448 184.111L52.4621 183.113L50.6629 185.565L47.6604 186.469L43.5854 185.829L44.5669 183.674L43.3742 178.721L41.6428 176.098L38.8346 174.234L35.6495 173.032L35.929 171.08L45.3066 169.817L47.154 171.027L48.5848 167.933L47.7038 165.53L42.4337 162.809L41.2779 163.002L39.5391 166.076L38.4515 161.851L39.6669 159.685L43.1766 160.137L45.4817 161.23L49.8296 159.894L43.4631 157.941L44.1211 155.528L37.3234 157.243L35.6044 156.14L32.7193 157.295L32.9412 155.053L32 152.728L33.0765 148.169L34.1793 146.293L36.4626 145.017L39.0143 145.24L41.5979 142.486L43.7834 143.068L48.5671 140.743L52.6958 142.078L54.1233 140.739L58.5029 140.481L60.8128 139.453L61.8849 142.671L65.2961 144.675L65.8236 140.798L69.8707 141.157L73.3696 142.604L75.8933 139.467L74.7938 138.31L77.585 135.503L81.2756 137.229L83.993 135.531L87.5844 134.32L94.4969 138.087L93.6876 139.458L96.8921 140.903L96.2267 142.251L100.069 146.257L100.048 149.336L103.586 151.727L104.723 153.851L109.218 150.084L116.981 146.611L118.428 146.866L121.108 151.339L124.21 148.722L127.197 148.483L130.624 146.267L133.345 145.826L132.553 148.802L133.539 150.585L136.032 151.297L142.738 150.506Z" fill="white"/>
<path d="M273.032 268.405L273.249 270.373L274.938 273.421L276.935 273.093L279.929 275.642L281.278 277.755L281.667 280.45L282.874 281.197L282.752 286.567L284.36 288.392L284.015 290.609L282.222 294.86L280.336 296.923L276.646 299.121L278.267 302.043L280.032 303.02L281.507 305.866L281.172 308.656L279.32 310.994L281.268 314.689L280.05 319.931L278.492 321.802L275.765 320.085L275.044 324.632L273.816 324.878L269.335 330.077L269.543 334.315L268.528 337.209L265.62 338.512L267.217 341.023L264.394 342.584L258.752 342.433L255.615 345.007L253.045 344.476L249.288 339.751L244.948 338.75L240.72 341.042L241.65 347.256L238.659 349.138L238.721 350.654L235.819 355.572L233.467 357.094L230.594 357.744L230.819 359.334L225.858 364.06L225.687 369.213L226.925 370.158L226.645 373.482L220.649 373.162L220.105 375.352L222.886 377.895L221.073 381.899L219.126 382.949L214.857 388.44L212.363 390.384L208.866 387.716L207.926 388.816L204.39 388.676L203.7 390.019L200.536 390.545L198.452 391.788L195.219 390.023L189.647 392.386L189.788 395.187L188.186 396.079L186.344 394.489L182.485 393.599L178.156 396.023L179.741 396.742L179.608 400.492L178.739 400.967L179.115 404.559L177.319 405.567L177.648 407.534L176.032 408.863L177.175 411.618L179.767 411.42L182.787 412.265L184.632 415.269L183.515 419.982L186.463 420.65L184.126 426.83L185.174 428.357L181.198 432.912L180.024 435.554L178.003 436.832L178.385 439.163L175.611 440.009L174.19 442.294L174.608 445.069L172.789 446.787L173.126 449.636L170.088 452.039L168.06 452.168L165.962 450.44L163.343 452.749L162.146 450.073L157.394 446.525L156.821 442.822L154.562 443.544L149.481 443.184L146.788 440.97L142.584 439.831L139.017 437.378L138.309 438.004L134.731 435.342L134.261 438.523L131.02 437.415L129.976 435.575L132.234 433.306L133.65 429.65L133.823 426.905L128.295 424.497L126.58 426.657L125.323 426.482L123.275 423.115L120.9 423.957L119.402 419.885L123.568 419.348L126.204 417.223L128.346 414.174L132.606 406.54L133.029 403.427L135.783 393.774L139.132 380.462L142.237 363.632L142.125 361.306L144.194 357.408L144.719 355.039L148.758 356.2L151.563 355.852L150.021 352.844L146.331 349.306L144.518 351.999L142.778 352.223L145.222 338.688L147.709 321.916L148.362 313.466L150.857 308.698L154.505 308.242L152.823 306.079L146.038 301.013L146.025 297.367L150.013 296.41L150.619 293.59L152.182 291.572L152.304 287.519L153.473 285.751L151.984 281.493L149.875 278.922L147.544 277.573L150.986 273.274L152.446 270.148L155.794 268.227L158.245 269.304L158.55 270.682L161.909 269.311L165.583 271.311L168.393 270.925L171.852 268.794L172.75 267.48L170.272 265.933L169.939 261.6L170.83 259.799L170.588 255.178L169.315 251.132L166.996 247.687L167.728 244.816L165.741 244.062L163.594 241.287L163.785 238.869L162.192 237.638L164.023 235.827L171.32 236.186L173.403 234.317L173.642 232.598L179.145 232.498L186.802 230.879L186.948 232.86L189.632 233.218L191.719 231.852L194.095 227.684L195.298 228.363L196.012 230.44L197.672 230.262L203.672 234.307L203.921 240.29L205.888 239.744L208.392 240.875L210.659 239.528L214.052 239.644L213.23 237.149L217.352 238.821L217.74 242.559L221.295 246.579L221.338 248.175L225.296 253.387L224.01 256.819L224.745 258.485L229.439 261.725L232.807 263.377L232.923 266.304L234.837 267.673L235.045 270.386L238.233 270.411L240.133 268.958L243.077 271.267L245.658 268.014L249.324 268.819L251.794 268.25L253.312 269.707L255.855 266.436L256.631 267.717L262.792 267.737L265.671 268.356L270.159 267.985L273.032 268.405Z" fill="white"/>
<path d="M359.54 378.486L362.33 382.699L361.879 387.031L367.03 391.791L367.02 392.907L363.634 395.805L359.749 401.131L360.143 403.584L358.414 408.598L355.881 407.538L354.037 408.023L351.919 412.043L351.194 415.234L345.025 418.446L344.699 420.444L341.586 419.607L339.868 415.708L336.524 415.786L332.568 417.691L328.48 421.645L323.56 424.147L321.282 426.044L318.061 430.14L314.949 429.585L311.786 430.478L307.285 433.786L303.052 439.186L301.061 443.426L300.132 447.164L300.882 448.781L300.061 454.847L299.895 461.996L300.517 467.834L303.231 469.145L305.228 473.592L301.868 474.103L300.396 472.487L296.5 471.313L293.653 471.943L289.831 474.81L286.161 475.139L286.193 478.364L281.554 477.738L278.757 478.395L276.223 475.787L270.24 473.292L268.311 474.372L266.108 474.171L264.846 476.101L260.999 477.914L258.924 475.629L258.855 473.915L253.021 470.419L250.207 470.272L250.408 467.358L249.671 463.965L245.379 463.324L243.458 461.732L240.773 461.911L239.175 464.382L236.962 459.614L231.38 457.779L228.961 458.696L226.85 455.4L224.22 454.558L220.236 454.321L217.339 452.327L214.382 451.763L211.817 450.39L209.931 451.497L209.291 454.358L210.33 459.139L204.822 458.362L200.696 458.857L198.402 457.044L195.846 459.584L194.338 457.206L191.561 456.169L186.497 458.082L182.331 457.969L178.992 453.395L175.853 451.849L173.125 449.636L172.789 446.787L174.608 445.069L174.19 442.294L175.61 440.009L178.385 439.163L178.003 436.832L180.023 435.554L181.198 432.912L185.174 428.357L184.125 426.83L186.463 420.65L183.514 419.982L184.632 415.269L182.787 412.265L179.767 411.42L177.175 411.618L176.032 408.862L177.648 407.534L177.319 405.567L179.115 404.559L178.739 400.966L179.608 400.492L179.741 396.742L178.156 396.023L182.484 393.599L186.343 394.489L188.185 396.079L189.788 395.187L189.647 392.386L195.219 390.023L198.452 391.787L200.536 390.545L203.7 390.019L204.39 388.676L207.926 388.815L208.865 387.716L212.363 390.384L214.857 388.44L219.126 382.949L221.073 381.899L222.885 377.895L220.105 375.352L220.648 373.162L226.645 373.482L226.925 370.157L225.687 369.213L225.857 364.06L230.819 359.334L230.594 357.744L233.467 357.094L235.819 355.571L238.72 350.653L238.659 349.138L241.65 347.256L240.72 341.042L244.947 338.75L249.288 339.751L253.045 344.476L255.615 345.006L258.751 342.433L264.394 342.584L265.097 347.239L268.141 351.162L267.532 356.857L268.067 359.962L273.89 358.458L274.158 359.588L279.648 359.488L280.263 357.449L282.046 356.131L282.561 352.977L285.085 348.085L288.697 344.809L290.407 346.236L290.08 348.48L293.133 348.175L294.249 351.861L296.3 353.174L295.781 355.594L296.978 359.087L298.569 358.276L300.438 352.85L300.267 351.925L303.797 346.573L305.432 348.701L309.047 345.35L312.155 343.585L313.758 344.555L313.868 346.642L316.105 351.317L319.618 350.006L320.378 347.838L321.972 347.74L322.856 350.236L325.85 349.846L329.194 354.369L331.545 359.713L331.414 361.279L333.457 363.343L334.98 366.896L334.967 368.493L337.978 371.925L338.94 375.545L341.944 376.349L345.051 379.044L347.55 375.205L354.076 375.017L356.193 376.921L359.54 378.486Z" fill="white"/>
<path d="M430.699 332.92L428.721 332.303L425.306 334.118L425.595 335.894L422.311 335.781L420.054 332.809L416.11 333.604L415.443 338.57L419.158 338.814L421.208 341.995L421.221 346.516L419.35 345.587L417.425 346.755L413.121 346.281L410.797 348.59L409.421 347.785L406.535 349.631L405.52 352.394L401.843 353.592L402.273 355.855L399.114 358.319L395.893 357.687L395.775 360.05L394.083 363.503L395.234 365.795L394.457 367.5L389.859 366.319L389.361 368.57L387.701 369.805L390.576 374.213L395.205 374.332L397.436 377.162L397.985 381.234L397.668 383.782L395.133 381.625L393.914 381.8L392.766 384.622L391.007 385.63L388.77 383.882L386.789 383.448L386.808 381.352L382.019 379.995L379.266 380.652L377.955 377.546L375.304 377.413L374.676 376.181L369.636 378.805L368.073 378.738L365.671 380.315L365.054 376.663L363.67 375.557L360.563 375.872L359.541 378.486L356.194 376.921L354.077 375.018L347.551 375.205L345.052 379.044L341.944 376.349L338.941 375.545L337.979 371.925L334.968 368.493L334.981 366.896L333.458 363.343L331.415 361.279L331.546 359.713L329.195 354.37L325.851 349.846L322.857 350.237L321.973 347.74L320.379 347.838L319.619 350.006L316.106 351.317L313.869 346.642L313.759 344.555L312.156 343.585L309.048 345.35L305.433 348.701L303.798 346.573L300.268 351.925L300.439 352.85L298.57 358.276L296.979 359.087L295.782 355.594L296.301 353.174L294.25 351.861L293.134 348.175L290.081 348.48L290.408 346.236L288.698 344.809L285.086 348.085L282.562 352.977L282.047 356.131L280.264 357.449L279.649 359.488L274.159 359.588L273.891 358.458L268.068 359.962L267.533 356.857L268.142 351.162L265.098 347.239L264.395 342.584L267.218 341.023L265.621 338.512L268.529 337.209L269.544 334.315L269.335 330.077L273.817 324.878L275.045 324.632L275.766 320.086L278.493 321.802L280.05 319.931L281.268 314.689L279.321 310.994L281.172 308.656L281.507 305.866L280.033 303.02L278.268 302.043L276.647 299.121L280.336 296.923L282.223 294.86L284.016 290.609L284.361 288.392L282.752 286.567L282.875 281.197L281.667 280.45L281.279 277.755L279.93 275.642L276.935 273.093L274.939 273.421L273.25 270.373L273.033 268.405L273.921 265.585L276.174 263.393L280.744 262.645L282.149 263.369L284.753 261.814L283.632 258.846L284.694 255.666L288.023 253.039L292.496 252.32L297.2 248.809L299.724 249.262L300.32 251.142L303.173 252.729L305.824 255.222L308.126 253.267L309.687 254.686L313.39 253.557L315.487 256.465L318.438 254.645L318.052 253.259L320.688 252.206L324.485 258.914L324.911 262.296L329.157 264.64L332.612 264.709L334.324 267.106L333.348 269.4L333.642 273.537L330.566 274.917L330.358 278.938L333.312 279.504L335.29 281.196L337.995 279.661L340.237 280.947L341.71 279.792L345.567 280.98L347.236 279.445L348.863 274.505L352.226 275.866L356.22 275.114L357.442 273.881L359.546 275.17L362.135 279.75L365.773 268.485L365.822 266.639L367.288 262.852L369.574 262.915L371.61 264.316L375.772 262.743L377.29 264.768L379.74 266.056L386.752 272.544L386.783 275.173L389.193 274.813L392.92 271.062L395.283 272.591L395.745 275.063L400.295 274.864L402.257 273.639L404.77 269.425L407.503 266.618L411.375 269.054L409.138 273.32L409.992 275.02L404.881 276.968L404.487 280.726L407.618 280.256L410.643 280.639L413.942 277.193L416.112 276.116L413.987 273.294L415.549 269.38L417.513 268.583L419.267 270.046L424.769 267.001L430.934 266.045L433.355 266.696L433.375 269.834L436.274 272.216L434.297 276.422L434.216 279.753L437.852 280.588L438.974 283.302L442.228 286.644L443.606 290.385L442.061 293.092L439.18 294.837L435.737 295.27L435.671 300.979L437.138 302.729L442.405 305.72L443.121 311.942L444.969 313.527L447.017 313.63L447.614 315.433L450.056 316.616L449.421 319.067L447.808 320.78L448.762 324.436L442.662 327.254L442.324 328.652L438.672 331.612L435.646 330.094L432.462 331.245L430.699 332.92Z" fill="white"/>
<path d="M344.699 420.444L345.025 418.446L351.194 415.234L351.92 412.043L354.038 408.023L355.881 407.538L358.414 408.598L360.143 403.584L359.749 401.131L363.634 395.805L367.021 392.907L367.031 391.791L361.879 387.032L362.331 382.699L359.54 378.486L360.562 375.872L363.669 375.557L365.053 376.663L365.67 380.315L368.073 378.738L369.636 378.805L374.676 376.181L375.304 377.413L377.955 377.546L379.265 380.652L382.019 379.995L386.807 381.352L386.788 383.448L388.769 383.882L391.007 385.63L392.765 384.622L393.913 381.8L395.132 381.625L397.668 383.782L397.984 381.234L397.435 377.162L395.204 374.332L390.575 374.213L387.701 369.805L389.361 368.57L389.859 366.319L394.456 367.5L395.234 365.795L394.082 363.503L395.775 360.05L395.892 357.687L399.113 358.319L402.273 355.855L401.842 353.592L405.519 352.394L406.535 349.631L409.42 347.785L410.796 348.59L413.12 346.281L417.425 346.755L419.35 345.587L421.22 346.516L421.207 341.995L419.157 338.814L415.443 338.57L416.11 333.604L420.053 332.809L422.311 335.781L425.594 335.894L425.305 334.118L428.721 332.303L430.699 332.92L432.491 337.458L435.028 337.494L435.975 340.384L435.467 342.358L439.843 345.814L442.29 345.017L445.1 346.105L446.222 351.705L443.423 355.767L443.089 359.946L440.35 362.198L440.654 363.814L443.96 367.424L441.994 367.893L442.263 370.161L444.639 374.085L446.094 374.863L446.745 377.168L449.033 377.166L452.532 378.258L457.057 381.487L459.421 381.142L459.978 382.598L465.308 380.893L469.576 380.334L473.177 383.271L472.979 385.603L470.589 389.798L468.971 390.396L468.212 393.176L465.874 394.876L467.329 399.296L461.213 402.82L457.028 404.707L453.755 406.821L452.074 411.166L450.272 412.425L446.398 413.36L445.541 417.625L443.314 419.578L438.679 420.164L437.942 423.479L433.522 426.89L436.408 428.892L436.354 431.201L435.003 432.907L432.695 431.747L430.2 433.805L425.557 434.722L425.279 437.22L422.074 435.733L419.26 436.089L416.502 438.16L413.661 438.209L409.205 436.345L406.418 440.101L404.362 438.684L404.503 436.752L400.116 435.057L398.411 433.13L395.483 434.036L391.13 432.184L387.753 432.492L387.436 427.113L385.252 424.629L382.109 426.436L374.586 426.086L373.113 423.361L379.709 422.159L382.046 420.014L381.194 418.019L378.535 419.148L377.547 416.406L374.648 415.442L373.628 419.288L375.564 419.879L375.353 422.738L372.766 422.606L370.926 421.335L368.363 423.011L369.269 424.971L367.518 426.785L365.609 425.889L361.693 426.037L357.96 425.281L358.348 423.027L356.089 420.684L352.062 420.934L344.699 420.444Z" fill="white"/>
</g>
<defs>
<filter id="filter0_d_186_5406" x="0" y="-4.14905" width="507.352" height="522" filterUnits="userSpaceOnUse" color-interpolation-filters="sRGB">
<feFlood flood-opacity="0" result="BackgroundImageFix"/>
<feColorMatrix in="SourceAlpha" type="matrix" values="0 0 0 0 0 0 0 0 0 0 0 0 0 0 0 0 0 0 127 0" result="hardAlpha"/>
<feOffset dy="4"/>
<feGaussianBlur stdDeviation="16"/>
<feComposite in2="hardAlpha" operator="out"/>
<feColorMatrix type="matrix" values="0 0 0 0 0 0 0 0 0 0 0 0 0 0 0 0 0 0 0.1 0"/>
<feBlend mode="normal" in2="BackgroundImageFix" result="effect1_dropShadow_186_5406"/>
<feBlend mode="normal" in="SourceGraphic" in2="effect1_dropShadow_186_5406" result="shape"/>
</filter>
</defs>
</svg>
