<svg width="240" height="70" viewBox="0 0 240 70" fill="none" xmlns="http://www.w3.org/2000/svg">
<path d="M45.5863 64.8204H45.171V62.5675C45.171 62.1738 45.0891 61.8882 44.9248 61.7105C44.7609 61.5333 44.4934 61.4444 44.1233 61.4444C43.6867 61.4444 43.3666 61.5747 43.1636 61.8346C42.96 62.0955 42.8587 62.5095 42.8587 63.0764V64.8204H42.4434V61.1954H42.8587V61.8009C42.9942 61.5603 43.1704 61.3867 43.3872 61.2773C43.6037 61.1691 43.8809 61.1139 44.2181 61.1139C44.6399 61.1139 44.9732 61.2311 45.2185 61.4637C45.4637 61.6963 45.5863 62.0166 45.5863 62.4257V64.8204Z" fill="#2A3A4E"/>
<path d="M51.1753 63.0004C51.1753 62.5223 51.0252 62.1436 50.7261 61.8635C50.4263 61.5843 50.0281 61.4441 49.5319 61.4441C49.0585 61.4441 48.6748 61.5901 48.3795 61.8837C48.0849 62.1757 47.9371 62.5611 47.9371 63.0386C47.9371 63.5058 48.0872 63.8774 48.3863 64.1536C48.6864 64.4296 49.0862 64.5676 49.5861 64.5676C50.0704 64.5676 50.4563 64.4261 50.7445 64.1424C51.0317 63.8591 51.1753 63.4779 51.1753 63.0004ZM51.5909 65.0085C51.5909 65.6778 51.4302 66.1672 51.1078 66.4762C50.7855 66.7858 50.2779 66.9405 49.5861 66.9405C49.062 66.9405 48.6451 66.8539 48.3347 66.6812C48.0246 66.5092 47.8213 66.25 47.7255 65.9053H48.1721C48.2443 66.1457 48.3957 66.3228 48.6264 66.438C48.8562 66.5535 49.1827 66.6106 49.6038 66.6106C50.164 66.6106 50.5657 66.4903 50.8094 66.25C51.0536 66.0099 51.1753 65.623 51.1753 65.089V64.1305C50.9826 64.3943 50.7532 64.5878 50.4867 64.7113C50.2205 64.8355 49.9017 64.8968 49.5319 64.8968C48.9355 64.8968 48.4518 64.7277 48.0795 64.3872C47.708 64.0478 47.5219 63.6008 47.5219 63.0463C47.5219 62.4709 47.7064 62.0063 48.0749 61.6492C48.4438 61.2933 48.9188 61.1139 49.4999 61.1139C49.9213 61.1139 50.2611 61.1743 50.5183 61.2933C50.7758 61.4117 50.9946 61.6084 51.1753 61.8853V61.1954H51.5909V65.0085Z" fill="#2A3A4E"/>
<path d="M56.4573 59.6232L55.3915 60.8072L55.1524 60.6548L56.1595 59.4354L56.4573 59.6232ZM57.1395 62.6507C57.1124 62.2907 56.9581 61.9999 56.6764 61.7776C56.3951 61.5552 56.0346 61.4442 55.5948 61.4442C55.1856 61.4442 54.8352 61.5555 54.5451 61.7788C54.2544 62.0031 54.0898 62.2948 54.0504 62.6555L57.1395 62.6507ZM57.5867 62.9847H54.0237C54.0324 63.493 54.1737 63.8835 54.4477 64.1579C54.7216 64.4306 55.104 64.5673 55.5948 64.5673C55.9439 64.5673 56.2437 64.5022 56.4935 64.3719C56.7436 64.2426 56.9498 64.0436 57.1124 63.7779L57.4738 63.9352C57.2631 64.265 57.0053 64.5076 56.7013 64.6636C56.3973 64.8189 56.0285 64.8969 55.5948 64.8969C54.9746 64.8969 54.4883 64.7261 54.1366 64.3834C53.7839 64.042 53.608 63.5751 53.608 62.9847C53.608 62.4379 53.7958 61.9897 54.1724 61.6393C54.5487 61.2892 55.023 61.114 55.5948 61.114C56.194 61.114 56.6755 61.2744 57.0401 61.5934C57.4041 61.913 57.5867 62.3423 57.5867 62.8814V62.9847Z" fill="#2A3A4E"/>
<path d="M62.6787 64.8204H62.2631V62.5675C62.2631 62.1738 62.1811 61.8882 62.0168 61.7105C61.8529 61.5333 61.5861 61.4444 61.2153 61.4444C60.7787 61.4444 60.4589 61.5747 60.256 61.8346C60.0527 62.0955 59.9507 62.5095 59.9507 63.0764V64.8204H59.5354V61.1954H59.9507V61.8009C60.0862 61.5603 60.2631 61.3867 60.4793 61.2773C60.6961 61.1691 60.9736 61.1139 61.3105 61.1139C61.7319 61.1139 62.0653 61.2311 62.3105 61.4637C62.5561 61.6963 62.6787 62.0166 62.6787 62.4257V64.8204Z" fill="#2A3A4E"/>
<path d="M65.558 64.8205H65.1427V61.1955H65.558V64.8205ZM65.7165 59.8763C65.7165 59.9636 65.679 60.0374 65.6058 60.099C65.5316 60.1597 65.4451 60.1901 65.346 60.1901C65.2434 60.1901 65.156 60.1597 65.084 60.099C65.0121 60.0374 64.9756 59.9636 64.9756 59.8763C64.9756 59.7894 65.0121 59.7156 65.084 59.654C65.156 59.593 65.2434 59.5622 65.346 59.5622C65.4451 59.5622 65.5316 59.593 65.6058 59.654C65.679 59.7156 65.7165 59.7894 65.7165 59.8763Z" fill="#2A3A4E"/>
<path d="M71.0888 62.6506C71.0613 62.2909 70.9071 62.0002 70.6257 61.7775C70.3446 61.5551 69.9829 61.4441 69.5441 61.4441C69.1346 61.4441 68.7845 61.5558 68.494 61.7788C68.2039 62.0031 68.0384 62.2948 67.9997 62.6551L71.0888 62.6506ZM71.5357 62.9847H67.9726C67.9816 63.493 68.1233 63.8844 68.3966 64.1578C68.6705 64.4309 69.0533 64.5676 69.5441 64.5676C69.8929 64.5676 70.1927 64.5024 70.4431 64.3718C70.6928 64.2419 70.8987 64.0439 71.0613 63.7782L71.4231 63.9351C71.212 64.265 70.9542 64.5069 70.6505 64.6635C70.3466 64.8192 69.9774 64.8975 69.5441 64.8975C68.9239 64.8975 68.4376 64.7264 68.0855 64.3834C67.7328 64.0413 67.5566 63.5748 67.5566 62.9847C67.5566 62.4382 67.7451 61.9896 68.1213 61.6395C68.4976 61.2895 68.9719 61.1139 69.5441 61.1139C70.1433 61.1139 70.6247 61.2747 70.989 61.5933C71.3534 61.9129 71.5357 62.3423 71.5357 62.8814V62.9847Z" fill="#2A3A4E"/>
<path d="M75.3363 61.1954L75.1963 61.5247C75.1543 61.4987 75.1017 61.4788 75.0382 61.4653C74.9749 61.4515 74.9104 61.4441 74.8442 61.4441C74.5006 61.4441 74.2482 61.5914 74.0879 61.8869C73.9262 62.1818 73.8458 62.6362 73.8458 63.2491V64.8204H73.4305V61.1954H73.8458V61.774C73.9455 61.5407 74.0808 61.3732 74.2524 61.2696C74.4241 61.1659 74.6496 61.1139 74.9294 61.1139C75.0049 61.1139 75.0778 61.122 75.1492 61.1358C75.2195 61.1492 75.2821 61.1698 75.3363 61.1954Z" fill="#2A3A4E"/>
<path d="M77.2811 64.8205H76.8655V61.1955H77.2811V64.8205ZM77.4389 59.8763C77.4389 59.9636 77.4018 60.0374 77.3279 60.099C77.2547 60.1597 77.1679 60.1901 77.0685 60.1901C76.9659 60.1901 76.8788 60.1597 76.8065 60.099C76.7345 60.0374 76.6984 59.9636 76.6984 59.8763C76.6984 59.7894 76.7345 59.7156 76.8065 59.654C76.8788 59.593 76.9659 59.5622 77.0685 59.5622C77.1679 59.5622 77.2547 59.593 77.3279 59.654C77.4018 59.7156 77.4389 59.7894 77.4389 59.8763Z" fill="#2A3A4E"/>
<path d="M82.8117 62.6506C82.7839 62.2909 82.63 62.0002 82.3489 61.7775C82.0672 61.5551 81.7058 61.4441 81.2673 61.4441C80.8575 61.4441 80.5074 61.5558 80.2169 61.7788C79.9265 62.0031 79.7613 62.2948 79.7223 62.6551L82.8117 62.6506ZM83.2586 62.9847H79.6952C79.7045 63.493 79.8462 63.8844 80.1198 64.1578C80.3934 64.4309 80.7762 64.5676 81.2673 64.5676C81.6161 64.5676 81.9156 64.5024 82.1656 64.3718C82.4154 64.2419 82.6219 64.0439 82.7839 63.7782L83.1453 63.9351C82.9346 64.265 82.6771 64.5069 82.3734 64.6635C82.0688 64.8192 81.7003 64.8975 81.2673 64.8975C80.6464 64.8975 80.1611 64.7264 79.8081 64.3834C79.456 64.0413 79.2795 63.5748 79.2795 62.9847C79.2795 62.4382 79.4677 61.9896 79.8442 61.6395C80.2208 61.2895 80.6945 61.1139 81.2673 61.1139C81.8662 61.1139 82.348 61.2747 82.7119 61.5933C83.0763 61.9129 83.2586 62.3423 83.2586 62.8814V62.9847Z" fill="#2A3A4E"/>
<path d="M91.1753 60.7418C91.1753 60.5499 91.1014 60.3946 90.9546 60.2733C90.8081 60.1529 90.6164 60.0929 90.3802 60.0929C90.1343 60.0929 89.9391 60.1507 89.7945 60.2672C89.6506 60.3833 89.5783 60.5367 89.5783 60.7286C89.5783 60.8406 89.6132 60.9596 89.6835 61.0873C89.7539 61.2154 89.8633 61.3604 90.0114 61.5225L90.2828 61.8097C90.6113 61.6178 90.8423 61.4448 90.9756 61.2901C91.1082 61.1361 91.1753 60.9529 91.1753 60.7418ZM91.7549 63.8646L90.1805 62.1774C89.6558 62.471 89.2999 62.7116 89.1134 62.8997C88.9259 63.0871 88.8326 63.3194 88.8326 63.5963C88.8326 63.8947 88.9549 64.138 89.1998 64.3266C89.4444 64.5153 89.7565 64.61 90.1356 64.61C90.4067 64.61 90.6777 64.5477 90.9494 64.4226C91.2205 64.2978 91.4893 64.1123 91.7549 63.8646ZM93.0959 64.8205H92.648L91.962 64.0886C91.6713 64.3549 91.3712 64.5538 91.064 64.6867C90.7565 64.8186 90.438 64.8843 90.1092 64.8843C89.6222 64.8843 89.225 64.7602 88.9191 64.5102C88.6129 64.2615 88.4596 63.9416 88.4596 63.5514C88.4596 63.2745 88.5761 63.0152 88.8097 62.7736C89.043 62.531 89.4367 62.2643 89.9885 61.972L89.68 61.6402C89.5141 61.457 89.398 61.294 89.3315 61.1512C89.2647 61.0081 89.2315 60.8634 89.2315 60.7164C89.2315 60.4498 89.3344 60.2335 89.5406 60.0673C89.7465 59.901 90.0262 59.8183 90.3802 59.8183C90.7145 59.8183 90.9878 59.9055 91.2014 60.0804C91.4151 60.2553 91.5219 60.4754 91.5219 60.7418C91.5219 60.9831 91.4412 61.2019 91.2808 61.3989C91.1198 61.5959 90.851 61.8003 90.4744 62.0105L91.9853 63.6345C92.1082 63.5049 92.2266 63.3653 92.3408 63.2161C92.4551 63.0669 92.5648 62.9103 92.6706 62.7466L92.9494 62.8836C92.821 63.0813 92.6952 63.2616 92.5709 63.424C92.4467 63.5851 92.3228 63.7311 92.1995 63.8585L93.0959 64.8205Z" fill="#2A3A4E"/>
<path d="M102.065 62.9767C102.065 62.5092 101.916 62.1369 101.616 61.8597C101.316 61.5828 100.917 61.4442 100.417 61.4442C99.9207 61.4442 99.5316 61.5754 99.2499 61.8388C98.9685 62.1013 98.8275 62.4668 98.8275 62.9343C98.8275 63.425 98.9804 63.8203 99.286 64.119C99.5916 64.4178 99.9872 64.5673 100.472 64.5673C100.944 64.5673 101.328 64.4216 101.623 64.1306C101.918 63.8392 102.065 63.4545 102.065 62.9767ZM102.482 62.9696C102.482 63.5443 102.297 64.0096 101.928 64.3645C101.559 64.7197 101.083 64.8965 100.499 64.8965C100.113 64.8965 99.7846 64.8314 99.5119 64.6998C99.2396 64.5683 99.0114 64.3658 98.8275 64.0927V66.8594H98.4119V61.1952H98.8275V61.8465C99.0024 61.6033 99.2276 61.4207 99.5032 61.2975C99.7784 61.1753 100.101 61.1136 100.472 61.1136C101.067 61.1136 101.551 61.285 101.924 61.6258C102.295 61.9669 102.482 62.4148 102.482 62.9696Z" fill="#2A3A4E"/>
<path d="M107.686 62.6506C107.659 62.2909 107.505 62.0002 107.224 61.7775C106.942 61.5551 106.581 61.4441 106.142 61.4441C105.732 61.4441 105.382 61.5558 105.092 61.7788C104.802 62.0031 104.636 62.2948 104.597 62.6551L107.686 62.6506ZM108.133 62.9847H104.57C104.579 63.493 104.721 63.8844 104.995 64.1578C105.268 64.4309 105.651 64.5676 106.142 64.5676C106.491 64.5676 106.79 64.5024 107.041 64.3718C107.29 64.2419 107.497 64.0439 107.659 63.7782L108.02 63.9351C107.809 64.265 107.552 64.5069 107.249 64.6635C106.944 64.8192 106.575 64.8975 106.142 64.8975C105.522 64.8975 105.036 64.7264 104.683 64.3834C104.331 64.0413 104.154 63.5748 104.154 62.9847C104.154 62.4382 104.343 61.9896 104.719 61.6395C105.096 61.2895 105.57 61.1139 106.142 61.1139C106.741 61.1139 107.223 61.2747 107.586 61.5933C107.951 61.9129 108.133 62.3423 108.133 62.8814V62.9847Z" fill="#2A3A4E"/>
<path d="M111.934 61.1954L111.794 61.5247C111.752 61.4987 111.699 61.4788 111.636 61.4653C111.573 61.4515 111.508 61.4441 111.442 61.4441C111.098 61.4441 110.846 61.5914 110.685 61.8869C110.524 62.1818 110.443 62.6362 110.443 63.2491V64.8204H110.028V61.1954H110.443V61.774C110.543 61.5407 110.678 61.3732 110.85 61.2696C111.022 61.1659 111.248 61.1139 111.527 61.1139C111.603 61.1139 111.676 61.122 111.746 61.1358C111.817 61.1492 111.88 61.1698 111.934 61.1954Z" fill="#2A3A4E"/>
<path d="M115.156 58.6878C115.082 58.6576 115.015 58.6345 114.956 58.6188C114.897 58.6034 114.842 58.5963 114.791 58.5963C114.535 58.5963 114.36 58.6695 114.265 58.8161C114.17 58.9634 114.122 59.2545 114.122 59.6883V61.1952H115.021V61.5247H114.122V64.8202H113.707V61.5247H113.079V61.1952H113.707V59.7117C113.707 59.1954 113.787 58.8254 113.946 58.6015C114.106 58.3781 114.373 58.2665 114.75 58.2665C114.828 58.2665 114.898 58.2716 114.96 58.2816C115.022 58.2921 115.089 58.3098 115.162 58.3348L115.156 58.6878Z" fill="#2A3A4E"/>
<path d="M120.195 63.0004C120.195 62.5611 120.022 62.1915 119.677 61.8927C119.332 61.5933 118.908 61.4441 118.402 61.4441C117.896 61.4441 117.469 61.5933 117.122 61.8901C116.774 62.1882 116.6 62.5579 116.6 63.0004C116.6 63.439 116.775 63.8103 117.126 64.1135C117.477 64.4161 117.902 64.5676 118.402 64.5676C118.902 64.5676 119.325 64.4161 119.674 64.1135C120.02 63.8103 120.195 63.439 120.195 63.0004ZM120.615 62.993C120.615 63.5212 120.398 63.9711 119.964 64.3417C119.531 64.7126 119.004 64.8968 118.384 64.8968C117.775 64.8968 117.257 64.7126 116.828 64.3417C116.399 63.9711 116.184 63.5212 116.184 62.993C116.184 62.4658 116.397 62.0214 116.824 61.6591C117.25 61.2956 117.769 61.1139 118.384 61.1139C119.013 61.1139 119.543 61.2952 119.971 61.6565C120.401 62.0185 120.615 62.4632 120.615 62.993Z" fill="#2A3A4E"/>
<path d="M124.425 61.1954L124.284 61.5247C124.243 61.4987 124.19 61.4788 124.127 61.4653C124.064 61.4515 123.999 61.4441 123.932 61.4441C123.589 61.4441 123.337 61.5914 123.176 61.8869C123.014 62.1818 122.934 62.6362 122.934 63.2491V64.8204H122.519V61.1954H122.934V61.774C123.034 61.5407 123.169 61.3732 123.341 61.2696C123.512 61.1659 123.738 61.1139 124.018 61.1139C124.093 61.1139 124.166 61.122 124.237 61.1358C124.308 61.1492 124.37 61.1698 124.425 61.1954Z" fill="#2A3A4E"/>
<path d="M131.084 64.8204H130.668V62.5675C130.668 62.187 130.594 61.9036 130.447 61.7207C130.299 61.5365 130.071 61.4444 129.761 61.4444C129.374 61.4444 129.106 61.5465 128.952 61.7509C128.798 61.9553 128.721 62.3718 128.721 63.0004V64.8204H128.306V62.5675C128.306 62.1709 128.237 61.885 128.099 61.7089C127.959 61.5327 127.728 61.4444 127.404 61.4444C127 61.4444 126.71 61.5715 126.536 61.8257C126.362 62.0798 126.274 62.4966 126.274 63.0764V64.8204H125.859V61.1954H126.274V61.7432C126.367 61.5388 126.516 61.3828 126.719 61.276C126.923 61.1685 127.175 61.1139 127.475 61.1139C127.74 61.1139 127.972 61.1711 128.171 61.2827C128.369 61.3957 128.514 61.5539 128.605 61.7589C128.704 61.5407 128.854 61.3796 129.056 61.2734C129.258 61.1678 129.517 61.1139 129.833 61.1139C130.206 61.1139 130.508 61.2323 130.738 61.4675C130.969 61.7021 131.084 62.0214 131.084 62.4257V64.8204Z" fill="#2A3A4E"/>
<path d="M136.718 63.0004C136.718 62.5223 136.568 62.1436 136.269 61.8635C135.968 61.5843 135.571 61.4441 135.074 61.4441C134.601 61.4441 134.218 61.5901 133.922 61.8837C133.627 62.1757 133.479 62.5611 133.479 63.0386C133.479 63.5058 133.629 63.8774 133.929 64.1536C134.229 64.4296 134.628 64.5676 135.128 64.5676C135.613 64.5676 135.999 64.4261 136.286 64.1424C136.574 63.8591 136.718 63.4779 136.718 63.0004ZM137.133 64.8204H136.718V64.1305C136.525 64.3943 136.295 64.5878 136.029 64.7113C135.763 64.8355 135.444 64.8968 135.074 64.8968C134.478 64.8968 133.994 64.7277 133.622 64.3872C133.25 64.0478 133.064 63.6008 133.064 63.0463C133.064 62.4709 133.249 62.0063 133.617 61.6492C133.987 61.2933 134.461 61.1139 135.042 61.1139C135.463 61.1139 135.803 61.1743 136.06 61.2933C136.318 61.4117 136.537 61.6084 136.718 61.8853V61.1954H137.133V64.8204Z" fill="#2A3A4E"/>
<path d="M142.555 64.8204H142.14V62.5675C142.14 62.1738 142.058 61.8882 141.894 61.7105C141.729 61.5333 141.463 61.4444 141.092 61.4444C140.655 61.4444 140.335 61.5747 140.132 61.8346C139.93 62.0955 139.827 62.5095 139.827 63.0764V64.8204H139.412V61.1954H139.827V61.8009C139.963 61.5603 140.139 61.3867 140.356 61.2773C140.573 61.1691 140.849 61.1139 141.187 61.1139C141.608 61.1139 141.942 61.2311 142.187 61.4637C142.433 61.6963 142.555 62.0166 142.555 62.4257V64.8204Z" fill="#2A3A4E"/>
<path d="M148.099 64.633C147.895 64.7222 147.672 64.7884 147.431 64.8323C147.19 64.876 146.931 64.8968 146.654 64.8968C146.016 64.8968 145.492 64.7229 145.085 64.3738C144.677 64.0256 144.472 63.5777 144.472 63.0306C144.472 62.4607 144.686 62.0002 145.112 61.645C145.538 61.2914 146.092 61.1139 146.775 61.1139C147.004 61.1139 147.221 61.137 147.426 61.1816C147.631 61.2269 147.831 61.294 148.026 61.3828V61.7432C147.831 61.6456 147.627 61.5722 147.415 61.5211C147.203 61.4695 146.987 61.4441 146.767 61.4441C146.188 61.4441 145.732 61.5892 145.394 61.8792C145.056 62.1687 144.888 62.5637 144.888 63.0614C144.888 63.501 145.063 63.8623 145.414 64.1443C145.765 64.4267 146.215 64.5676 146.767 64.5676C147.023 64.5676 147.26 64.5429 147.48 64.4928C147.701 64.4434 147.906 64.3674 148.099 64.2653V64.633Z" fill="#2A3A4E"/>
<path d="M153.26 62.6506C153.232 62.2909 153.078 62.0002 152.796 61.7775C152.515 61.5551 152.154 61.4441 151.715 61.4441C151.305 61.4441 150.955 61.5558 150.665 61.7788C150.374 62.0031 150.209 62.2948 150.17 62.6551L153.26 62.6506ZM153.706 62.9847H150.143C150.152 63.493 150.294 63.8844 150.567 64.1578C150.841 64.4309 151.224 64.5676 151.715 64.5676C152.064 64.5676 152.363 64.5024 152.613 64.3718C152.863 64.2419 153.07 64.0439 153.232 63.7782L153.593 63.9351C153.383 64.265 153.125 64.5069 152.821 64.6635C152.516 64.8192 152.148 64.8975 151.715 64.8975C151.094 64.8975 150.608 64.7264 150.256 64.3834C149.904 64.0413 149.728 63.5748 149.728 62.9847C149.728 62.4382 149.916 61.9896 150.292 61.6395C150.668 61.2895 151.142 61.1139 151.715 61.1139C152.313 61.1139 152.796 61.2747 153.16 61.5933C153.524 61.9129 153.706 62.3423 153.706 62.8814V62.9847Z" fill="#2A3A4E"/>
<path d="M167.256 63.0004C167.256 62.5223 167.107 62.1437 166.807 61.8636C166.508 61.5844 166.11 61.4442 165.613 61.4442C165.14 61.4442 164.756 61.5902 164.461 61.8838C164.166 62.1758 164.019 62.5612 164.019 63.0386C164.019 63.5058 164.169 63.8774 164.468 64.1537C164.767 64.4296 165.167 64.5676 165.667 64.5676C166.151 64.5676 166.538 64.4261 166.825 64.1425C167.113 63.8591 167.256 63.4779 167.256 63.0004ZM167.672 64.8205H167.256V64.1306C167.064 64.3944 166.834 64.5878 166.568 64.7114C166.302 64.8356 165.983 64.8969 165.613 64.8969C165.017 64.8969 164.533 64.7277 164.161 64.3873C163.789 64.0478 163.603 63.6008 163.603 63.0463C163.603 62.471 163.787 62.0064 164.157 61.6492C164.525 61.2934 165 61.114 165.582 61.114C166.026 61.114 166.372 61.1749 166.617 61.2946C166.863 61.415 167.076 61.6117 167.256 61.8854V58.3438H167.672V64.8205Z" fill="#2A3A4E"/>
<path d="M173.157 62.6506C173.131 62.2909 172.976 62.0002 172.695 61.7775C172.413 61.5551 172.052 61.4441 171.613 61.4441C171.203 61.4441 170.853 61.5558 170.563 61.7788C170.273 62.0031 170.108 62.2948 170.069 62.6551L173.157 62.6506ZM173.605 62.9847H170.041C170.05 63.493 170.192 63.8844 170.466 64.1578C170.74 64.4309 171.122 64.5676 171.613 64.5676C171.962 64.5676 172.262 64.5024 172.512 64.3718C172.761 64.2419 172.968 64.0439 173.131 63.7782L173.492 63.9351C173.281 64.265 173.024 64.5069 172.72 64.6635C172.415 64.8192 172.046 64.8975 171.613 64.8975C170.993 64.8975 170.506 64.7264 170.154 64.3834C169.802 64.0413 169.626 63.5748 169.626 62.9847C169.626 62.4382 169.814 61.9896 170.191 61.6395C170.567 61.2895 171.041 61.1139 171.613 61.1139C172.212 61.1139 172.693 61.2747 173.058 61.5933C173.422 61.9129 173.605 62.3423 173.605 62.8814V62.9847Z" fill="#2A3A4E"/>
<path d="M182.543 61.1955L180.619 64.9626L178.686 61.1955H179.151L180.619 64.1617L182.082 61.1955H182.543Z" fill="#2A3A4E"/>
<path d="M187.671 63.0004C187.671 62.5611 187.499 62.1915 187.154 61.8927C186.809 61.5933 186.384 61.4441 185.878 61.4441C185.372 61.4441 184.946 61.5933 184.598 61.8901C184.25 62.1882 184.076 62.5579 184.076 63.0004C184.076 63.439 184.251 63.8103 184.602 64.1135C184.953 64.4161 185.379 64.5676 185.878 64.5676C186.377 64.5676 186.802 64.4161 187.15 64.1135C187.497 63.8103 187.671 63.439 187.671 63.0004ZM188.091 62.993C188.091 63.5212 187.874 63.9711 187.441 64.3417C187.007 64.7126 186.481 64.8968 185.86 64.8968C185.252 64.8968 184.733 64.7126 184.304 64.3417C183.875 63.9711 183.661 63.5212 183.661 62.993C183.661 62.4658 183.874 62.0214 184.3 61.6591C184.726 61.2956 185.246 61.1139 185.86 61.1139C186.489 61.1139 187.019 61.2952 187.448 61.6565C187.877 62.0185 188.091 62.4632 188.091 62.993Z" fill="#2A3A4E"/>
<path d="M192.245 63.8703C192.245 64.1841 192.111 64.4341 191.843 64.6196C191.575 64.8044 191.209 64.8968 190.745 64.8968C190.408 64.8968 190.115 64.8374 189.867 64.7178C189.618 64.5971 189.437 64.4274 189.322 64.2076L189.702 64.0272C189.804 64.2137 189.945 64.3507 190.124 64.4373C190.303 64.5246 190.533 64.5676 190.813 64.5676C191.111 64.5676 191.355 64.5069 191.544 64.3872C191.734 64.2676 191.829 64.1078 191.829 63.9085C191.829 63.6906 191.754 63.5292 191.603 63.4217C191.453 63.3145 191.155 63.1942 190.709 63.0614C190.351 62.9545 190.076 62.8143 189.885 62.642C189.694 62.469 189.598 62.2694 189.598 62.0416C189.598 61.7583 189.707 61.5327 189.925 61.3652C190.144 61.198 190.446 61.1139 190.83 61.1139C191.111 61.1139 191.347 61.1659 191.538 61.268C191.729 61.3703 191.885 61.5256 192.005 61.7352L191.626 61.9075C191.539 61.747 191.428 61.6293 191.296 61.5551C191.164 61.4813 190.996 61.4441 190.794 61.4441C190.56 61.4441 190.372 61.4987 190.23 61.6091C190.089 61.7188 190.018 61.8632 190.018 62.0416C190.018 62.2004 190.087 62.3381 190.226 62.4559C190.364 62.573 190.575 62.6709 190.858 62.7472C191.366 62.89 191.725 63.0444 191.933 63.209C192.14 63.3739 192.245 63.5944 192.245 63.8703Z" fill="#2A3A4E"/>
<path d="M201.607 63.0386C201.607 62.5612 201.459 62.1758 201.164 61.8835C200.869 61.5902 200.485 61.4442 200.013 61.4442C199.501 61.4442 199.099 61.5825 198.807 61.8578C198.515 62.1341 198.368 62.5143 198.368 63.0004C198.368 63.4779 198.515 63.8591 198.81 64.1421C199.102 64.4261 199.491 64.5676 199.976 64.5676C200.473 64.5676 200.869 64.4309 201.164 64.1553C201.459 63.8813 201.607 63.5084 201.607 63.0386ZM202.022 63.046C202.022 63.6008 201.836 64.0478 201.464 64.3873C201.092 64.7277 200.608 64.8975 200.013 64.8975C199.642 64.8975 199.324 64.8356 199.057 64.712C198.791 64.5878 198.561 64.3944 198.368 64.1306V64.8205H197.953V58.3438H198.368V61.8854C198.534 61.6322 198.758 61.4406 199.042 61.3094C199.325 61.1791 199.657 61.114 200.04 61.114C200.623 61.114 201.1 61.2934 201.469 61.6492C201.838 62.0057 202.022 62.4707 202.022 63.046Z" fill="#2A3A4E"/>
<path d="M206.948 60.6702L206.744 60.8082L205.773 59.9072L204.802 60.8082L204.599 60.6702L205.773 59.4355L206.948 60.6702ZM207.395 63.0004C207.395 62.522 207.245 62.1437 206.945 61.8636C206.645 61.5844 206.248 61.4442 205.751 61.4442C205.278 61.4442 204.895 61.5902 204.599 61.8835C204.304 62.1755 204.156 62.5612 204.156 63.0386C204.156 63.5058 204.306 63.8774 204.606 64.1534C204.905 64.4297 205.305 64.568 205.805 64.568C206.29 64.568 206.676 64.4261 206.964 64.1428C207.251 63.8585 207.395 63.4779 207.395 63.0004ZM207.81 64.8205H207.395V64.1306C207.202 64.3947 206.972 64.5878 206.706 64.7114C206.44 64.8352 206.121 64.8969 205.751 64.8969C205.154 64.8969 204.67 64.7278 204.299 64.3873C203.927 64.0475 203.741 63.6008 203.741 63.046C203.741 62.4707 203.926 62.0057 204.294 61.6492C204.663 61.293 205.139 61.1146 205.719 61.1146C206.141 61.1146 206.48 61.174 206.738 61.293C206.995 61.4118 207.214 61.6091 207.395 61.8847V61.1955H207.81V64.8205Z" fill="#2A3A4E"/>
<path d="M211.326 61.5247H210.54V64.8205H210.125V61.5247H209.533V61.1955H210.125V59.6385H210.54V61.1955H211.326V61.5247Z" fill="#2A3A4E"/>
<path d="M213.51 64.8205H213.094V61.1955H213.51V64.8205ZM213.668 59.8763C213.668 59.9636 213.631 60.0374 213.557 60.099C213.484 60.1597 213.397 60.1901 213.298 60.1901C213.195 60.1901 213.108 60.1597 213.036 60.099C212.964 60.0374 212.928 59.9636 212.928 59.8763C212.928 59.7894 212.964 59.7156 213.036 59.654C213.108 59.593 213.195 59.5622 213.298 59.5622C213.397 59.5622 213.484 59.593 213.557 59.654C213.631 59.7156 213.668 59.7894 213.668 59.8763Z" fill="#2A3A4E"/>
<path d="M221.185 64.8204H220.77V62.5675C220.77 62.187 220.696 61.9036 220.549 61.7207C220.401 61.5365 220.172 61.4444 219.862 61.4444C219.477 61.4444 219.208 61.5465 219.054 61.7509C218.9 61.9553 218.824 62.3718 218.824 63.0004V64.8204H218.408V62.5675C218.408 62.1709 218.339 61.885 218.201 61.7089C218.061 61.5327 217.83 61.4444 217.505 61.4444C217.101 61.4444 216.813 61.5715 216.638 61.8257C216.464 62.0798 216.376 62.4966 216.376 63.0764V64.8204H215.961V61.1954H216.376V61.7432C216.47 61.5388 216.618 61.3828 216.821 61.276C217.024 61.1685 217.277 61.1139 217.577 61.1139C217.843 61.1139 218.074 61.1711 218.273 61.2827C218.471 61.3957 218.616 61.5539 218.706 61.7589C218.805 61.5407 218.957 61.3796 219.158 61.2734C219.36 61.1678 219.619 61.1139 219.935 61.1139C220.308 61.1139 220.61 61.2323 220.84 61.4675C221.071 61.7021 221.185 62.0214 221.185 62.4257V64.8204Z" fill="#2A3A4E"/>
<path d="M226.671 62.6506C226.644 62.2909 226.489 62.0002 226.208 61.7775C225.926 61.5551 225.566 61.4441 225.126 61.4441C224.717 61.4441 224.366 61.5558 224.076 61.7788C223.786 62.0031 223.62 62.2948 223.582 62.6551L226.671 62.6506ZM227.118 62.9847H223.555C223.564 63.493 223.706 63.8844 223.979 64.1578C224.253 64.4309 224.636 64.5676 225.126 64.5676C225.476 64.5676 225.775 64.5024 226.025 64.3718C226.275 64.2419 226.481 64.0439 226.644 63.7782L227.005 63.9351C226.794 64.265 226.537 64.5069 226.233 64.6635C225.929 64.8192 225.56 64.8975 225.126 64.8975C224.506 64.8975 224.02 64.7264 223.668 64.3834C223.316 64.0413 223.14 63.5748 223.14 62.9847C223.14 62.4382 223.327 61.9896 223.704 61.6395C224.08 61.2895 224.554 61.1139 225.126 61.1139C225.725 61.1139 226.207 61.2747 226.572 61.5933C226.936 61.9129 227.118 62.3423 227.118 62.8814V62.9847Z" fill="#2A3A4E"/>
<path d="M232.129 64.8204H231.713V62.5675C231.713 62.1738 231.631 61.8882 231.467 61.7105C231.303 61.5333 231.036 61.4444 230.665 61.4444C230.229 61.4444 229.909 61.5747 229.706 61.8346C229.503 62.0955 229.401 62.5095 229.401 63.0764V64.8204H228.985V61.1954H229.401V61.8009C229.536 61.5603 229.713 61.3867 229.929 61.2773C230.146 61.1691 230.423 61.1139 230.76 61.1139C231.182 61.1139 231.516 61.2311 231.76 61.4637C232.006 61.6963 232.129 62.0166 232.129 62.4257V64.8204Z" fill="#2A3A4E"/>
<path d="M235.582 61.5247H234.796V64.8205H234.38V61.5247H233.789V61.1955H234.38V59.6385H234.796V61.1955H235.582V61.5247Z" fill="#2A3A4E"/>
<path d="M239.568 63.8703C239.568 64.1841 239.433 64.4341 239.166 64.6196C238.898 64.8044 238.532 64.8968 238.068 64.8968C237.731 64.8968 237.438 64.8374 237.19 64.7178C236.941 64.5971 236.76 64.4274 236.646 64.2076L237.025 64.0272C237.127 64.2137 237.268 64.3507 237.447 64.4373C237.626 64.5246 237.856 64.5676 238.136 64.5676C238.434 64.5676 238.678 64.5069 238.868 64.3872C239.057 64.2676 239.152 64.1078 239.152 63.9085C239.152 63.6906 239.077 63.5292 238.927 63.4217C238.776 63.3145 238.477 63.1942 238.032 63.0614C237.674 62.9545 237.399 62.8143 237.208 62.642C237.017 62.469 236.921 62.2694 236.921 62.0416C236.921 61.7583 237.03 61.5327 237.249 61.3652C237.467 61.198 237.769 61.1139 238.153 61.1139C238.434 61.1139 238.67 61.1659 238.861 61.268C239.052 61.3703 239.208 61.5256 239.329 61.7352L238.949 61.9075C238.861 61.747 238.752 61.6293 238.62 61.5551C238.487 61.4813 238.32 61.4441 238.118 61.4441C237.883 61.4441 237.695 61.4987 237.554 61.6091C237.412 61.7188 237.342 61.8632 237.342 62.0416C237.342 62.2004 237.41 62.3381 237.549 62.4559C237.687 62.573 237.898 62.6709 238.181 62.7472C238.69 62.89 239.049 63.0444 239.256 63.209C239.464 63.3739 239.568 63.5944 239.568 63.8703Z" fill="#2A3A4E"/>
<path d="M31.4026 0.0075531L-0.00017141 65.8919L12.9616 58.0251L31.3758 19.295L31.4026 0.0075531Z" fill="#2C79B9"/>
<path d="M55.0365 50.3321L31.3811 0.00763321V19.3042L46.0888 50.3308" fill="#00364F"/>
<path d="M12.9794 58.0287L0.000366211 65.8819L31.3854 65.8816L36.2847 61.955L31.3854 58.0287H12.9794Z" fill="#00364F"/>
<path d="M189.53 15.3608H170.459V18.5997H189.53V15.3608Z" fill="#00364F"/>
<path d="M234.896 20.3771C231.5 17.0338 227.282 15.3608 222.242 15.3608C219.133 15.3608 216.243 16.1293 213.571 17.6672C210.901 19.2043 208.792 21.3288 207.245 24.0435C205.816 26.5496 205.056 29.2578 204.947 32.1611H208.385C208.486 29.7853 209.095 27.6133 210.22 25.6453C211.459 23.4861 213.181 21.7665 215.387 20.4913C217.593 19.2155 219.927 18.5773 222.389 18.5773C224.896 18.5773 227.268 19.2155 229.503 20.4913C231.739 21.7665 233.473 23.4665 234.703 25.5901C235.935 27.7144 236.55 30.0899 236.55 32.7159C236.55 35.3581 235.935 37.7589 234.703 39.9197C233.473 42.0822 231.758 43.7848 229.56 45.0314C227.362 46.277 224.972 46.8992 222.389 46.8992C218.521 46.8992 215.217 45.5461 212.476 42.8353C210.336 40.7207 209.043 38.2287 208.574 35.369H205.108C205.606 39.0774 207.23 42.3196 210.018 45.0773C213.413 48.4369 217.579 50.1164 222.514 50.1164C227.388 50.1164 231.519 48.4289 234.907 45.0551C238.295 41.6807 239.989 37.5715 239.989 32.7272C239.989 27.8376 238.291 23.722 234.896 20.3771Z" fill="#00364F"/>
<path d="M138.325 46.99C134.087 46.99 130.577 45.6398 127.795 42.9411C125.617 40.8272 124.303 38.2999 123.83 35.369H120.317C120.787 38.7755 122.12 41.769 124.344 44.3351C127.708 48.1892 132.3 50.1164 138.122 50.1164C141.182 50.1164 143.954 49.5433 146.435 48.3958C148.915 47.2483 150.986 45.6263 152.645 43.5248L150.022 41.5453C146.883 45.1754 142.985 46.99 138.325 46.99Z" fill="#00364F"/>
<path d="M146.492 17.1949C143.987 15.9727 141.182 15.3608 138.075 15.3608C132.932 15.3608 128.654 17.0139 125.239 20.3216C121.914 23.5375 120.221 27.4891 120.131 32.1612H123.641C123.738 29.7626 124.349 27.5844 125.486 25.6306C126.731 23.4929 128.484 21.7909 130.746 20.5237C133.008 19.2559 135.466 18.6228 138.122 18.6228C140.549 18.6228 142.777 19.1058 144.805 20.0742C146.835 21.0407 148.573 22.4628 150.021 24.3368L152.645 22.3351C151.046 20.1297 148.995 18.4168 146.492 17.1949Z" fill="#00364F"/>
<path d="M97.7061 17.1949C95.2024 15.9727 92.3967 15.3608 89.2905 15.3608C84.1476 15.3608 79.8687 17.0139 76.4525 20.3216C73.1291 23.5375 71.436 27.4891 71.3463 32.1612H74.8555C74.9523 29.7626 75.5638 27.5844 76.7016 25.6306C77.9455 23.4929 79.6987 21.7909 81.9614 20.5237C84.2227 19.2559 86.6813 18.6228 89.3357 18.6228C91.7639 18.6228 93.9914 19.1058 96.0207 20.0742C98.0488 21.0407 99.7874 22.4628 101.236 24.3368L103.859 22.3351C102.261 20.1297 100.21 18.4168 97.7061 17.1949Z" fill="#00364F"/>
<path d="M89.5396 46.99C85.3018 46.99 81.792 45.6397 79.0098 42.9411C76.8329 40.8291 75.5203 38.3047 75.0462 35.3783H71.5328C72.0043 38.7809 73.3373 41.7709 75.5587 44.335C78.9217 48.1892 83.5145 50.1164 89.336 50.1164C92.3973 50.1164 95.1682 49.5433 97.65 48.3958C100.13 47.2483 102.2 45.6263 103.859 43.5248L101.236 41.5453C98.0976 45.1754 94.1995 46.99 89.5396 46.99Z" fill="#00364F"/>
<path d="M170.459 35.3783H173.784V35.3693H189.395V32.1611H170.459V35.3783Z" fill="#00364F"/>
<path d="M189.395 46.8764H170.459V50.1164H189.395V46.8764Z" fill="#00364F"/>
<path d="M222.469 31.9057C222.369 31.9057 222.287 31.9872 222.287 32.0864V33.5894H220.719C220.619 33.5894 220.538 33.6699 220.538 33.7694C220.538 33.8689 220.619 33.9501 220.719 33.9501H222.287V35.4527C222.287 35.5519 222.369 35.6331 222.469 35.6331C222.569 35.6331 222.65 35.5519 222.65 35.4527V33.9501H224.218C224.318 33.9501 224.399 33.8689 224.399 33.7694C224.399 33.6699 224.318 33.5894 224.218 33.5894H222.65V32.0864C222.65 31.9872 222.569 31.9057 222.469 31.9057Z" fill="#00364F"/>
<path d="M39.6676 58.9031H40.1104V64.8205H39.6676V58.9031Z" fill="#00364F"/>
<path d="M45.5863 64.8204H45.171V62.5675C45.171 62.1738 45.0891 61.8882 44.9248 61.7105C44.7609 61.5333 44.4934 61.4444 44.1233 61.4444C43.6867 61.4444 43.3666 61.5747 43.1636 61.8346C42.96 62.0955 42.8587 62.5095 42.8587 63.0764V64.8204H42.4434V61.1954H42.8587V61.8009C42.9942 61.5603 43.1704 61.3867 43.3872 61.2773C43.6037 61.1691 43.8809 61.1139 44.2181 61.1139C44.6399 61.1139 44.9732 61.2311 45.2185 61.4637C45.4637 61.6963 45.5863 62.0166 45.5863 62.4257V64.8204Z" fill="#00364F"/>
<path d="M51.1753 63.0004C51.1753 62.5223 51.0252 62.1436 50.7261 61.8635C50.4263 61.5843 50.0281 61.4441 49.5319 61.4441C49.0585 61.4441 48.6748 61.5901 48.3795 61.8837C48.0849 62.1757 47.9371 62.5611 47.9371 63.0386C47.9371 63.5058 48.0872 63.8774 48.3863 64.1536C48.6864 64.4296 49.0862 64.5676 49.5861 64.5676C50.0704 64.5676 50.4563 64.4261 50.7445 64.1424C51.0317 63.8591 51.1753 63.4779 51.1753 63.0004ZM51.5909 65.0085C51.5909 65.6778 51.4302 66.1672 51.1078 66.4762C50.7855 66.7858 50.2779 66.9405 49.5861 66.9405C49.062 66.9405 48.6451 66.8539 48.3347 66.6812C48.0246 66.5092 47.8213 66.25 47.7255 65.9053H48.1721C48.2443 66.1457 48.3957 66.3228 48.6264 66.438C48.8562 66.5535 49.1827 66.6106 49.6038 66.6106C50.164 66.6106 50.5657 66.4903 50.8094 66.25C51.0536 66.0099 51.1753 65.623 51.1753 65.089V64.1305C50.9826 64.3943 50.7532 64.5878 50.4867 64.7113C50.2205 64.8355 49.9017 64.8968 49.5319 64.8968C48.9355 64.8968 48.4518 64.7277 48.0795 64.3872C47.708 64.0478 47.5219 63.6008 47.5219 63.0463C47.5219 62.4709 47.7064 62.0063 48.0749 61.6492C48.4438 61.2933 48.9188 61.1139 49.4999 61.1139C49.9213 61.1139 50.2611 61.1743 50.5183 61.2933C50.7758 61.4117 50.9946 61.6084 51.1753 61.8853V61.1954H51.5909V65.0085Z" fill="#00364F"/>
<path d="M56.4573 59.6232L55.3915 60.8072L55.1524 60.6548L56.1595 59.4354L56.4573 59.6232ZM57.1395 62.6507C57.1124 62.2907 56.9581 61.9999 56.6764 61.7776C56.3951 61.5552 56.0346 61.4442 55.5948 61.4442C55.1856 61.4442 54.8352 61.5555 54.5451 61.7788C54.2544 62.0031 54.0898 62.2948 54.0504 62.6555L57.1395 62.6507ZM57.5867 62.9847H54.0237C54.0324 63.493 54.1737 63.8835 54.4477 64.1579C54.7216 64.4306 55.104 64.5673 55.5948 64.5673C55.9439 64.5673 56.2437 64.5022 56.4935 64.3719C56.7436 64.2426 56.9498 64.0436 57.1124 63.7779L57.4738 63.9352C57.2631 64.265 57.0053 64.5076 56.7013 64.6636C56.3973 64.8189 56.0285 64.8969 55.5948 64.8969C54.9746 64.8969 54.4883 64.7261 54.1366 64.3834C53.7839 64.042 53.608 63.5751 53.608 62.9847C53.608 62.4379 53.7958 61.9897 54.1724 61.6393C54.5487 61.2892 55.023 61.114 55.5948 61.114C56.194 61.114 56.6755 61.2744 57.0401 61.5934C57.4041 61.913 57.5867 62.3423 57.5867 62.8814V62.9847Z" fill="#00364F"/>
<path d="M62.6787 64.8204H62.2631V62.5675C62.2631 62.1738 62.1811 61.8882 62.0168 61.7105C61.8529 61.5333 61.5861 61.4444 61.2153 61.4444C60.7787 61.4444 60.4589 61.5747 60.256 61.8346C60.0527 62.0955 59.9507 62.5095 59.9507 63.0764V64.8204H59.5354V61.1954H59.9507V61.8009C60.0862 61.5603 60.2631 61.3867 60.4793 61.2773C60.6961 61.1691 60.9736 61.1139 61.3105 61.1139C61.7319 61.1139 62.0653 61.2311 62.3105 61.4637C62.5561 61.6963 62.6787 62.0166 62.6787 62.4257V64.8204Z" fill="#00364F"/>
<path d="M65.558 64.8205H65.1427V61.1955H65.558V64.8205ZM65.7165 59.8763C65.7165 59.9636 65.679 60.0374 65.6058 60.099C65.5316 60.1597 65.4451 60.1901 65.346 60.1901C65.2434 60.1901 65.156 60.1597 65.084 60.099C65.0121 60.0374 64.9756 59.9636 64.9756 59.8763C64.9756 59.7894 65.0121 59.7156 65.084 59.654C65.156 59.593 65.2434 59.5622 65.346 59.5622C65.4451 59.5622 65.5316 59.593 65.6058 59.654C65.679 59.7156 65.7165 59.7894 65.7165 59.8763Z" fill="#00364F"/>
<path d="M71.0888 62.6506C71.0613 62.2909 70.9071 62.0002 70.6257 61.7775C70.3446 61.5551 69.9829 61.4441 69.5441 61.4441C69.1346 61.4441 68.7845 61.5558 68.494 61.7788C68.2039 62.0031 68.0384 62.2948 67.9997 62.6551L71.0888 62.6506ZM71.5357 62.9847H67.9726C67.9816 63.493 68.1233 63.8844 68.3966 64.1578C68.6705 64.4309 69.0533 64.5676 69.5441 64.5676C69.8929 64.5676 70.1927 64.5024 70.4431 64.3718C70.6928 64.2419 70.8987 64.0439 71.0613 63.7782L71.4231 63.9351C71.212 64.265 70.9542 64.5069 70.6505 64.6635C70.3466 64.8192 69.9774 64.8975 69.5441 64.8975C68.9239 64.8975 68.4376 64.7264 68.0855 64.3834C67.7328 64.0413 67.5566 63.5748 67.5566 62.9847C67.5566 62.4382 67.7451 61.9896 68.1213 61.6395C68.4976 61.2895 68.9719 61.1139 69.5441 61.1139C70.1433 61.1139 70.6247 61.2747 70.989 61.5933C71.3534 61.9129 71.5357 62.3423 71.5357 62.8814V62.9847Z" fill="#00364F"/>
<path d="M75.3363 61.1954L75.1963 61.5247C75.1543 61.4987 75.1017 61.4788 75.0382 61.4653C74.9749 61.4515 74.9104 61.4441 74.8442 61.4441C74.5006 61.4441 74.2482 61.5914 74.0879 61.8869C73.9262 62.1818 73.8458 62.6362 73.8458 63.2491V64.8204H73.4305V61.1954H73.8458V61.774C73.9455 61.5407 74.0808 61.3732 74.2524 61.2696C74.4241 61.1659 74.6496 61.1139 74.9294 61.1139C75.0049 61.1139 75.0778 61.122 75.1492 61.1358C75.2195 61.1492 75.2821 61.1698 75.3363 61.1954Z" fill="#00364F"/>
<path d="M77.2811 64.8205H76.8655V61.1955H77.2811V64.8205ZM77.4389 59.8763C77.4389 59.9636 77.4018 60.0374 77.3279 60.099C77.2547 60.1597 77.1679 60.1901 77.0685 60.1901C76.9659 60.1901 76.8788 60.1597 76.8065 60.099C76.7345 60.0374 76.6984 59.9636 76.6984 59.8763C76.6984 59.7894 76.7345 59.7156 76.8065 59.654C76.8788 59.593 76.9659 59.5622 77.0685 59.5622C77.1679 59.5622 77.2547 59.593 77.3279 59.654C77.4018 59.7156 77.4389 59.7894 77.4389 59.8763Z" fill="#00364F"/>
<path d="M82.8117 62.6506C82.7839 62.2909 82.63 62.0002 82.3489 61.7775C82.0672 61.5551 81.7058 61.4441 81.2673 61.4441C80.8575 61.4441 80.5074 61.5558 80.2169 61.7788C79.9265 62.0031 79.7613 62.2948 79.7223 62.6551L82.8117 62.6506ZM83.2586 62.9847H79.6952C79.7045 63.493 79.8462 63.8844 80.1198 64.1578C80.3934 64.4309 80.7762 64.5676 81.2673 64.5676C81.6161 64.5676 81.9156 64.5024 82.1656 64.3718C82.4154 64.2419 82.6219 64.0439 82.7839 63.7782L83.1453 63.9351C82.9346 64.265 82.6771 64.5069 82.3734 64.6635C82.0688 64.8192 81.7003 64.8975 81.2673 64.8975C80.6464 64.8975 80.1611 64.7264 79.8081 64.3834C79.456 64.0413 79.2795 63.5748 79.2795 62.9847C79.2795 62.4382 79.4677 61.9896 79.8442 61.6395C80.2208 61.2895 80.6945 61.1139 81.2673 61.1139C81.8662 61.1139 82.348 61.2747 82.7119 61.5933C83.0763 61.9129 83.2586 62.3423 83.2586 62.8814V62.9847Z" fill="#00364F"/>
<path d="M91.1753 60.7418C91.1753 60.5499 91.1014 60.3946 90.9546 60.2733C90.8081 60.1529 90.6164 60.0929 90.3802 60.0929C90.1343 60.0929 89.9391 60.1507 89.7945 60.2672C89.6506 60.3833 89.5783 60.5367 89.5783 60.7286C89.5783 60.8406 89.6132 60.9596 89.6835 61.0873C89.7539 61.2154 89.8633 61.3604 90.0114 61.5225L90.2828 61.8097C90.6113 61.6178 90.8423 61.4448 90.9756 61.2901C91.1082 61.1361 91.1753 60.9529 91.1753 60.7418ZM91.7549 63.8646L90.1805 62.1774C89.6558 62.471 89.2999 62.7116 89.1134 62.8997C88.9259 63.0871 88.8326 63.3194 88.8326 63.5963C88.8326 63.8947 88.9549 64.138 89.1998 64.3266C89.4444 64.5153 89.7565 64.61 90.1356 64.61C90.4067 64.61 90.6777 64.5477 90.9494 64.4226C91.2205 64.2978 91.4893 64.1123 91.7549 63.8646ZM93.0959 64.8205H92.648L91.962 64.0886C91.6713 64.3549 91.3712 64.5538 91.064 64.6867C90.7565 64.8186 90.438 64.8843 90.1092 64.8843C89.6222 64.8843 89.225 64.7602 88.9191 64.5102C88.6129 64.2615 88.4596 63.9416 88.4596 63.5514C88.4596 63.2745 88.5761 63.0152 88.8097 62.7736C89.043 62.531 89.4367 62.2643 89.9885 61.972L89.68 61.6402C89.5141 61.457 89.398 61.294 89.3315 61.1512C89.2647 61.0081 89.2315 60.8634 89.2315 60.7164C89.2315 60.4498 89.3344 60.2335 89.5406 60.0673C89.7465 59.901 90.0262 59.8183 90.3802 59.8183C90.7145 59.8183 90.9878 59.9055 91.2014 60.0804C91.4151 60.2553 91.5219 60.4754 91.5219 60.7418C91.5219 60.9831 91.4412 61.2019 91.2808 61.3989C91.1198 61.5959 90.851 61.8003 90.4744 62.0105L91.9853 63.6345C92.1082 63.5049 92.2266 63.3653 92.3408 63.2161C92.4551 63.0669 92.5648 62.9103 92.6706 62.7466L92.9494 62.8836C92.821 63.0813 92.6952 63.2616 92.5709 63.424C92.4467 63.5851 92.3228 63.7311 92.1995 63.8585L93.0959 64.8205Z" fill="#00364F"/>
<path d="M102.065 62.9767C102.065 62.5092 101.916 62.1369 101.616 61.8597C101.316 61.5828 100.917 61.4442 100.417 61.4442C99.9207 61.4442 99.5316 61.5754 99.2499 61.8388C98.9685 62.1013 98.8275 62.4668 98.8275 62.9343C98.8275 63.425 98.9804 63.8203 99.286 64.119C99.5916 64.4178 99.9872 64.5673 100.472 64.5673C100.944 64.5673 101.328 64.4216 101.623 64.1306C101.918 63.8392 102.065 63.4545 102.065 62.9767ZM102.482 62.9696C102.482 63.5443 102.297 64.0096 101.928 64.3645C101.559 64.7197 101.083 64.8965 100.499 64.8965C100.113 64.8965 99.7846 64.8314 99.5119 64.6998C99.2396 64.5683 99.0114 64.3658 98.8275 64.0927V66.8594H98.4119V61.1952H98.8275V61.8465C99.0024 61.6033 99.2276 61.4207 99.5032 61.2975C99.7784 61.1753 100.101 61.1136 100.472 61.1136C101.067 61.1136 101.551 61.285 101.924 61.6258C102.295 61.9669 102.482 62.4148 102.482 62.9696Z" fill="#00364F"/>
<path d="M107.686 62.6506C107.659 62.2909 107.505 62.0002 107.224 61.7775C106.942 61.5551 106.581 61.4441 106.142 61.4441C105.732 61.4441 105.382 61.5558 105.092 61.7788C104.802 62.0031 104.636 62.2948 104.597 62.6551L107.686 62.6506ZM108.133 62.9847H104.57C104.579 63.493 104.721 63.8844 104.995 64.1578C105.268 64.4309 105.651 64.5676 106.142 64.5676C106.491 64.5676 106.79 64.5024 107.041 64.3718C107.29 64.2419 107.497 64.0439 107.659 63.7782L108.02 63.9351C107.809 64.265 107.552 64.5069 107.249 64.6635C106.944 64.8192 106.575 64.8975 106.142 64.8975C105.522 64.8975 105.036 64.7264 104.683 64.3834C104.331 64.0413 104.154 63.5748 104.154 62.9847C104.154 62.4382 104.343 61.9896 104.719 61.6395C105.096 61.2895 105.57 61.1139 106.142 61.1139C106.741 61.1139 107.223 61.2747 107.586 61.5933C107.951 61.9129 108.133 62.3423 108.133 62.8814V62.9847Z" fill="#00364F"/>
<path d="M111.934 61.1954L111.794 61.5247C111.752 61.4987 111.699 61.4788 111.636 61.4653C111.573 61.4515 111.508 61.4441 111.442 61.4441C111.098 61.4441 110.846 61.5914 110.685 61.8869C110.524 62.1818 110.443 62.6362 110.443 63.2491V64.8204H110.028V61.1954H110.443V61.774C110.543 61.5407 110.678 61.3732 110.85 61.2696C111.022 61.1659 111.248 61.1139 111.527 61.1139C111.603 61.1139 111.676 61.122 111.746 61.1358C111.817 61.1492 111.88 61.1698 111.934 61.1954Z" fill="#00364F"/>
<path d="M115.156 58.6878C115.082 58.6576 115.015 58.6345 114.956 58.6188C114.897 58.6034 114.842 58.5963 114.791 58.5963C114.535 58.5963 114.36 58.6695 114.265 58.8161C114.17 58.9634 114.122 59.2545 114.122 59.6883V61.1952H115.021V61.5247H114.122V64.8202H113.707V61.5247H113.079V61.1952H113.707V59.7117C113.707 59.1954 113.787 58.8254 113.946 58.6015C114.106 58.3781 114.373 58.2665 114.75 58.2665C114.828 58.2665 114.898 58.2716 114.96 58.2816C115.022 58.2921 115.089 58.3098 115.162 58.3348L115.156 58.6878Z" fill="#00364F"/>
<path d="M120.195 63.0004C120.195 62.5611 120.022 62.1915 119.677 61.8927C119.332 61.5933 118.908 61.4441 118.402 61.4441C117.896 61.4441 117.469 61.5933 117.122 61.8901C116.774 62.1882 116.6 62.5579 116.6 63.0004C116.6 63.439 116.775 63.8103 117.126 64.1135C117.477 64.4161 117.902 64.5676 118.402 64.5676C118.902 64.5676 119.325 64.4161 119.674 64.1135C120.02 63.8103 120.195 63.439 120.195 63.0004ZM120.615 62.993C120.615 63.5212 120.398 63.9711 119.964 64.3417C119.531 64.7126 119.004 64.8968 118.384 64.8968C117.775 64.8968 117.257 64.7126 116.828 64.3417C116.399 63.9711 116.184 63.5212 116.184 62.993C116.184 62.4658 116.397 62.0214 116.824 61.6591C117.25 61.2956 117.769 61.1139 118.384 61.1139C119.013 61.1139 119.543 61.2952 119.971 61.6565C120.401 62.0185 120.615 62.4632 120.615 62.993Z" fill="#00364F"/>
<path d="M124.425 61.1954L124.284 61.5247C124.243 61.4987 124.19 61.4788 124.127 61.4653C124.064 61.4515 123.999 61.4441 123.932 61.4441C123.589 61.4441 123.337 61.5914 123.176 61.8869C123.014 62.1818 122.934 62.6362 122.934 63.2491V64.8204H122.519V61.1954H122.934V61.774C123.034 61.5407 123.169 61.3732 123.341 61.2696C123.512 61.1659 123.738 61.1139 124.018 61.1139C124.093 61.1139 124.166 61.122 124.237 61.1358C124.308 61.1492 124.37 61.1698 124.425 61.1954Z" fill="#00364F"/>
<path d="M131.084 64.8204H130.668V62.5675C130.668 62.187 130.594 61.9036 130.447 61.7207C130.299 61.5365 130.071 61.4444 129.761 61.4444C129.374 61.4444 129.106 61.5465 128.952 61.7509C128.798 61.9553 128.721 62.3718 128.721 63.0004V64.8204H128.306V62.5675C128.306 62.1709 128.237 61.885 128.099 61.7089C127.959 61.5327 127.728 61.4444 127.404 61.4444C127 61.4444 126.71 61.5715 126.536 61.8257C126.362 62.0798 126.274 62.4966 126.274 63.0764V64.8204H125.859V61.1954H126.274V61.7432C126.367 61.5388 126.516 61.3828 126.719 61.276C126.923 61.1685 127.175 61.1139 127.475 61.1139C127.74 61.1139 127.972 61.1711 128.171 61.2827C128.369 61.3957 128.514 61.5539 128.605 61.7589C128.704 61.5407 128.854 61.3796 129.056 61.2734C129.258 61.1678 129.517 61.1139 129.833 61.1139C130.206 61.1139 130.508 61.2323 130.738 61.4675C130.969 61.7021 131.084 62.0214 131.084 62.4257V64.8204Z" fill="#00364F"/>
<path d="M136.718 63.0004C136.718 62.5223 136.568 62.1436 136.269 61.8635C135.968 61.5843 135.571 61.4441 135.074 61.4441C134.601 61.4441 134.218 61.5901 133.922 61.8837C133.627 62.1757 133.479 62.5611 133.479 63.0386C133.479 63.5058 133.629 63.8774 133.929 64.1536C134.229 64.4296 134.628 64.5676 135.128 64.5676C135.613 64.5676 135.999 64.4261 136.286 64.1424C136.574 63.8591 136.718 63.4779 136.718 63.0004ZM137.133 64.8204H136.718V64.1305C136.525 64.3943 136.295 64.5878 136.029 64.7113C135.763 64.8355 135.444 64.8968 135.074 64.8968C134.478 64.8968 133.994 64.7277 133.622 64.3872C133.25 64.0478 133.064 63.6008 133.064 63.0463C133.064 62.4709 133.249 62.0063 133.617 61.6492C133.987 61.2933 134.461 61.1139 135.042 61.1139C135.463 61.1139 135.803 61.1743 136.06 61.2933C136.318 61.4117 136.537 61.6084 136.718 61.8853V61.1954H137.133V64.8204Z" fill="#00364F"/>
<path d="M142.555 64.8204H142.14V62.5675C142.14 62.1738 142.058 61.8882 141.894 61.7105C141.729 61.5333 141.463 61.4444 141.092 61.4444C140.655 61.4444 140.335 61.5747 140.132 61.8346C139.93 62.0955 139.827 62.5095 139.827 63.0764V64.8204H139.412V61.1954H139.827V61.8009C139.963 61.5603 140.139 61.3867 140.356 61.2773C140.573 61.1691 140.849 61.1139 141.187 61.1139C141.608 61.1139 141.942 61.2311 142.187 61.4637C142.433 61.6963 142.555 62.0166 142.555 62.4257V64.8204Z" fill="#00364F"/>
<path d="M148.099 64.633C147.895 64.7222 147.672 64.7884 147.431 64.8323C147.19 64.876 146.931 64.8968 146.654 64.8968C146.016 64.8968 145.492 64.7229 145.085 64.3738C144.677 64.0256 144.472 63.5777 144.472 63.0306C144.472 62.4607 144.686 62.0002 145.112 61.645C145.538 61.2914 146.092 61.1139 146.775 61.1139C147.004 61.1139 147.221 61.137 147.426 61.1816C147.631 61.2269 147.831 61.294 148.026 61.3828V61.7432C147.831 61.6456 147.627 61.5722 147.415 61.5211C147.203 61.4695 146.987 61.4441 146.767 61.4441C146.188 61.4441 145.732 61.5892 145.394 61.8792C145.056 62.1687 144.888 62.5637 144.888 63.0614C144.888 63.501 145.063 63.8623 145.414 64.1443C145.765 64.4267 146.215 64.5676 146.767 64.5676C147.023 64.5676 147.26 64.5429 147.48 64.4928C147.701 64.4434 147.906 64.3674 148.099 64.2653V64.633Z" fill="#00364F"/>
<path d="M153.26 62.6506C153.232 62.2909 153.078 62.0002 152.796 61.7775C152.515 61.5551 152.154 61.4441 151.715 61.4441C151.305 61.4441 150.955 61.5558 150.665 61.7788C150.374 62.0031 150.209 62.2948 150.17 62.6551L153.26 62.6506ZM153.706 62.9847H150.143C150.152 63.493 150.294 63.8844 150.567 64.1578C150.841 64.4309 151.224 64.5676 151.715 64.5676C152.064 64.5676 152.363 64.5024 152.613 64.3718C152.863 64.2419 153.07 64.0439 153.232 63.7782L153.593 63.9351C153.383 64.265 153.125 64.5069 152.821 64.6635C152.516 64.8192 152.148 64.8975 151.715 64.8975C151.094 64.8975 150.608 64.7264 150.256 64.3834C149.904 64.0413 149.728 63.5748 149.728 62.9847C149.728 62.4382 149.916 61.9896 150.292 61.6395C150.668 61.2895 151.142 61.1139 151.715 61.1139C152.313 61.1139 152.796 61.2747 153.16 61.5933C153.524 61.9129 153.706 62.3423 153.706 62.8814V62.9847Z" fill="#00364F"/>
<path d="M167.256 63.0004C167.256 62.5223 167.107 62.1437 166.807 61.8636C166.508 61.5844 166.11 61.4442 165.613 61.4442C165.14 61.4442 164.756 61.5902 164.461 61.8838C164.166 62.1758 164.019 62.5612 164.019 63.0386C164.019 63.5058 164.169 63.8774 164.468 64.1537C164.767 64.4296 165.167 64.5676 165.667 64.5676C166.151 64.5676 166.538 64.4261 166.825 64.1425C167.113 63.8591 167.256 63.4779 167.256 63.0004ZM167.672 64.8205H167.256V64.1306C167.064 64.3944 166.834 64.5878 166.568 64.7114C166.302 64.8356 165.983 64.8969 165.613 64.8969C165.017 64.8969 164.533 64.7277 164.161 64.3873C163.789 64.0478 163.603 63.6008 163.603 63.0463C163.603 62.471 163.787 62.0064 164.157 61.6492C164.525 61.2934 165 61.114 165.582 61.114C166.026 61.114 166.372 61.1749 166.617 61.2946C166.863 61.415 167.076 61.6117 167.256 61.8854V58.3438H167.672V64.8205Z" fill="#00364F"/>
<path d="M173.157 62.6506C173.131 62.2909 172.976 62.0002 172.695 61.7775C172.413 61.5551 172.052 61.4441 171.613 61.4441C171.203 61.4441 170.853 61.5558 170.563 61.7788C170.273 62.0031 170.108 62.2948 170.069 62.6551L173.157 62.6506ZM173.605 62.9847H170.041C170.05 63.493 170.192 63.8844 170.466 64.1578C170.74 64.4309 171.122 64.5676 171.613 64.5676C171.962 64.5676 172.262 64.5024 172.512 64.3718C172.761 64.2419 172.968 64.0439 173.131 63.7782L173.492 63.9351C173.281 64.265 173.024 64.5069 172.72 64.6635C172.415 64.8192 172.046 64.8975 171.613 64.8975C170.993 64.8975 170.506 64.7264 170.154 64.3834C169.802 64.0413 169.626 63.5748 169.626 62.9847C169.626 62.4382 169.814 61.9896 170.191 61.6395C170.567 61.2895 171.041 61.1139 171.613 61.1139C172.212 61.1139 172.693 61.2747 173.058 61.5933C173.422 61.9129 173.605 62.3423 173.605 62.8814V62.9847Z" fill="#00364F"/>
<path d="M182.543 61.1955L180.619 64.9626L178.686 61.1955H179.151L180.619 64.1617L182.082 61.1955H182.543Z" fill="#00364F"/>
<path d="M187.671 63.0004C187.671 62.5611 187.499 62.1915 187.154 61.8927C186.809 61.5933 186.384 61.4441 185.878 61.4441C185.372 61.4441 184.946 61.5933 184.598 61.8901C184.25 62.1882 184.076 62.5579 184.076 63.0004C184.076 63.439 184.251 63.8103 184.602 64.1135C184.953 64.4161 185.379 64.5676 185.878 64.5676C186.377 64.5676 186.802 64.4161 187.15 64.1135C187.497 63.8103 187.671 63.439 187.671 63.0004ZM188.091 62.993C188.091 63.5212 187.874 63.9711 187.441 64.3417C187.007 64.7126 186.481 64.8968 185.86 64.8968C185.252 64.8968 184.733 64.7126 184.304 64.3417C183.875 63.9711 183.661 63.5212 183.661 62.993C183.661 62.4658 183.874 62.0214 184.3 61.6591C184.726 61.2956 185.246 61.1139 185.86 61.1139C186.489 61.1139 187.019 61.2952 187.448 61.6565C187.877 62.0185 188.091 62.4632 188.091 62.993Z" fill="#00364F"/>
<path d="M192.245 63.8703C192.245 64.1841 192.111 64.4341 191.843 64.6196C191.575 64.8044 191.209 64.8968 190.745 64.8968C190.408 64.8968 190.115 64.8374 189.867 64.7178C189.618 64.5971 189.437 64.4274 189.322 64.2076L189.702 64.0272C189.804 64.2137 189.945 64.3507 190.124 64.4373C190.303 64.5246 190.533 64.5676 190.813 64.5676C191.111 64.5676 191.355 64.5069 191.544 64.3872C191.734 64.2676 191.829 64.1078 191.829 63.9085C191.829 63.6906 191.754 63.5292 191.603 63.4217C191.453 63.3145 191.155 63.1942 190.709 63.0614C190.351 62.9545 190.076 62.8143 189.885 62.642C189.694 62.469 189.598 62.2694 189.598 62.0416C189.598 61.7583 189.707 61.5327 189.925 61.3652C190.144 61.198 190.446 61.1139 190.83 61.1139C191.111 61.1139 191.347 61.1659 191.538 61.268C191.729 61.3703 191.885 61.5256 192.005 61.7352L191.626 61.9075C191.539 61.747 191.428 61.6293 191.296 61.5551C191.164 61.4813 190.996 61.4441 190.794 61.4441C190.56 61.4441 190.372 61.4987 190.23 61.6091C190.089 61.7188 190.018 61.8632 190.018 62.0416C190.018 62.2004 190.087 62.3381 190.226 62.4559C190.364 62.573 190.575 62.6709 190.858 62.7472C191.366 62.89 191.725 63.0444 191.933 63.209C192.14 63.3739 192.245 63.5944 192.245 63.8703Z" fill="#00364F"/>
<path d="M201.607 63.0386C201.607 62.5612 201.459 62.1758 201.164 61.8835C200.869 61.5902 200.485 61.4442 200.013 61.4442C199.501 61.4442 199.099 61.5825 198.807 61.8578C198.515 62.1341 198.368 62.5143 198.368 63.0004C198.368 63.4779 198.515 63.8591 198.81 64.1421C199.102 64.4261 199.491 64.5676 199.976 64.5676C200.473 64.5676 200.869 64.4309 201.164 64.1553C201.459 63.8813 201.607 63.5084 201.607 63.0386ZM202.022 63.046C202.022 63.6008 201.836 64.0478 201.464 64.3873C201.092 64.7277 200.608 64.8975 200.013 64.8975C199.642 64.8975 199.324 64.8356 199.057 64.712C198.791 64.5878 198.561 64.3944 198.368 64.1306V64.8205H197.953V58.3438H198.368V61.8854C198.534 61.6322 198.758 61.4406 199.042 61.3094C199.325 61.1791 199.657 61.114 200.04 61.114C200.623 61.114 201.1 61.2934 201.469 61.6492C201.838 62.0057 202.022 62.4707 202.022 63.046Z" fill="#00364F"/>
<path d="M206.948 60.6702L206.744 60.8082L205.773 59.9072L204.802 60.8082L204.599 60.6702L205.773 59.4355L206.948 60.6702ZM207.395 63.0004C207.395 62.522 207.245 62.1437 206.945 61.8636C206.645 61.5844 206.248 61.4442 205.751 61.4442C205.278 61.4442 204.895 61.5902 204.599 61.8835C204.304 62.1755 204.156 62.5612 204.156 63.0386C204.156 63.5058 204.306 63.8774 204.606 64.1534C204.905 64.4297 205.305 64.568 205.805 64.568C206.29 64.568 206.676 64.4261 206.964 64.1428C207.251 63.8585 207.395 63.4779 207.395 63.0004ZM207.81 64.8205H207.395V64.1306C207.202 64.3947 206.972 64.5878 206.706 64.7114C206.44 64.8352 206.121 64.8969 205.751 64.8969C205.154 64.8969 204.67 64.7278 204.299 64.3873C203.927 64.0475 203.741 63.6008 203.741 63.046C203.741 62.4707 203.926 62.0057 204.294 61.6492C204.663 61.293 205.139 61.1146 205.719 61.1146C206.141 61.1146 206.48 61.174 206.738 61.293C206.995 61.4118 207.214 61.6091 207.395 61.8847V61.1955H207.81V64.8205Z" fill="#00364F"/>
<path d="M211.326 61.5247H210.54V64.8205H210.125V61.5247H209.533V61.1955H210.125V59.6385H210.54V61.1955H211.326V61.5247Z" fill="#00364F"/>
<path d="M213.51 64.8205H213.094V61.1955H213.51V64.8205ZM213.668 59.8763C213.668 59.9636 213.631 60.0374 213.557 60.099C213.484 60.1597 213.397 60.1901 213.298 60.1901C213.195 60.1901 213.108 60.1597 213.036 60.099C212.964 60.0374 212.928 59.9636 212.928 59.8763C212.928 59.7894 212.964 59.7156 213.036 59.654C213.108 59.593 213.195 59.5622 213.298 59.5622C213.397 59.5622 213.484 59.593 213.557 59.654C213.631 59.7156 213.668 59.7894 213.668 59.8763Z" fill="#00364F"/>
<path d="M221.185 64.8204H220.77V62.5675C220.77 62.187 220.696 61.9036 220.549 61.7207C220.401 61.5365 220.172 61.4444 219.862 61.4444C219.477 61.4444 219.208 61.5465 219.054 61.7509C218.9 61.9553 218.824 62.3718 218.824 63.0004V64.8204H218.408V62.5675C218.408 62.1709 218.339 61.885 218.201 61.7089C218.061 61.5327 217.83 61.4444 217.505 61.4444C217.101 61.4444 216.813 61.5715 216.638 61.8257C216.464 62.0798 216.376 62.4966 216.376 63.0764V64.8204H215.961V61.1954H216.376V61.7432C216.47 61.5388 216.618 61.3828 216.821 61.276C217.024 61.1685 217.277 61.1139 217.577 61.1139C217.843 61.1139 218.074 61.1711 218.273 61.2827C218.471 61.3957 218.616 61.5539 218.706 61.7589C218.805 61.5407 218.957 61.3796 219.158 61.2734C219.36 61.1678 219.619 61.1139 219.935 61.1139C220.308 61.1139 220.61 61.2323 220.84 61.4675C221.071 61.7021 221.185 62.0214 221.185 62.4257V64.8204Z" fill="#00364F"/>
<path d="M226.671 62.6506C226.644 62.2909 226.489 62.0002 226.208 61.7775C225.926 61.5551 225.566 61.4441 225.126 61.4441C224.717 61.4441 224.366 61.5558 224.076 61.7788C223.786 62.0031 223.62 62.2948 223.582 62.6551L226.671 62.6506ZM227.118 62.9847H223.555C223.564 63.493 223.706 63.8844 223.979 64.1578C224.253 64.4309 224.636 64.5676 225.126 64.5676C225.476 64.5676 225.775 64.5024 226.025 64.3718C226.275 64.2419 226.481 64.0439 226.644 63.7782L227.005 63.9351C226.794 64.265 226.537 64.5069 226.233 64.6635C225.929 64.8192 225.56 64.8975 225.126 64.8975C224.506 64.8975 224.02 64.7264 223.668 64.3834C223.316 64.0413 223.14 63.5748 223.14 62.9847C223.14 62.4382 223.327 61.9896 223.704 61.6395C224.08 61.2895 224.554 61.1139 225.126 61.1139C225.725 61.1139 226.207 61.2747 226.572 61.5933C226.936 61.9129 227.118 62.3423 227.118 62.8814V62.9847Z" fill="#00364F"/>
<path d="M232.129 64.8204H231.713V62.5675C231.713 62.1738 231.631 61.8882 231.467 61.7105C231.303 61.5333 231.036 61.4444 230.665 61.4444C230.229 61.4444 229.909 61.5747 229.706 61.8346C229.503 62.0955 229.401 62.5095 229.401 63.0764V64.8204H228.985V61.1954H229.401V61.8009C229.536 61.5603 229.713 61.3867 229.929 61.2773C230.146 61.1691 230.423 61.1139 230.76 61.1139C231.182 61.1139 231.516 61.2311 231.76 61.4637C232.006 61.6963 232.129 62.0166 232.129 62.4257V64.8204Z" fill="#00364F"/>
<path d="M235.582 61.5247H234.796V64.8205H234.38V61.5247H233.789V61.1955H234.38V59.6385H234.796V61.1955H235.582V61.5247Z" fill="#00364F"/>
<path d="M239.568 63.8703C239.568 64.1841 239.433 64.4341 239.166 64.6196C238.898 64.8044 238.532 64.8968 238.068 64.8968C237.731 64.8968 237.438 64.8374 237.19 64.7178C236.941 64.5971 236.76 64.4274 236.646 64.2076L237.025 64.0272C237.127 64.2137 237.268 64.3507 237.447 64.4373C237.626 64.5246 237.856 64.5676 238.136 64.5676C238.434 64.5676 238.678 64.5069 238.868 64.3872C239.057 64.2676 239.152 64.1078 239.152 63.9085C239.152 63.6906 239.077 63.5292 238.927 63.4217C238.776 63.3145 238.477 63.1942 238.032 63.0614C237.674 62.9545 237.399 62.8143 237.208 62.642C237.017 62.469 236.921 62.2694 236.921 62.0416C236.921 61.7583 237.03 61.5327 237.249 61.3652C237.467 61.198 237.769 61.1139 238.153 61.1139C238.434 61.1139 238.67 61.1659 238.861 61.268C239.052 61.3703 239.208 61.5256 239.329 61.7352L238.949 61.9075C238.861 61.747 238.752 61.6293 238.62 61.5551C238.487 61.4813 238.32 61.4441 238.118 61.4441C237.883 61.4441 237.695 61.4987 237.554 61.6091C237.412 61.7188 237.342 61.8632 237.342 62.0416C237.342 62.2004 237.41 62.3381 237.549 62.4559C237.687 62.573 237.898 62.6709 238.181 62.7472C238.69 62.89 239.049 63.0444 239.256 63.209C239.464 63.3739 239.568 63.5944 239.568 63.8703Z" fill="#00364F"/>
<path d="M158.106 63.8703C158.106 64.1841 157.972 64.4341 157.704 64.6196C157.436 64.8044 157.07 64.8968 156.606 64.8968C156.27 64.8968 155.977 64.8374 155.728 64.7178C155.479 64.5971 155.298 64.4274 155.184 64.2076L155.564 64.0272C155.665 64.2137 155.806 64.3507 155.986 64.4373C156.165 64.5246 156.394 64.5676 156.674 64.5676C156.972 64.5676 157.216 64.5069 157.406 64.3872C157.596 64.2676 157.691 64.1078 157.691 63.9085C157.691 63.6906 157.615 63.5292 157.465 63.4217C157.314 63.3145 157.016 63.1942 156.57 63.0614C156.212 62.9545 155.937 62.8143 155.746 62.642C155.555 62.469 155.46 62.2694 155.46 62.0416C155.46 61.7583 155.569 61.5327 155.787 61.3652C156.005 61.198 156.307 61.1139 156.692 61.1139C156.972 61.1139 157.208 61.1659 157.399 61.268C157.59 61.3703 157.746 61.5256 157.867 61.7352L157.487 61.9075C157.4 61.747 157.29 61.6293 157.158 61.5551C157.025 61.4813 156.858 61.4441 156.656 61.4441C156.422 61.4441 156.233 61.4987 156.092 61.6091C155.95 61.7188 155.88 61.8632 155.88 62.0416C155.88 62.2004 155.948 62.3381 156.088 62.4559C156.226 62.573 156.436 62.6709 156.719 62.7472C157.228 62.89 157.587 63.0444 157.794 63.209C158.002 63.3739 158.106 63.5944 158.106 63.8703Z" fill="#00364F"/>
</svg>
