<svg width="119" height="36" viewBox="0 0 119 36" fill="none" xmlns="http://www.w3.org/2000/svg">
<path d="M22.8792 32.7919H22.6749V31.6744C22.6749 31.4791 22.6345 31.3374 22.5537 31.2492C22.473 31.1614 22.3414 31.1173 22.1592 31.1173C21.9444 31.1173 21.7869 31.1819 21.687 31.3108C21.5868 31.4402 21.5369 31.6456 21.5369 31.9268V32.7919H21.3325V30.9938H21.5369V31.2941C21.6036 31.1747 21.6903 31.0886 21.797 31.0344C21.9036 30.9807 22.04 30.9533 22.2059 30.9533C22.4135 30.9533 22.5775 31.0114 22.6982 31.1268C22.8189 31.2422 22.8792 31.4011 22.8792 31.604V32.7919Z" fill="#2A3A4E"/>
<path d="M25.6297 31.8891C25.6297 31.6519 25.5559 31.4641 25.4087 31.3252C25.2612 31.1867 25.0652 31.1171 24.821 31.1171C24.588 31.1171 24.3992 31.1895 24.2539 31.3352C24.1089 31.48 24.0362 31.6712 24.0362 31.908C24.0362 32.1398 24.11 32.3241 24.2572 32.4611C24.4049 32.598 24.6017 32.6665 24.8476 32.6665C25.086 32.6665 25.2759 32.5963 25.4177 32.4556C25.5591 32.315 25.6297 32.1259 25.6297 31.8891ZM25.8343 32.8852C25.8343 33.2172 25.7552 33.4599 25.5965 33.6132C25.4379 33.7668 25.1881 33.8435 24.8476 33.8435C24.5897 33.8435 24.3846 33.8005 24.2318 33.7149C24.0792 33.6296 23.9792 33.501 23.932 33.33H24.1518C24.1873 33.4492 24.2618 33.5371 24.3754 33.5942C24.4884 33.6515 24.6491 33.6799 24.8564 33.6799C25.1321 33.6799 25.3298 33.6202 25.4497 33.501C25.5699 33.3819 25.6297 33.19 25.6297 32.9251V32.4497C25.5349 32.5805 25.422 32.6765 25.2909 32.7378C25.1598 32.7994 25.0029 32.8298 24.821 32.8298C24.5275 32.8298 24.2895 32.7459 24.1062 32.577C23.9234 32.4086 23.8318 32.1869 23.8318 31.9118C23.8318 31.6265 23.9226 31.396 24.104 31.2188C24.2855 31.0423 24.5192 30.9533 24.8052 30.9533C25.0126 30.9533 25.1799 30.9833 25.3064 31.0423C25.4331 31.101 25.5408 31.1986 25.6297 31.336V30.9938H25.8343V32.8852Z" fill="#2A3A4E"/>
<path d="M28.2291 30.2139L27.7046 30.8012L27.5869 30.7256L28.0825 30.1208L28.2291 30.2139ZM28.5648 31.7156C28.5515 31.537 28.4756 31.3928 28.3369 31.2825C28.1985 31.1722 28.0211 31.1172 27.8046 31.1172C27.6033 31.1172 27.4308 31.1724 27.2881 31.2832C27.145 31.3944 27.064 31.5391 27.0446 31.718L28.5648 31.7156ZM28.7849 31.8813H27.0314C27.0357 32.1334 27.1053 32.3271 27.2401 32.4632C27.3749 32.5985 27.5631 32.6663 27.8046 32.6663C27.9765 32.6663 28.124 32.634 28.2469 32.5694C28.37 32.5053 28.4715 32.4066 28.5515 32.2748L28.7293 32.3528C28.6257 32.5164 28.4988 32.6367 28.3492 32.7141C28.1996 32.7911 28.0181 32.8298 27.8046 32.8298C27.4994 32.8298 27.2601 32.7451 27.087 32.5751C26.9135 32.4058 26.8269 32.1742 26.8269 31.8813C26.8269 31.6101 26.9193 31.3877 27.1046 31.2139C27.2898 31.0403 27.5232 30.9534 27.8046 30.9534C28.0995 30.9534 28.3365 31.033 28.5159 31.1912C28.695 31.3497 28.7849 31.5627 28.7849 31.8301V31.8813Z" fill="#2A3A4E"/>
<path d="M31.2905 32.7919H31.086V31.6744C31.086 31.4791 31.0457 31.3374 30.9648 31.2492C30.8842 31.1614 30.7528 31.1173 30.5704 31.1173C30.3555 31.1173 30.1981 31.1819 30.0983 31.3108C29.9982 31.4402 29.948 31.6456 29.948 31.9268V32.7919H29.7437V30.9938H29.948V31.2941C30.0147 31.1747 30.1018 31.0886 30.2081 31.0344C30.3149 30.9807 30.4514 30.9533 30.6172 30.9533C30.8246 30.9533 30.9887 31.0114 31.1093 31.1268C31.2302 31.2422 31.2905 31.4011 31.2905 31.604V32.7919Z" fill="#2A3A4E"/>
<path d="M32.7078 32.7919H32.5034V30.9938H32.7078V32.7919ZM32.7858 30.3394C32.7858 30.3827 32.7673 30.4194 32.7313 30.4499C32.6948 30.48 32.6522 30.4951 32.6034 30.4951C32.5529 30.4951 32.5099 30.48 32.4745 30.4499C32.4391 30.4194 32.4211 30.3827 32.4211 30.3394C32.4211 30.2963 32.4391 30.2597 32.4745 30.2291C32.5099 30.1989 32.5529 30.1836 32.6034 30.1836C32.6522 30.1836 32.6948 30.1989 32.7313 30.2291C32.7673 30.2597 32.7858 30.2963 32.7858 30.3394Z" fill="#2A3A4E"/>
<path d="M35.4296 31.7156C35.4162 31.5372 35.3402 31.393 35.2018 31.2825C35.0635 31.1722 34.8854 31.1171 34.6695 31.1171C34.4679 31.1171 34.2956 31.1725 34.1527 31.2831C34.01 31.3944 33.9285 31.5391 33.9094 31.7178L35.4296 31.7156ZM35.6496 31.8813H33.8961C33.9005 32.1334 33.9703 32.3276 34.1048 32.4632C34.2396 32.5986 34.4279 32.6664 34.6695 32.6664C34.8411 32.6664 34.9887 32.6341 35.1119 32.5694C35.2348 32.5049 35.3361 32.4067 35.4162 32.2749L35.5942 32.3527C35.4903 32.5164 35.3634 32.6364 35.214 32.714C35.0644 32.7912 34.8827 32.8301 34.6695 32.8301C34.3642 32.8301 34.1249 32.7452 33.9517 32.5751C33.7781 32.4054 33.6914 32.174 33.6914 31.8813C33.6914 31.6102 33.7841 31.3877 33.9693 31.214C34.1545 31.0404 34.3879 30.9533 34.6695 30.9533C34.9644 30.9533 35.2013 31.0331 35.3806 31.1911C35.5599 31.3497 35.6496 31.5626 35.6496 31.83V31.8813Z" fill="#2A3A4E"/>
<path d="M37.5202 30.9938L37.4512 31.1571C37.4306 31.1442 37.4047 31.1343 37.3734 31.1276C37.3423 31.1208 37.3105 31.1171 37.278 31.1171C37.1089 31.1171 36.9847 31.1902 36.9058 31.3368C36.8262 31.483 36.7867 31.7084 36.7867 32.0124V32.7919H36.5823V30.9938H36.7867V31.2807C36.8357 31.165 36.9023 31.0819 36.9867 31.0305C37.0712 30.9791 37.1822 30.9533 37.3199 30.9533C37.3571 30.9533 37.393 30.9573 37.4281 30.9642C37.4627 30.9708 37.4935 30.981 37.5202 30.9938Z" fill="#2A3A4E"/>
<path d="M38.4772 32.7919H38.2727V30.9938H38.4772V32.7919ZM38.5549 30.3394C38.5549 30.3827 38.5366 30.4194 38.5003 30.4499C38.4642 30.48 38.4215 30.4951 38.3726 30.4951C38.3221 30.4951 38.2792 30.48 38.2436 30.4499C38.2082 30.4194 38.1904 30.3827 38.1904 30.3394C38.1904 30.2963 38.2082 30.2597 38.2436 30.2291C38.2792 30.1989 38.3221 30.1836 38.3726 30.1836C38.4215 30.1836 38.4642 30.1989 38.5003 30.2291C38.5366 30.2597 38.5549 30.2963 38.5549 30.3394Z" fill="#2A3A4E"/>
<path d="M41.1989 31.7156C41.1853 31.5372 41.1095 31.393 40.9712 31.2825C40.8326 31.1722 40.6547 31.1171 40.4389 31.1171C40.2372 31.1171 40.0649 31.1725 39.922 31.2831C39.7791 31.3944 39.6978 31.5391 39.6786 31.7178L41.1989 31.7156ZM41.4189 31.8813H39.6652C39.6698 32.1334 39.7395 32.3276 39.8742 32.4632C40.0089 32.5986 40.1972 32.6664 40.4389 32.6664C40.6106 32.6664 40.7579 32.6341 40.881 32.5694C41.0039 32.5049 41.1056 32.4067 41.1853 32.2749L41.3631 32.3527C41.2594 32.5164 41.1327 32.6364 40.9833 32.714C40.8334 32.7912 40.652 32.8301 40.4389 32.8301C40.1334 32.8301 39.8945 32.7452 39.7208 32.5751C39.5476 32.4054 39.4607 32.174 39.4607 31.8813C39.4607 31.6102 39.5533 31.3877 39.7386 31.214C39.9239 31.0404 40.157 30.9533 40.4389 30.9533C40.7336 30.9533 40.9707 31.0331 41.1499 31.1911C41.3292 31.3497 41.4189 31.5626 41.4189 31.83V31.8813Z" fill="#2A3A4E"/>
<path d="M45.3147 30.7687C45.3147 30.6735 45.2784 30.5965 45.2061 30.5363C45.134 30.4767 45.0397 30.4469 44.9235 30.4469C44.8025 30.4469 44.7064 30.4755 44.6352 30.5333C44.5644 30.5909 44.5288 30.667 44.5288 30.7622C44.5288 30.8178 44.546 30.8768 44.5806 30.9402C44.6152 31.0037 44.6691 31.0756 44.7419 31.156L44.8755 31.2984C45.0372 31.2033 45.1509 31.1175 45.2164 31.0407C45.2817 30.9643 45.3147 30.8735 45.3147 30.7687ZM45.6 32.3177L44.8252 31.4808C44.5669 31.6265 44.3918 31.7459 44.3 31.8391C44.2077 31.9321 44.1618 32.0473 44.1618 32.1847C44.1618 32.3327 44.222 32.4534 44.3426 32.5469C44.4629 32.6405 44.6165 32.6875 44.8031 32.6875C44.9365 32.6875 45.0699 32.6566 45.2036 32.5945C45.337 32.5326 45.4693 32.4406 45.6 32.3177ZM46.2599 32.7919H46.0395L45.7019 32.4288C45.5588 32.561 45.4111 32.6596 45.26 32.7255C45.1086 32.791 44.9519 32.8236 44.7901 32.8236C44.5504 32.8236 44.3549 32.762 44.2044 32.638C44.0537 32.5146 43.9783 32.3559 43.9783 32.1624C43.9783 32.025 44.0356 31.8964 44.1506 31.7766C44.2654 31.6562 44.4591 31.524 44.7307 31.379L44.5789 31.2144C44.4972 31.1235 44.4401 31.0427 44.4074 30.9718C44.3745 30.9008 44.3581 30.8291 44.3581 30.7562C44.3581 30.6239 44.4088 30.5166 44.5103 30.4342C44.6116 30.3517 44.7493 30.3106 44.9235 30.3106C45.088 30.3106 45.2225 30.3539 45.3276 30.4407C45.4327 30.5274 45.4853 30.6366 45.4853 30.7687C45.4853 30.8884 45.4456 30.997 45.3667 31.0947C45.2874 31.1924 45.1552 31.2938 44.9698 31.3981L45.7133 32.2036C45.7738 32.1393 45.8321 32.0701 45.8883 31.9961C45.9446 31.9221 45.9985 31.8444 46.0506 31.7632L46.1878 31.8312C46.1246 31.9292 46.0627 32.0187 46.0016 32.0992C45.9404 32.1791 45.8794 32.2515 45.8188 32.3147L46.2599 32.7919Z" fill="#2A3A4E"/>
<path d="M50.6739 31.8773C50.6739 31.6454 50.6004 31.4608 50.4529 31.3233C50.3054 31.1859 50.1089 31.1171 49.8629 31.1171C49.6185 31.1171 49.427 31.1822 49.2884 31.3129C49.1499 31.4431 49.0805 31.6244 49.0805 31.8563C49.0805 32.0997 49.1558 32.2958 49.3062 32.444C49.4566 32.5921 49.6512 32.6663 49.8896 32.6663C50.1223 32.6663 50.3111 32.5941 50.4564 32.4497C50.6015 32.3052 50.6739 32.1143 50.6739 31.8773ZM50.8788 31.8738C50.8788 32.1589 50.7879 32.3897 50.6063 32.5657C50.4249 32.7419 50.1904 32.8296 49.9031 32.8296C49.7132 32.8296 49.5515 32.7973 49.4173 32.7321C49.2833 32.6668 49.171 32.5664 49.0805 32.4309V33.8032H48.876V30.9936H49.0805V31.3167C49.1666 31.1961 49.2774 31.1055 49.413 31.0444C49.5485 30.9838 49.7073 30.9532 49.8896 30.9532C50.1828 30.9532 50.421 31.0382 50.6042 31.2072C50.7872 31.3764 50.8788 31.5986 50.8788 31.8738Z" fill="#2A3A4E"/>
<path d="M53.4404 31.7156C53.4269 31.5372 53.351 31.393 53.2127 31.2825C53.074 31.1722 52.8963 31.1171 52.6804 31.1171C52.4787 31.1171 52.3065 31.1725 52.1635 31.2831C52.0207 31.3944 51.9392 31.5391 51.9202 31.7178L53.4404 31.7156ZM53.6603 31.8813H51.9068C51.9113 32.1334 51.981 32.3276 52.1157 32.4632C52.2503 32.5986 52.4387 32.6664 52.6804 32.6664C52.8522 32.6664 52.9994 32.6341 53.1226 32.5694C53.2455 32.5049 53.347 32.4067 53.4269 32.2749L53.6048 32.3527C53.5009 32.5164 53.3742 32.6364 53.2249 32.714C53.075 32.7912 52.8936 32.8301 52.6804 32.8301C52.375 32.8301 52.136 32.7452 51.9623 32.5751C51.789 32.4054 51.7021 32.174 51.7021 31.8813C51.7021 31.6102 51.7949 31.3877 51.9802 31.214C52.1654 31.0404 52.3988 30.9533 52.6804 30.9533C52.9751 30.9533 53.2122 31.0331 53.3912 31.1911C53.5708 31.3497 53.6603 31.5626 53.6603 31.83V31.8813Z" fill="#2A3A4E"/>
<path d="M55.5308 30.9938L55.4617 31.1571C55.4413 31.1442 55.4152 31.1343 55.3839 31.1276C55.353 31.1208 55.321 31.1171 55.2883 31.1171C55.1194 31.1171 54.9953 31.1902 54.9161 31.3368C54.8369 31.483 54.7972 31.7084 54.7972 32.0124V32.7919H54.5928V30.9938H54.7972V31.2807C54.8461 31.165 54.9128 31.0819 54.9971 31.0305C55.0819 30.9791 55.1929 30.9533 55.3306 30.9533C55.3676 30.9533 55.4036 30.9573 55.4384 30.9642C55.4733 30.9708 55.504 30.981 55.5308 30.9938Z" fill="#2A3A4E"/>
<path d="M57.1164 29.7499C57.0798 29.7349 57.0467 29.7235 57.0177 29.7157C56.9889 29.708 56.9616 29.7045 56.9365 29.7045C56.8106 29.7045 56.7244 29.7408 56.6778 29.8136C56.631 29.8866 56.6076 30.031 56.6076 30.2462V30.9936H57.0499V31.1571H56.6076V32.7918H56.4031V31.1571H56.0942V30.9936H56.4031V30.2578C56.4031 30.0017 56.4425 29.8182 56.5209 29.7071C56.5994 29.5963 56.7312 29.5409 56.9165 29.5409C56.9549 29.5409 56.9896 29.5435 57.0201 29.5484C57.0502 29.5537 57.0834 29.5624 57.1191 29.5748L57.1164 29.7499Z" fill="#2A3A4E"/>
<path d="M59.5961 31.8891C59.5961 31.6712 59.5111 31.4878 59.3413 31.3396C59.1714 31.1911 58.9626 31.1171 58.7136 31.1171C58.4646 31.1171 58.2547 31.1911 58.0836 31.3384C57.9123 31.4862 57.8269 31.6696 57.8269 31.8891C57.8269 32.1067 57.9131 32.2908 58.0859 32.4412C58.2583 32.5913 58.4678 32.6664 58.7136 32.6664C58.9596 32.6664 59.1681 32.5913 59.3394 32.4412C59.5101 32.2908 59.5961 32.1067 59.5961 31.8891ZM59.8027 31.8854C59.8027 32.1474 59.6961 32.3706 59.4825 32.5544C59.2694 32.7384 59.0098 32.8298 58.7047 32.8298C58.4054 32.8298 58.1502 32.7384 57.9391 32.5544C57.7279 32.3706 57.6223 32.1474 57.6223 31.8854C57.6223 31.6239 57.727 31.4035 57.9369 31.2238C58.1465 31.0434 58.4023 30.9533 58.7047 30.9533C59.0142 30.9533 59.2751 31.0433 59.486 31.2225C59.6972 31.402 59.8027 31.6226 59.8027 31.8854Z" fill="#2A3A4E"/>
<path d="M61.6779 30.9938L61.6086 31.1571C61.5884 31.1442 61.5622 31.1343 61.5311 31.1276C61.5001 31.1208 61.4682 31.1171 61.4353 31.1171C61.2665 31.1171 61.1425 31.1902 61.0632 31.3368C60.9837 31.483 60.944 31.7084 60.944 32.0124V32.7919H60.7397V30.9938H60.944V31.2807C60.9932 31.165 61.0597 31.0819 61.1444 31.0305C61.2287 30.9791 61.3399 30.9533 61.4774 30.9533C61.5144 30.9533 61.5504 30.9573 61.5855 30.9642C61.6205 30.9708 61.6508 30.981 61.6779 30.9938Z" fill="#2A3A4E"/>
<path d="M64.955 32.7919H64.7502V31.6744C64.7502 31.4856 64.7138 31.345 64.6414 31.2543C64.5685 31.163 64.4562 31.1173 64.3036 31.1173C64.1135 31.1173 63.9812 31.1679 63.9058 31.2693C63.8301 31.3707 63.7921 31.5773 63.7921 31.8891V32.7919H63.5879V31.6744C63.5879 31.4776 63.5538 31.3358 63.4856 31.2484C63.4172 31.161 63.3033 31.1173 63.1437 31.1173C62.9449 31.1173 62.8025 31.1803 62.7169 31.3064C62.6308 31.4324 62.5879 31.6392 62.5879 31.9268V32.7919H62.3835V30.9938H62.5879V31.2655C62.6335 31.1641 62.7067 31.0867 62.8069 31.0337C62.907 30.9804 63.031 30.9533 63.1788 30.9533C63.309 30.9533 63.4235 30.9817 63.5214 31.0371C63.6189 31.0931 63.6902 31.1716 63.7346 31.2733C63.7837 31.165 63.8575 31.0851 63.9566 31.0324C64.0562 30.9801 64.1837 30.9533 64.339 30.9533C64.5226 30.9533 64.6712 31.0121 64.7848 31.1287C64.8982 31.2451 64.955 31.4035 64.955 31.604V32.7919Z" fill="#2A3A4E"/>
<path d="M67.7276 31.8891C67.7276 31.6519 67.6539 31.4641 67.5065 31.3251C67.3588 31.1867 67.1632 31.1171 66.9185 31.1171C66.6858 31.1171 66.4972 31.1895 66.3519 31.3352C66.2067 31.48 66.1338 31.6712 66.1338 31.908C66.1338 32.1398 66.2077 32.3241 66.3552 32.4611C66.5026 32.598 66.6992 32.6664 66.9453 32.6664C67.1837 32.6664 67.3737 32.5963 67.5152 32.4556C67.657 32.315 67.7276 32.1259 67.7276 31.8891ZM67.9321 32.7919H67.7276V32.4497C67.6326 32.5805 67.5195 32.6765 67.3885 32.7378C67.2575 32.7994 67.1009 32.8298 66.9185 32.8298C66.6252 32.8298 66.387 32.7459 66.2039 32.577C66.0212 32.4086 65.9294 32.1869 65.9294 31.9118C65.9294 31.6264 66.0203 31.396 66.2018 31.2188C66.3835 31.0423 66.6169 30.9533 66.9031 30.9533C67.1103 30.9533 67.2775 30.9833 67.4039 31.0423C67.5308 31.101 67.6386 31.1986 67.7276 31.336V30.9938H67.9321V32.7919Z" fill="#2A3A4E"/>
<path d="M70.6003 32.7919H70.3956V31.6744C70.3956 31.4791 70.3552 31.3374 70.2746 31.2492C70.1937 31.1614 70.0626 31.1173 69.8801 31.1173C69.6651 31.1173 69.5077 31.1819 69.4077 31.3108C69.3081 31.4402 69.2578 31.6456 69.2578 31.9268V32.7919H69.0532V30.9938H69.2578V31.2941C69.3245 31.1747 69.411 31.0886 69.5179 31.0344C69.6247 30.9807 69.7607 30.9533 69.9269 30.9533C70.1342 30.9533 70.2982 31.0114 70.4191 31.1268C70.5398 31.2422 70.6003 31.4011 70.6003 31.604V32.7919Z" fill="#2A3A4E"/>
<path d="M73.3285 32.6989C73.228 32.7432 73.1182 32.776 72.9996 32.7978C72.8811 32.8194 72.7539 32.8298 72.6174 32.8298C72.3034 32.8298 72.0458 32.7435 71.8451 32.5703C71.6445 32.3976 71.5437 32.1754 71.5437 31.904C71.5437 31.6214 71.6488 31.393 71.8584 31.2168C72.0681 31.0414 72.341 30.9533 72.6772 30.9533C72.7898 30.9533 72.8964 30.9648 72.9975 30.9869C73.0981 31.0094 73.1968 31.0426 73.2927 31.0867V31.2655C73.1968 31.2171 73.0961 31.1806 72.992 31.1553C72.8876 31.1297 72.7811 31.1171 72.6731 31.1171C72.3882 31.1171 72.1635 31.1891 71.9974 31.3329C71.8311 31.4765 71.7484 31.6725 71.7484 31.9193C71.7484 32.1374 71.8346 32.3166 72.0074 32.4565C72.18 32.5966 72.4015 32.6665 72.6731 32.6665C72.799 32.6665 72.9159 32.6542 73.0241 32.6294C73.1325 32.6049 73.2337 32.5671 73.3285 32.5165V32.6989Z" fill="#2A3A4E"/>
<path d="M75.8682 31.7156C75.8547 31.5372 75.7786 31.393 75.6402 31.2825C75.5017 31.1722 75.3242 31.1171 75.1079 31.1171C74.9063 31.1171 74.734 31.1725 74.5911 31.2831C74.448 31.3944 74.3669 31.5391 74.3478 31.7178L75.8682 31.7156ZM76.0878 31.8813H74.3347C74.3388 32.1334 74.4087 32.3276 74.5432 32.4632C74.6782 32.5986 74.8665 32.6664 75.1079 32.6664C75.2799 32.6664 75.4272 32.6341 75.5501 32.5694C75.673 32.5049 75.7747 32.4067 75.8547 32.2749L76.0324 32.3527C75.9287 32.5164 75.802 32.6364 75.6526 32.714C75.5025 32.7912 75.3211 32.8301 75.1079 32.8301C74.8025 32.8301 74.5633 32.7452 74.3899 32.5751C74.2167 32.4054 74.1301 32.174 74.1301 31.8813C74.1301 31.6102 74.2225 31.3877 74.4077 31.214C74.5929 31.0404 74.8262 30.9533 75.1079 30.9533C75.4024 30.9533 75.6399 31.0331 75.8191 31.1911C75.9983 31.3497 76.0878 31.5626 76.0878 31.83V31.8813Z" fill="#2A3A4E"/>
<path d="M82.7562 31.8891C82.7562 31.652 82.6827 31.4641 82.5352 31.3252C82.3879 31.1867 82.1918 31.1172 81.9474 31.1172C81.7148 31.1172 81.5257 31.1896 81.3805 31.3352C81.2355 31.4801 81.1628 31.6712 81.1628 31.9081C81.1628 32.1398 81.2366 32.3241 81.3838 32.4612C81.5314 32.5981 81.728 32.6665 81.9741 32.6665C82.2123 32.6665 82.4027 32.5963 82.544 32.4556C82.6859 32.3151 82.7562 32.126 82.7562 31.8891ZM82.9609 32.7919H82.7562V32.4497C82.6614 32.5805 82.5485 32.6765 82.4175 32.7378C82.2863 32.7994 82.1297 32.8298 81.9474 32.8298C81.6541 32.8298 81.4159 32.7459 81.233 32.577C81.0497 32.4086 80.9583 32.1869 80.9583 31.9119C80.9583 31.6265 81.0491 31.396 81.2308 31.2189C81.4121 31.0424 81.6459 30.9534 81.932 30.9534C82.1509 30.9534 82.3209 30.9836 82.4416 31.043C82.5626 31.1027 82.6674 31.2002 82.7562 31.336V29.5793H82.9609V32.7919Z" fill="#2A3A4E"/>
<path d="M85.6603 31.7156C85.6471 31.5372 85.5709 31.393 85.4326 31.2825C85.2941 31.1722 85.1164 31.1171 84.9003 31.1171C84.6987 31.1171 84.5264 31.1725 84.3835 31.2831C84.2408 31.3944 84.1595 31.5391 84.1404 31.7178L85.6603 31.7156ZM85.8804 31.8813H84.1269C84.1312 32.1334 84.2009 32.3276 84.3359 32.4632C84.4705 32.5986 84.6586 32.6664 84.9003 32.6664C85.0722 32.6664 85.2196 32.6341 85.3427 32.5694C85.4654 32.5049 85.5671 32.4067 85.6471 32.2749L85.8248 32.3527C85.7211 32.5164 85.5945 32.6364 85.445 32.714C85.2952 32.7912 85.1134 32.8301 84.9003 32.8301C84.595 32.8301 84.3557 32.7452 84.1825 32.5751C84.0091 32.4054 83.9224 32.174 83.9224 31.8813C83.9224 31.6102 84.0151 31.3877 84.2003 31.214C84.3854 31.0404 84.6187 30.9533 84.9003 30.9533C85.1952 30.9533 85.4319 31.0331 85.6115 31.1911C85.7907 31.3497 85.8804 31.5626 85.8804 31.83V31.8813Z" fill="#2A3A4E"/>
<path d="M90.2791 30.9938L89.3322 32.8624L88.3811 30.9938H88.6099L89.3322 32.4651L90.0522 30.9938H90.2791Z" fill="#2A3A4E"/>
<path d="M92.8029 31.8891C92.8029 31.6712 92.7181 31.4878 92.5484 31.3396C92.3788 31.1911 92.1698 31.1171 91.9208 31.1171C91.6718 31.1171 91.4619 31.1911 91.2907 31.3384C91.1193 31.4862 91.0337 31.6696 91.0337 31.8891C91.0337 32.1067 91.12 32.2908 91.2927 32.4412C91.4653 32.5913 91.6748 32.6664 91.9208 32.6664C92.1663 32.6664 92.3751 32.5913 92.5463 32.4412C92.7175 32.2908 92.8029 32.1067 92.8029 31.8891ZM93.0097 31.8854C93.0097 32.1474 92.903 32.3706 92.6897 32.5544C92.4763 32.7384 92.2171 32.8298 91.9117 32.8298C91.6124 32.8298 91.3572 32.7384 91.1462 32.5544C90.9349 32.3706 90.8293 32.1474 90.8293 31.8854C90.8293 31.6239 90.9342 31.4035 91.1439 31.2238C91.3537 31.0434 91.6094 30.9533 91.9117 30.9533C92.2214 30.9533 92.482 31.0433 92.693 31.2225C92.9041 31.402 93.0097 31.6226 93.0097 31.8854Z" fill="#2A3A4E"/>
<path d="M95.0536 32.3206C95.0536 32.4762 94.9877 32.6002 94.8557 32.6922C94.7239 32.7839 94.5438 32.8298 94.3156 32.8298C94.1497 32.8298 94.0057 32.8003 93.8834 32.7409C93.7609 32.6811 93.6717 32.5969 93.6155 32.4879L93.8024 32.3984C93.8526 32.4909 93.922 32.5589 94.0101 32.6018C94.0981 32.6451 94.2113 32.6664 94.349 32.6664C94.4956 32.6664 94.6158 32.6364 94.709 32.577C94.8025 32.5176 94.849 32.4384 94.849 32.3395C94.849 32.2314 94.812 32.1514 94.738 32.0981C94.6639 32.0449 94.5172 31.9852 94.2978 31.9193C94.1217 31.8663 93.9864 31.7968 93.8924 31.7113C93.7983 31.6255 93.7511 31.5265 93.7511 31.4135C93.7511 31.2729 93.8048 31.161 93.9121 31.078C94.0196 30.995 94.1684 30.9533 94.3574 30.9533C94.4956 30.9533 94.6116 30.9791 94.706 31.0297C94.7998 31.0805 94.8767 31.1575 94.9358 31.2615L94.7492 31.347C94.7061 31.2674 94.6518 31.209 94.5869 31.1722C94.5216 31.1356 94.4393 31.1171 94.3399 31.1171C94.2243 31.1171 94.1319 31.1442 94.0623 31.1989C93.9926 31.2534 93.9579 31.325 93.9579 31.4135C93.9579 31.4923 93.9918 31.5606 94.0603 31.619C94.1281 31.6771 94.2318 31.7256 94.3711 31.7635C94.6213 31.8343 94.7979 31.9109 94.9 31.9925C95.0023 32.0743 95.0536 32.1837 95.0536 32.3206Z" fill="#2A3A4E"/>
<path d="M99.6609 31.9081C99.6609 31.6712 99.5885 31.4801 99.4432 31.3351C99.2979 31.1896 99.1091 31.1172 98.8764 31.1172C98.6246 31.1172 98.4269 31.1858 98.2831 31.3223C98.1393 31.4594 98.0672 31.648 98.0672 31.8891C98.0672 32.126 98.1396 32.3151 98.2844 32.4554C98.4284 32.5963 98.62 32.6665 98.8585 32.6665C99.1029 32.6665 99.2979 32.5987 99.4432 32.462C99.5885 32.326 99.6609 32.1411 99.6609 31.9081ZM99.8654 31.9117C99.8654 32.1869 99.774 32.4086 99.5909 32.577C99.4078 32.7459 99.1696 32.8301 98.8764 32.8301C98.6941 32.8301 98.5374 32.7994 98.4064 32.7381C98.275 32.6765 98.1621 32.5805 98.0672 32.4497V32.7919H97.8628V29.5793H98.0672V31.336C98.149 31.2104 98.259 31.1154 98.3986 31.0503C98.5379 30.9857 98.7013 30.9534 98.8898 30.9534C99.177 30.9534 99.4116 31.0424 99.5929 31.2189C99.7748 31.3957 99.8654 31.6263 99.8654 31.9117Z" fill="#2A3A4E"/>
<path d="M102.289 30.7332L102.189 30.8017L101.711 30.3547L101.234 30.8017L101.134 30.7332L101.711 30.1208L102.289 30.7332ZM102.509 31.8891C102.509 31.6518 102.436 31.4641 102.288 31.3252C102.141 31.1867 101.945 31.1172 101.7 31.1172C101.468 31.1172 101.279 31.1896 101.134 31.3351C100.989 31.4799 100.916 31.6712 100.916 31.9081C100.916 32.1398 100.989 32.3241 101.137 32.461C101.284 32.5981 101.481 32.6667 101.727 32.6667C101.966 32.6667 102.156 32.5963 102.297 32.4558C102.439 32.3147 102.509 32.126 102.509 31.8891ZM102.714 32.7919H102.509V32.4497C102.415 32.5807 102.302 32.6765 102.17 32.7378C102.04 32.7992 101.883 32.8298 101.7 32.8298C101.407 32.8298 101.169 32.7459 100.986 32.577C100.803 32.4085 100.711 32.1869 100.711 31.9117C100.711 31.6263 100.802 31.3957 100.984 31.2189C101.165 31.0422 101.399 30.9537 101.685 30.9537C101.892 30.9537 102.059 30.9831 102.186 31.0422C102.313 31.1011 102.42 31.199 102.509 31.3357V30.9938H102.714V32.7919Z" fill="#2A3A4E"/>
<path d="M104.444 31.1571H104.057V32.7919H103.853V31.1571H103.562V30.9938H103.853V30.2215H104.057V30.9938H104.444V31.1571Z" fill="#2A3A4E"/>
<path d="M105.519 32.7919H105.314V30.9938H105.519V32.7919ZM105.597 30.3394C105.597 30.3827 105.578 30.4194 105.542 30.4499C105.506 30.48 105.463 30.4951 105.414 30.4951C105.364 30.4951 105.321 30.48 105.285 30.4499C105.25 30.4194 105.232 30.3827 105.232 30.3394C105.232 30.2963 105.25 30.2597 105.285 30.2291C105.321 30.1989 105.364 30.1836 105.414 30.1836C105.463 30.1836 105.506 30.1989 105.542 30.2291C105.578 30.2597 105.597 30.2963 105.597 30.3394Z" fill="#2A3A4E"/>
<path d="M109.296 32.7919H109.092V31.6744C109.092 31.4856 109.055 31.345 108.983 31.2543C108.91 31.163 108.798 31.1173 108.645 31.1173C108.456 31.1173 108.323 31.1679 108.248 31.2693C108.172 31.3707 108.134 31.5773 108.134 31.8891V32.7919H107.929V31.6744C107.929 31.4776 107.896 31.3358 107.827 31.2484C107.759 31.161 107.645 31.1173 107.485 31.1173C107.286 31.1173 107.144 31.1803 107.058 31.3064C106.973 31.4324 106.929 31.6392 106.929 31.9268V32.7919H106.725V30.9938H106.929V31.2655C106.976 31.1641 107.048 31.0867 107.148 31.0337C107.249 30.9804 107.373 30.9533 107.521 30.9533C107.651 30.9533 107.765 30.9817 107.863 31.0371C107.961 31.0931 108.032 31.1716 108.076 31.2733C108.125 31.165 108.199 31.0851 108.299 31.0324C108.398 30.9801 108.525 30.9533 108.681 30.9533C108.864 30.9533 109.013 31.0121 109.126 31.1287C109.24 31.2451 109.296 31.4035 109.296 31.604V32.7919Z" fill="#2A3A4E"/>
<path d="M111.996 31.7156C111.982 31.5372 111.906 31.393 111.768 31.2825C111.629 31.1722 111.452 31.1171 111.236 31.1171C111.034 31.1171 110.862 31.1725 110.719 31.2831C110.576 31.3944 110.494 31.5391 110.476 31.7178L111.996 31.7156ZM112.216 31.8813H110.462C110.466 32.1334 110.536 32.3276 110.671 32.4632C110.806 32.5986 110.994 32.6664 111.236 32.6664C111.407 32.6664 111.555 32.6341 111.678 32.5694C111.801 32.5049 111.902 32.4067 111.982 32.2749L112.16 32.3527C112.056 32.5164 111.93 32.6364 111.78 32.714C111.63 32.7912 111.449 32.8301 111.236 32.8301C110.93 32.8301 110.691 32.7452 110.518 32.5751C110.344 32.4054 110.258 32.174 110.258 31.8813C110.258 31.6102 110.35 31.3877 110.536 31.214C110.721 31.0404 110.954 30.9533 111.236 30.9533C111.53 30.9533 111.767 31.0331 111.947 31.1911C112.126 31.3497 112.216 31.5626 112.216 31.83V31.8813Z" fill="#2A3A4E"/>
<path d="M114.682 32.7919H114.477V31.6744C114.477 31.4791 114.437 31.3374 114.356 31.2492C114.275 31.1614 114.144 31.1173 113.961 31.1173C113.747 31.1173 113.589 31.1819 113.489 31.3108C113.389 31.4402 113.339 31.6456 113.339 31.9268V32.7919H113.135V30.9938H113.339V31.2941C113.406 31.1747 113.493 31.0886 113.599 31.0344C113.706 30.9807 113.842 30.9533 114.008 30.9533C114.216 30.9533 114.38 31.0114 114.5 31.1268C114.621 31.2422 114.682 31.4011 114.682 31.604V32.7919Z" fill="#2A3A4E"/>
<path d="M116.381 31.1571H115.994V32.7919H115.79V31.1571H115.499V30.9938H115.79V30.2215H115.994V30.9938H116.381V31.1571Z" fill="#2A3A4E"/>
<path d="M118.343 32.3206C118.343 32.4762 118.276 32.6002 118.145 32.6922C118.013 32.7839 117.833 32.8298 117.605 32.8298C117.439 32.8298 117.295 32.8003 117.172 32.7409C117.05 32.6811 116.961 32.5969 116.905 32.4879L117.091 32.3984C117.141 32.4909 117.211 32.5589 117.299 32.6018C117.387 32.6451 117.5 32.6664 117.638 32.6664C117.784 32.6664 117.905 32.6364 117.998 32.577C118.091 32.5176 118.138 32.4384 118.138 32.3395C118.138 32.2314 118.101 32.1514 118.027 32.0981C117.953 32.0449 117.806 31.9852 117.587 31.9193C117.41 31.8663 117.275 31.7968 117.181 31.7113C117.087 31.6255 117.04 31.5265 117.04 31.4135C117.04 31.2729 117.094 31.161 117.201 31.078C117.309 30.995 117.457 30.9533 117.647 30.9533C117.784 30.9533 117.901 30.9791 117.995 31.0297C118.089 31.0805 118.166 31.1575 118.225 31.2615L118.038 31.347C117.995 31.2674 117.941 31.209 117.876 31.1722C117.811 31.1356 117.728 31.1171 117.629 31.1171C117.514 31.1171 117.421 31.1442 117.351 31.1989C117.282 31.2534 117.247 31.325 117.247 31.4135C117.247 31.4923 117.281 31.5606 117.349 31.619C117.417 31.6771 117.521 31.7256 117.66 31.7635C117.911 31.8343 118.087 31.9109 118.189 31.9925C118.292 32.0743 118.343 32.1837 118.343 32.3206Z" fill="#2A3A4E"/>
<path d="M15.884 0.642634L0.444891 33.315L6.83608 29.4226L15.8893 10.2161L15.884 0.642634Z" fill="#2C79B9"/>
<path d="M27.5301 25.6052L15.8887 0.642674V10.2144L23.1267 25.6046" fill="#00364F"/>
<path d="M6.83239 29.423L0.445068 33.3184L15.8904 33.3183L18.3015 31.3705L15.8904 29.423H6.83239Z" fill="#00364F"/>
<path d="M93.7178 8.25831H84.3323V9.86495H93.7178V8.25831Z" fill="#00364F"/>
<path d="M116.043 10.7466C114.372 9.08821 112.296 8.25831 109.816 8.25831C108.286 8.25831 106.864 8.63951 105.549 9.4024C104.235 10.1648 103.197 11.2187 102.436 12.5652C101.732 13.8083 101.358 15.1517 101.305 16.5918H102.996C103.046 15.4134 103.346 14.336 103.9 13.3598C104.51 12.2887 105.357 11.4358 106.443 10.8032C107.528 10.1704 108.677 9.8538 109.888 9.8538C111.122 9.8538 112.289 10.1704 113.389 10.8032C114.49 11.4358 115.343 12.279 115.948 13.3324C116.555 14.3861 116.857 15.5644 116.857 16.867C116.857 18.1776 116.555 19.3685 115.948 20.4403C115.343 21.513 114.499 22.3575 113.418 22.9759C112.336 23.5938 111.159 23.9024 109.888 23.9024C107.985 23.9024 106.359 23.2312 105.01 21.8865C103.957 20.8376 103.321 19.6015 103.089 18.183H101.384C101.629 20.0225 102.428 21.6308 103.8 22.9986C105.471 24.6651 107.521 25.4982 109.95 25.4982C112.348 25.4982 114.381 24.6611 116.049 22.9877C117.716 21.3139 118.55 19.2756 118.55 16.8726C118.55 14.4472 117.714 12.4057 116.043 10.7466Z" fill="#00364F"/>
<path d="M68.5185 23.9474C66.4325 23.9474 64.705 23.2777 63.336 21.9391C62.2641 20.8905 61.6178 19.6369 61.3848 18.183H59.6562C59.8875 19.8728 60.5433 21.3576 61.6379 22.6305C63.2933 24.5422 65.553 25.4982 68.4183 25.4982C69.9242 25.4982 71.2883 25.2139 72.5093 24.6447C73.7297 24.0756 74.7489 23.271 75.5656 22.2286L74.2744 21.2467C72.7299 23.0473 70.8116 23.9474 68.5185 23.9474Z" fill="#00364F"/>
<path d="M72.5373 9.16811C71.3048 8.56184 69.924 8.25831 68.3954 8.25831C65.8643 8.25831 63.759 9.07834 62.0781 10.719C60.4422 12.3142 59.6089 14.2744 59.5645 16.5918H61.2917C61.3397 15.4021 61.6403 14.3216 62.2001 13.3525C62.8127 12.2921 63.675 11.4479 64.7886 10.8193C65.9014 10.1904 67.1112 9.87641 68.4183 9.87641C69.6129 9.87641 70.7093 10.116 71.7074 10.5963C72.7061 11.0757 73.5615 11.7812 74.2741 12.7107L75.5655 11.7178C74.7786 10.6239 73.7691 9.77422 72.5373 9.16811Z" fill="#00364F"/>
<path d="M48.5287 9.16811C47.2966 8.56184 45.9158 8.25831 44.3872 8.25831C41.8562 8.25831 39.7505 9.07834 38.0693 10.719C36.4338 12.3142 35.6005 14.2744 35.5564 16.5918H37.2834C37.331 15.4021 37.6319 14.3216 38.1919 13.3525C38.804 12.2921 39.6668 11.4479 40.7803 10.8193C41.8932 10.1904 43.1031 9.87641 44.4094 9.87641C45.6044 9.87641 46.7006 10.116 47.6993 10.5963C48.6974 11.0757 49.553 11.7812 50.2657 12.7107L51.5566 11.7178C50.7701 10.6239 49.7609 9.77422 48.5287 9.16811Z" fill="#00364F"/>
<path d="M44.5098 23.9474C42.4243 23.9474 40.697 23.2776 39.3278 21.939C38.2565 20.8914 37.6105 19.6392 37.3772 18.1876H35.6482C35.8802 19.8754 36.5362 21.3586 37.6294 22.6305C39.2844 24.5422 41.5447 25.4982 44.4096 25.4982C45.9162 25.4982 47.2798 25.2139 48.5011 24.6447C49.7215 24.0756 50.7402 23.271 51.5566 22.2286L50.2657 21.2467C48.7214 23.0473 46.8031 23.9474 44.5098 23.9474Z" fill="#00364F"/>
<path d="M84.3323 18.1877H85.9687V18.1832H93.6511V16.5918H84.3323V18.1877Z" fill="#00364F"/>
<path d="M93.6511 23.8911H84.3323V25.4982H93.6511V23.8911Z" fill="#00364F"/>
<path d="M109.928 16.4651C109.879 16.4651 109.838 16.5056 109.838 16.5547V17.3003H109.067C109.017 17.3003 108.978 17.3402 108.978 17.3896C108.978 17.4389 109.017 17.4792 109.067 17.4792H109.838V18.2246C109.838 18.2738 109.879 18.314 109.928 18.314C109.977 18.314 110.017 18.2738 110.017 18.2246V17.4792H110.789C110.838 17.4792 110.878 17.4389 110.878 17.3896C110.878 17.3402 110.838 17.3003 110.789 17.3003H110.017V16.5547C110.017 16.5056 109.977 16.4651 109.928 16.4651Z" fill="#00364F"/>
<path d="M19.9667 29.8567H20.1846V32.7919H19.9667V29.8567Z" fill="#00364F"/>
<path d="M22.8792 32.7919H22.6749V31.6744C22.6749 31.4791 22.6345 31.3374 22.5537 31.2492C22.473 31.1614 22.3414 31.1173 22.1592 31.1173C21.9444 31.1173 21.7869 31.1819 21.687 31.3108C21.5868 31.4402 21.5369 31.6456 21.5369 31.9268V32.7919H21.3325V30.9938H21.5369V31.2941C21.6036 31.1747 21.6903 31.0886 21.797 31.0344C21.9036 30.9807 22.04 30.9533 22.2059 30.9533C22.4135 30.9533 22.5775 31.0114 22.6982 31.1268C22.8189 31.2422 22.8792 31.4011 22.8792 31.604V32.7919Z" fill="#00364F"/>
<path d="M25.6297 31.8891C25.6297 31.6519 25.5559 31.4641 25.4087 31.3252C25.2612 31.1867 25.0652 31.1171 24.821 31.1171C24.588 31.1171 24.3992 31.1895 24.2539 31.3352C24.1089 31.48 24.0362 31.6712 24.0362 31.908C24.0362 32.1398 24.11 32.3241 24.2572 32.4611C24.4049 32.598 24.6017 32.6665 24.8476 32.6665C25.086 32.6665 25.2759 32.5963 25.4177 32.4556C25.5591 32.315 25.6297 32.1259 25.6297 31.8891ZM25.8343 32.8852C25.8343 33.2172 25.7552 33.4599 25.5965 33.6132C25.4379 33.7668 25.1881 33.8435 24.8476 33.8435C24.5897 33.8435 24.3846 33.8005 24.2318 33.7149C24.0792 33.6296 23.9792 33.501 23.932 33.33H24.1518C24.1873 33.4492 24.2618 33.5371 24.3754 33.5942C24.4884 33.6515 24.6491 33.6799 24.8564 33.6799C25.1321 33.6799 25.3298 33.6202 25.4497 33.501C25.5699 33.3819 25.6297 33.19 25.6297 32.9251V32.4497C25.5349 32.5805 25.422 32.6765 25.2909 32.7378C25.1598 32.7994 25.0029 32.8298 24.821 32.8298C24.5275 32.8298 24.2895 32.7459 24.1062 32.577C23.9234 32.4086 23.8318 32.1869 23.8318 31.9118C23.8318 31.6265 23.9226 31.396 24.104 31.2188C24.2855 31.0423 24.5192 30.9533 24.8052 30.9533C25.0126 30.9533 25.1799 30.9833 25.3064 31.0423C25.4331 31.101 25.5408 31.1986 25.6297 31.336V30.9938H25.8343V32.8852Z" fill="#00364F"/>
<path d="M28.2291 30.2139L27.7046 30.8012L27.5869 30.7256L28.0825 30.1208L28.2291 30.2139ZM28.5648 31.7156C28.5515 31.537 28.4756 31.3928 28.3369 31.2825C28.1985 31.1722 28.0211 31.1172 27.8046 31.1172C27.6033 31.1172 27.4308 31.1724 27.2881 31.2832C27.145 31.3944 27.064 31.5391 27.0446 31.718L28.5648 31.7156ZM28.7849 31.8813H27.0314C27.0357 32.1334 27.1053 32.3271 27.2401 32.4632C27.3749 32.5985 27.5631 32.6663 27.8046 32.6663C27.9765 32.6663 28.124 32.634 28.2469 32.5694C28.37 32.5053 28.4715 32.4066 28.5515 32.2748L28.7293 32.3528C28.6257 32.5164 28.4988 32.6367 28.3492 32.7141C28.1996 32.7911 28.0181 32.8298 27.8046 32.8298C27.4994 32.8298 27.2601 32.7451 27.087 32.5751C26.9135 32.4058 26.8269 32.1742 26.8269 31.8813C26.8269 31.6101 26.9193 31.3877 27.1046 31.2139C27.2898 31.0403 27.5232 30.9534 27.8046 30.9534C28.0995 30.9534 28.3365 31.033 28.5159 31.1912C28.695 31.3497 28.7849 31.5627 28.7849 31.8301V31.8813Z" fill="#00364F"/>
<path d="M31.2905 32.7919H31.086V31.6744C31.086 31.4791 31.0457 31.3374 30.9648 31.2492C30.8842 31.1614 30.7528 31.1173 30.5704 31.1173C30.3555 31.1173 30.1981 31.1819 30.0983 31.3108C29.9982 31.4402 29.948 31.6456 29.948 31.9268V32.7919H29.7437V30.9938H29.948V31.2941C30.0147 31.1747 30.1018 31.0886 30.2081 31.0344C30.3149 30.9807 30.4514 30.9533 30.6172 30.9533C30.8246 30.9533 30.9887 31.0114 31.1093 31.1268C31.2302 31.2422 31.2905 31.4011 31.2905 31.604V32.7919Z" fill="#00364F"/>
<path d="M32.7078 32.7919H32.5034V30.9938H32.7078V32.7919ZM32.7858 30.3394C32.7858 30.3827 32.7673 30.4194 32.7313 30.4499C32.6948 30.48 32.6522 30.4951 32.6034 30.4951C32.5529 30.4951 32.5099 30.48 32.4745 30.4499C32.4391 30.4194 32.4211 30.3827 32.4211 30.3394C32.4211 30.2963 32.4391 30.2597 32.4745 30.2291C32.5099 30.1989 32.5529 30.1836 32.6034 30.1836C32.6522 30.1836 32.6948 30.1989 32.7313 30.2291C32.7673 30.2597 32.7858 30.2963 32.7858 30.3394Z" fill="#00364F"/>
<path d="M35.4296 31.7156C35.4162 31.5372 35.3402 31.393 35.2018 31.2825C35.0635 31.1722 34.8854 31.1171 34.6695 31.1171C34.4679 31.1171 34.2956 31.1725 34.1527 31.2831C34.01 31.3944 33.9285 31.5391 33.9094 31.7178L35.4296 31.7156ZM35.6496 31.8813H33.8961C33.9005 32.1334 33.9703 32.3276 34.1048 32.4632C34.2396 32.5986 34.4279 32.6664 34.6695 32.6664C34.8411 32.6664 34.9887 32.6341 35.1119 32.5694C35.2348 32.5049 35.3361 32.4067 35.4162 32.2749L35.5942 32.3527C35.4903 32.5164 35.3634 32.6364 35.214 32.714C35.0644 32.7912 34.8827 32.8301 34.6695 32.8301C34.3642 32.8301 34.1249 32.7452 33.9517 32.5751C33.7781 32.4054 33.6914 32.174 33.6914 31.8813C33.6914 31.6102 33.7841 31.3877 33.9693 31.214C34.1545 31.0404 34.3879 30.9533 34.6695 30.9533C34.9644 30.9533 35.2013 31.0331 35.3806 31.1911C35.5599 31.3497 35.6496 31.5626 35.6496 31.83V31.8813Z" fill="#00364F"/>
<path d="M37.5202 30.9938L37.4512 31.1571C37.4306 31.1442 37.4047 31.1343 37.3734 31.1276C37.3423 31.1208 37.3105 31.1171 37.278 31.1171C37.1089 31.1171 36.9847 31.1902 36.9058 31.3368C36.8262 31.483 36.7867 31.7084 36.7867 32.0124V32.7919H36.5823V30.9938H36.7867V31.2807C36.8357 31.165 36.9023 31.0819 36.9867 31.0305C37.0712 30.9791 37.1822 30.9533 37.3199 30.9533C37.3571 30.9533 37.393 30.9573 37.4281 30.9642C37.4627 30.9708 37.4935 30.981 37.5202 30.9938Z" fill="#00364F"/>
<path d="M38.4772 32.7919H38.2727V30.9938H38.4772V32.7919ZM38.5549 30.3394C38.5549 30.3827 38.5366 30.4194 38.5003 30.4499C38.4642 30.48 38.4215 30.4951 38.3726 30.4951C38.3221 30.4951 38.2792 30.48 38.2436 30.4499C38.2082 30.4194 38.1904 30.3827 38.1904 30.3394C38.1904 30.2963 38.2082 30.2597 38.2436 30.2291C38.2792 30.1989 38.3221 30.1836 38.3726 30.1836C38.4215 30.1836 38.4642 30.1989 38.5003 30.2291C38.5366 30.2597 38.5549 30.2963 38.5549 30.3394Z" fill="#00364F"/>
<path d="M41.1989 31.7156C41.1853 31.5372 41.1095 31.393 40.9712 31.2825C40.8326 31.1722 40.6547 31.1171 40.4389 31.1171C40.2372 31.1171 40.0649 31.1725 39.922 31.2831C39.7791 31.3944 39.6978 31.5391 39.6786 31.7178L41.1989 31.7156ZM41.4189 31.8813H39.6652C39.6698 32.1334 39.7395 32.3276 39.8742 32.4632C40.0089 32.5986 40.1972 32.6664 40.4389 32.6664C40.6106 32.6664 40.7579 32.6341 40.881 32.5694C41.0039 32.5049 41.1056 32.4067 41.1853 32.2749L41.3631 32.3527C41.2594 32.5164 41.1327 32.6364 40.9833 32.714C40.8334 32.7912 40.652 32.8301 40.4389 32.8301C40.1334 32.8301 39.8945 32.7452 39.7208 32.5751C39.5476 32.4054 39.4607 32.174 39.4607 31.8813C39.4607 31.6102 39.5533 31.3877 39.7386 31.214C39.9239 31.0404 40.157 30.9533 40.4389 30.9533C40.7336 30.9533 40.9707 31.0331 41.1499 31.1911C41.3292 31.3497 41.4189 31.5626 41.4189 31.83V31.8813Z" fill="#00364F"/>
<path d="M45.3147 30.7687C45.3147 30.6735 45.2784 30.5965 45.2061 30.5363C45.134 30.4767 45.0397 30.4469 44.9235 30.4469C44.8025 30.4469 44.7064 30.4755 44.6352 30.5333C44.5644 30.5909 44.5288 30.667 44.5288 30.7622C44.5288 30.8178 44.546 30.8768 44.5806 30.9402C44.6152 31.0037 44.6691 31.0756 44.7419 31.156L44.8755 31.2984C45.0372 31.2033 45.1509 31.1175 45.2164 31.0407C45.2817 30.9643 45.3147 30.8735 45.3147 30.7687ZM45.6 32.3177L44.8252 31.4808C44.5669 31.6265 44.3918 31.7459 44.3 31.8391C44.2077 31.9321 44.1618 32.0473 44.1618 32.1847C44.1618 32.3327 44.222 32.4534 44.3426 32.5469C44.4629 32.6405 44.6165 32.6875 44.8031 32.6875C44.9365 32.6875 45.0699 32.6566 45.2036 32.5945C45.337 32.5326 45.4693 32.4406 45.6 32.3177ZM46.2599 32.7919H46.0395L45.7019 32.4288C45.5588 32.561 45.4111 32.6596 45.26 32.7255C45.1086 32.791 44.9519 32.8236 44.7901 32.8236C44.5504 32.8236 44.3549 32.762 44.2044 32.638C44.0537 32.5146 43.9783 32.3559 43.9783 32.1624C43.9783 32.025 44.0356 31.8964 44.1506 31.7766C44.2654 31.6562 44.4591 31.524 44.7307 31.379L44.5789 31.2144C44.4972 31.1235 44.4401 31.0427 44.4074 30.9718C44.3745 30.9008 44.3581 30.8291 44.3581 30.7562C44.3581 30.6239 44.4088 30.5166 44.5103 30.4342C44.6116 30.3517 44.7493 30.3106 44.9235 30.3106C45.088 30.3106 45.2225 30.3539 45.3276 30.4407C45.4327 30.5274 45.4853 30.6366 45.4853 30.7687C45.4853 30.8884 45.4456 30.997 45.3667 31.0947C45.2874 31.1924 45.1552 31.2938 44.9698 31.3981L45.7133 32.2036C45.7738 32.1393 45.8321 32.0701 45.8883 31.9961C45.9446 31.9221 45.9985 31.8444 46.0506 31.7632L46.1878 31.8312C46.1246 31.9292 46.0627 32.0187 46.0016 32.0992C45.9404 32.1791 45.8794 32.2515 45.8188 32.3147L46.2599 32.7919Z" fill="#00364F"/>
<path d="M50.6739 31.8773C50.6739 31.6454 50.6004 31.4608 50.4529 31.3233C50.3054 31.1859 50.1089 31.1171 49.8629 31.1171C49.6185 31.1171 49.427 31.1822 49.2884 31.3129C49.1499 31.4431 49.0805 31.6244 49.0805 31.8563C49.0805 32.0997 49.1558 32.2958 49.3062 32.444C49.4566 32.5921 49.6512 32.6663 49.8896 32.6663C50.1223 32.6663 50.3111 32.5941 50.4564 32.4497C50.6015 32.3052 50.6739 32.1143 50.6739 31.8773ZM50.8788 31.8738C50.8788 32.1589 50.7879 32.3897 50.6063 32.5657C50.4249 32.7419 50.1904 32.8296 49.9031 32.8296C49.7132 32.8296 49.5515 32.7973 49.4173 32.7321C49.2833 32.6668 49.171 32.5664 49.0805 32.4309V33.8032H48.876V30.9936H49.0805V31.3167C49.1666 31.1961 49.2774 31.1055 49.413 31.0444C49.5485 30.9838 49.7073 30.9532 49.8896 30.9532C50.1828 30.9532 50.421 31.0382 50.6042 31.2072C50.7872 31.3764 50.8788 31.5986 50.8788 31.8738Z" fill="#00364F"/>
<path d="M53.4404 31.7156C53.4269 31.5372 53.351 31.393 53.2127 31.2825C53.074 31.1722 52.8963 31.1171 52.6804 31.1171C52.4787 31.1171 52.3065 31.1725 52.1635 31.2831C52.0207 31.3944 51.9392 31.5391 51.9202 31.7178L53.4404 31.7156ZM53.6603 31.8813H51.9068C51.9113 32.1334 51.981 32.3276 52.1157 32.4632C52.2503 32.5986 52.4387 32.6664 52.6804 32.6664C52.8522 32.6664 52.9994 32.6341 53.1226 32.5694C53.2455 32.5049 53.347 32.4067 53.4269 32.2749L53.6048 32.3527C53.5009 32.5164 53.3742 32.6364 53.2249 32.714C53.075 32.7912 52.8936 32.8301 52.6804 32.8301C52.375 32.8301 52.136 32.7452 51.9623 32.5751C51.789 32.4054 51.7021 32.174 51.7021 31.8813C51.7021 31.6102 51.7949 31.3877 51.9802 31.214C52.1654 31.0404 52.3988 30.9533 52.6804 30.9533C52.9751 30.9533 53.2122 31.0331 53.3912 31.1911C53.5708 31.3497 53.6603 31.5626 53.6603 31.83V31.8813Z" fill="#00364F"/>
<path d="M55.5308 30.9938L55.4617 31.1571C55.4413 31.1442 55.4152 31.1343 55.3839 31.1276C55.353 31.1208 55.321 31.1171 55.2883 31.1171C55.1194 31.1171 54.9953 31.1902 54.9161 31.3368C54.8369 31.483 54.7972 31.7084 54.7972 32.0124V32.7919H54.5928V30.9938H54.7972V31.2807C54.8461 31.165 54.9128 31.0819 54.9971 31.0305C55.0819 30.9791 55.1929 30.9533 55.3306 30.9533C55.3676 30.9533 55.4036 30.9573 55.4384 30.9642C55.4733 30.9708 55.504 30.981 55.5308 30.9938Z" fill="#00364F"/>
<path d="M57.1164 29.7499C57.0798 29.7349 57.0467 29.7235 57.0177 29.7157C56.9889 29.708 56.9616 29.7045 56.9365 29.7045C56.8106 29.7045 56.7244 29.7408 56.6778 29.8136C56.631 29.8866 56.6076 30.031 56.6076 30.2462V30.9936H57.0499V31.1571H56.6076V32.7918H56.4031V31.1571H56.0942V30.9936H56.4031V30.2578C56.4031 30.0017 56.4425 29.8182 56.5209 29.7071C56.5994 29.5963 56.7312 29.5409 56.9165 29.5409C56.9549 29.5409 56.9896 29.5435 57.0201 29.5484C57.0502 29.5537 57.0834 29.5624 57.1191 29.5748L57.1164 29.7499Z" fill="#00364F"/>
<path d="M59.5961 31.8891C59.5961 31.6712 59.5111 31.4878 59.3413 31.3396C59.1714 31.1911 58.9626 31.1171 58.7136 31.1171C58.4646 31.1171 58.2547 31.1911 58.0836 31.3384C57.9123 31.4862 57.8269 31.6696 57.8269 31.8891C57.8269 32.1067 57.9131 32.2908 58.0859 32.4412C58.2583 32.5913 58.4678 32.6664 58.7136 32.6664C58.9596 32.6664 59.1681 32.5913 59.3394 32.4412C59.5101 32.2908 59.5961 32.1067 59.5961 31.8891ZM59.8027 31.8854C59.8027 32.1474 59.6961 32.3706 59.4825 32.5544C59.2694 32.7384 59.0098 32.8298 58.7047 32.8298C58.4054 32.8298 58.1502 32.7384 57.9391 32.5544C57.7279 32.3706 57.6223 32.1474 57.6223 31.8854C57.6223 31.6239 57.727 31.4035 57.9369 31.2238C58.1465 31.0434 58.4023 30.9533 58.7047 30.9533C59.0142 30.9533 59.2751 31.0433 59.486 31.2225C59.6972 31.402 59.8027 31.6226 59.8027 31.8854Z" fill="#00364F"/>
<path d="M61.6779 30.9938L61.6086 31.1571C61.5884 31.1442 61.5622 31.1343 61.5311 31.1276C61.5001 31.1208 61.4682 31.1171 61.4353 31.1171C61.2665 31.1171 61.1425 31.1902 61.0632 31.3368C60.9837 31.483 60.944 31.7084 60.944 32.0124V32.7919H60.7397V30.9938H60.944V31.2807C60.9932 31.165 61.0597 31.0819 61.1444 31.0305C61.2287 30.9791 61.3399 30.9533 61.4774 30.9533C61.5144 30.9533 61.5504 30.9573 61.5855 30.9642C61.6205 30.9708 61.6508 30.981 61.6779 30.9938Z" fill="#00364F"/>
<path d="M64.955 32.7919H64.7502V31.6744C64.7502 31.4856 64.7138 31.345 64.6414 31.2543C64.5685 31.163 64.4562 31.1173 64.3036 31.1173C64.1135 31.1173 63.9812 31.1679 63.9058 31.2693C63.8301 31.3707 63.7921 31.5773 63.7921 31.8891V32.7919H63.5879V31.6744C63.5879 31.4776 63.5538 31.3358 63.4856 31.2484C63.4172 31.161 63.3033 31.1173 63.1437 31.1173C62.9449 31.1173 62.8025 31.1803 62.7169 31.3064C62.6308 31.4324 62.5879 31.6392 62.5879 31.9268V32.7919H62.3835V30.9938H62.5879V31.2655C62.6335 31.1641 62.7067 31.0867 62.8069 31.0337C62.907 30.9804 63.031 30.9533 63.1788 30.9533C63.309 30.9533 63.4235 30.9817 63.5214 31.0371C63.6189 31.0931 63.6902 31.1716 63.7346 31.2733C63.7837 31.165 63.8575 31.0851 63.9566 31.0324C64.0562 30.9801 64.1837 30.9533 64.339 30.9533C64.5226 30.9533 64.6712 31.0121 64.7848 31.1287C64.8982 31.2451 64.955 31.4035 64.955 31.604V32.7919Z" fill="#00364F"/>
<path d="M67.7276 31.8891C67.7276 31.6519 67.6539 31.4641 67.5065 31.3251C67.3588 31.1867 67.1632 31.1171 66.9185 31.1171C66.6858 31.1171 66.4972 31.1895 66.3519 31.3352C66.2067 31.48 66.1338 31.6712 66.1338 31.908C66.1338 32.1398 66.2077 32.3241 66.3552 32.4611C66.5026 32.598 66.6992 32.6664 66.9453 32.6664C67.1837 32.6664 67.3737 32.5963 67.5152 32.4556C67.657 32.315 67.7276 32.1259 67.7276 31.8891ZM67.9321 32.7919H67.7276V32.4497C67.6326 32.5805 67.5195 32.6765 67.3885 32.7378C67.2575 32.7994 67.1009 32.8298 66.9185 32.8298C66.6252 32.8298 66.387 32.7459 66.2039 32.577C66.0212 32.4086 65.9294 32.1869 65.9294 31.9118C65.9294 31.6264 66.0203 31.396 66.2018 31.2188C66.3835 31.0423 66.6169 30.9533 66.9031 30.9533C67.1103 30.9533 67.2775 30.9833 67.4039 31.0423C67.5308 31.101 67.6386 31.1986 67.7276 31.336V30.9938H67.9321V32.7919Z" fill="#00364F"/>
<path d="M70.6003 32.7919H70.3956V31.6744C70.3956 31.4791 70.3552 31.3374 70.2746 31.2492C70.1937 31.1614 70.0626 31.1173 69.8801 31.1173C69.6651 31.1173 69.5077 31.1819 69.4077 31.3108C69.3081 31.4402 69.2578 31.6456 69.2578 31.9268V32.7919H69.0532V30.9938H69.2578V31.2941C69.3245 31.1747 69.411 31.0886 69.5179 31.0344C69.6247 30.9807 69.7607 30.9533 69.9269 30.9533C70.1342 30.9533 70.2982 31.0114 70.4191 31.1268C70.5398 31.2422 70.6003 31.4011 70.6003 31.604V32.7919Z" fill="#00364F"/>
<path d="M73.3285 32.6989C73.228 32.7432 73.1182 32.776 72.9996 32.7978C72.8811 32.8194 72.7539 32.8298 72.6174 32.8298C72.3034 32.8298 72.0458 32.7435 71.8451 32.5703C71.6445 32.3976 71.5437 32.1754 71.5437 31.904C71.5437 31.6214 71.6488 31.393 71.8584 31.2168C72.0681 31.0414 72.341 30.9533 72.6772 30.9533C72.7898 30.9533 72.8964 30.9648 72.9975 30.9869C73.0981 31.0094 73.1968 31.0426 73.2927 31.0867V31.2655C73.1968 31.2171 73.0961 31.1806 72.992 31.1553C72.8876 31.1297 72.7811 31.1171 72.6731 31.1171C72.3882 31.1171 72.1635 31.1891 71.9974 31.3329C71.8311 31.4765 71.7484 31.6725 71.7484 31.9193C71.7484 32.1374 71.8346 32.3166 72.0074 32.4565C72.18 32.5966 72.4015 32.6665 72.6731 32.6665C72.799 32.6665 72.9159 32.6542 73.0241 32.6294C73.1325 32.6049 73.2337 32.5671 73.3285 32.5165V32.6989Z" fill="#00364F"/>
<path d="M75.8682 31.7156C75.8547 31.5372 75.7786 31.393 75.6402 31.2825C75.5017 31.1722 75.3242 31.1171 75.1079 31.1171C74.9063 31.1171 74.734 31.1725 74.5911 31.2831C74.448 31.3944 74.3669 31.5391 74.3478 31.7178L75.8682 31.7156ZM76.0878 31.8813H74.3347C74.3388 32.1334 74.4087 32.3276 74.5432 32.4632C74.6782 32.5986 74.8665 32.6664 75.1079 32.6664C75.2799 32.6664 75.4272 32.6341 75.5501 32.5694C75.673 32.5049 75.7747 32.4067 75.8547 32.2749L76.0324 32.3527C75.9287 32.5164 75.802 32.6364 75.6526 32.714C75.5025 32.7912 75.3211 32.8301 75.1079 32.8301C74.8025 32.8301 74.5633 32.7452 74.3899 32.5751C74.2167 32.4054 74.1301 32.174 74.1301 31.8813C74.1301 31.6102 74.2225 31.3877 74.4077 31.214C74.5929 31.0404 74.8262 30.9533 75.1079 30.9533C75.4024 30.9533 75.6399 31.0331 75.8191 31.1911C75.9983 31.3497 76.0878 31.5626 76.0878 31.83V31.8813Z" fill="#00364F"/>
<path d="M82.7562 31.8891C82.7562 31.652 82.6827 31.4641 82.5352 31.3252C82.3879 31.1867 82.1918 31.1172 81.9474 31.1172C81.7148 31.1172 81.5257 31.1896 81.3805 31.3352C81.2355 31.4801 81.1628 31.6712 81.1628 31.9081C81.1628 32.1398 81.2366 32.3241 81.3838 32.4612C81.5314 32.5981 81.728 32.6665 81.9741 32.6665C82.2123 32.6665 82.4027 32.5963 82.544 32.4556C82.6859 32.3151 82.7562 32.126 82.7562 31.8891ZM82.9609 32.7919H82.7562V32.4497C82.6614 32.5805 82.5485 32.6765 82.4175 32.7378C82.2863 32.7994 82.1297 32.8298 81.9474 32.8298C81.6541 32.8298 81.4159 32.7459 81.233 32.577C81.0497 32.4086 80.9583 32.1869 80.9583 31.9119C80.9583 31.6265 81.0491 31.396 81.2308 31.2189C81.4121 31.0424 81.6459 30.9534 81.932 30.9534C82.1509 30.9534 82.3209 30.9836 82.4416 31.043C82.5626 31.1027 82.6674 31.2002 82.7562 31.336V29.5793H82.9609V32.7919Z" fill="#00364F"/>
<path d="M85.6603 31.7156C85.6471 31.5372 85.5709 31.393 85.4326 31.2825C85.2941 31.1722 85.1164 31.1171 84.9003 31.1171C84.6987 31.1171 84.5264 31.1725 84.3835 31.2831C84.2408 31.3944 84.1595 31.5391 84.1404 31.7178L85.6603 31.7156ZM85.8804 31.8813H84.1269C84.1312 32.1334 84.2009 32.3276 84.3359 32.4632C84.4705 32.5986 84.6586 32.6664 84.9003 32.6664C85.0722 32.6664 85.2196 32.6341 85.3427 32.5694C85.4654 32.5049 85.5671 32.4067 85.6471 32.2749L85.8248 32.3527C85.7211 32.5164 85.5945 32.6364 85.445 32.714C85.2952 32.7912 85.1134 32.8301 84.9003 32.8301C84.595 32.8301 84.3557 32.7452 84.1825 32.5751C84.0091 32.4054 83.9224 32.174 83.9224 31.8813C83.9224 31.6102 84.0151 31.3877 84.2003 31.214C84.3854 31.0404 84.6187 30.9533 84.9003 30.9533C85.1952 30.9533 85.4319 31.0331 85.6115 31.1911C85.7907 31.3497 85.8804 31.5626 85.8804 31.83V31.8813Z" fill="#00364F"/>
<path d="M90.2791 30.9938L89.3322 32.8624L88.3811 30.9938H88.6099L89.3322 32.4651L90.0522 30.9938H90.2791Z" fill="#00364F"/>
<path d="M92.8029 31.8891C92.8029 31.6712 92.7181 31.4878 92.5484 31.3396C92.3788 31.1911 92.1698 31.1171 91.9208 31.1171C91.6718 31.1171 91.4619 31.1911 91.2907 31.3384C91.1193 31.4862 91.0337 31.6696 91.0337 31.8891C91.0337 32.1067 91.12 32.2908 91.2927 32.4412C91.4653 32.5913 91.6748 32.6664 91.9208 32.6664C92.1663 32.6664 92.3751 32.5913 92.5463 32.4412C92.7175 32.2908 92.8029 32.1067 92.8029 31.8891ZM93.0097 31.8854C93.0097 32.1474 92.903 32.3706 92.6897 32.5544C92.4763 32.7384 92.2171 32.8298 91.9117 32.8298C91.6124 32.8298 91.3572 32.7384 91.1462 32.5544C90.9349 32.3706 90.8293 32.1474 90.8293 31.8854C90.8293 31.6239 90.9342 31.4035 91.1439 31.2238C91.3537 31.0434 91.6094 30.9533 91.9117 30.9533C92.2214 30.9533 92.482 31.0433 92.693 31.2225C92.9041 31.402 93.0097 31.6226 93.0097 31.8854Z" fill="#00364F"/>
<path d="M95.0536 32.3206C95.0536 32.4762 94.9877 32.6002 94.8557 32.6922C94.7239 32.7839 94.5438 32.8298 94.3156 32.8298C94.1497 32.8298 94.0057 32.8003 93.8834 32.7409C93.7609 32.6811 93.6717 32.5969 93.6155 32.4879L93.8024 32.3984C93.8526 32.4909 93.922 32.5589 94.0101 32.6018C94.0981 32.6451 94.2113 32.6664 94.349 32.6664C94.4956 32.6664 94.6158 32.6364 94.709 32.577C94.8025 32.5176 94.849 32.4384 94.849 32.3395C94.849 32.2314 94.812 32.1514 94.738 32.0981C94.6639 32.0449 94.5172 31.9852 94.2978 31.9193C94.1217 31.8663 93.9864 31.7968 93.8924 31.7113C93.7983 31.6255 93.7511 31.5265 93.7511 31.4135C93.7511 31.2729 93.8048 31.161 93.9121 31.078C94.0196 30.995 94.1684 30.9533 94.3574 30.9533C94.4956 30.9533 94.6116 30.9791 94.706 31.0297C94.7998 31.0805 94.8767 31.1575 94.9358 31.2615L94.7492 31.347C94.7061 31.2674 94.6518 31.209 94.5869 31.1722C94.5216 31.1356 94.4393 31.1171 94.3399 31.1171C94.2243 31.1171 94.1319 31.1442 94.0623 31.1989C93.9926 31.2534 93.9579 31.325 93.9579 31.4135C93.9579 31.4923 93.9918 31.5606 94.0603 31.619C94.1281 31.6771 94.2318 31.7256 94.3711 31.7635C94.6213 31.8343 94.7979 31.9109 94.9 31.9925C95.0023 32.0743 95.0536 32.1837 95.0536 32.3206Z" fill="#00364F"/>
<path d="M99.6609 31.9081C99.6609 31.6712 99.5885 31.4801 99.4432 31.3351C99.2979 31.1896 99.1091 31.1172 98.8764 31.1172C98.6246 31.1172 98.4269 31.1858 98.2831 31.3223C98.1393 31.4594 98.0672 31.648 98.0672 31.8891C98.0672 32.126 98.1396 32.3151 98.2844 32.4554C98.4284 32.5963 98.62 32.6665 98.8585 32.6665C99.1029 32.6665 99.2979 32.5987 99.4432 32.462C99.5885 32.326 99.6609 32.1411 99.6609 31.9081ZM99.8654 31.9117C99.8654 32.1869 99.774 32.4086 99.5909 32.577C99.4078 32.7459 99.1696 32.8301 98.8764 32.8301C98.6941 32.8301 98.5374 32.7994 98.4064 32.7381C98.275 32.6765 98.1621 32.5805 98.0672 32.4497V32.7919H97.8628V29.5793H98.0672V31.336C98.149 31.2104 98.259 31.1154 98.3986 31.0503C98.5379 30.9857 98.7013 30.9534 98.8898 30.9534C99.177 30.9534 99.4116 31.0424 99.5929 31.2189C99.7748 31.3957 99.8654 31.6263 99.8654 31.9117Z" fill="#00364F"/>
<path d="M102.289 30.7332L102.189 30.8017L101.711 30.3547L101.234 30.8017L101.134 30.7332L101.711 30.1208L102.289 30.7332ZM102.509 31.8891C102.509 31.6518 102.436 31.4641 102.288 31.3252C102.141 31.1867 101.945 31.1172 101.7 31.1172C101.468 31.1172 101.279 31.1896 101.134 31.3351C100.989 31.4799 100.916 31.6712 100.916 31.9081C100.916 32.1398 100.989 32.3241 101.137 32.461C101.284 32.5981 101.481 32.6667 101.727 32.6667C101.966 32.6667 102.156 32.5963 102.297 32.4558C102.439 32.3147 102.509 32.126 102.509 31.8891ZM102.714 32.7919H102.509V32.4497C102.415 32.5807 102.302 32.6765 102.17 32.7378C102.04 32.7992 101.883 32.8298 101.7 32.8298C101.407 32.8298 101.169 32.7459 100.986 32.577C100.803 32.4085 100.711 32.1869 100.711 31.9117C100.711 31.6263 100.802 31.3957 100.984 31.2189C101.165 31.0422 101.399 30.9537 101.685 30.9537C101.892 30.9537 102.059 30.9831 102.186 31.0422C102.313 31.1011 102.42 31.199 102.509 31.3357V30.9938H102.714V32.7919Z" fill="#00364F"/>
<path d="M104.444 31.1571H104.057V32.7919H103.853V31.1571H103.562V30.9938H103.853V30.2215H104.057V30.9938H104.444V31.1571Z" fill="#00364F"/>
<path d="M105.519 32.7919H105.314V30.9938H105.519V32.7919ZM105.597 30.3394C105.597 30.3827 105.578 30.4194 105.542 30.4499C105.506 30.48 105.463 30.4951 105.414 30.4951C105.364 30.4951 105.321 30.48 105.285 30.4499C105.25 30.4194 105.232 30.3827 105.232 30.3394C105.232 30.2963 105.25 30.2597 105.285 30.2291C105.321 30.1989 105.364 30.1836 105.414 30.1836C105.463 30.1836 105.506 30.1989 105.542 30.2291C105.578 30.2597 105.597 30.2963 105.597 30.3394Z" fill="#00364F"/>
<path d="M109.296 32.7919H109.092V31.6744C109.092 31.4856 109.055 31.345 108.983 31.2543C108.91 31.163 108.798 31.1173 108.645 31.1173C108.456 31.1173 108.323 31.1679 108.248 31.2693C108.172 31.3707 108.134 31.5773 108.134 31.8891V32.7919H107.929V31.6744C107.929 31.4776 107.896 31.3358 107.827 31.2484C107.759 31.161 107.645 31.1173 107.485 31.1173C107.286 31.1173 107.144 31.1803 107.058 31.3064C106.973 31.4324 106.929 31.6392 106.929 31.9268V32.7919H106.725V30.9938H106.929V31.2655C106.976 31.1641 107.048 31.0867 107.148 31.0337C107.249 30.9804 107.373 30.9533 107.521 30.9533C107.651 30.9533 107.765 30.9817 107.863 31.0371C107.961 31.0931 108.032 31.1716 108.076 31.2733C108.125 31.165 108.199 31.0851 108.299 31.0324C108.398 30.9801 108.525 30.9533 108.681 30.9533C108.864 30.9533 109.013 31.0121 109.126 31.1287C109.24 31.2451 109.296 31.4035 109.296 31.604V32.7919Z" fill="#00364F"/>
<path d="M111.996 31.7156C111.982 31.5372 111.906 31.393 111.768 31.2825C111.629 31.1722 111.452 31.1171 111.236 31.1171C111.034 31.1171 110.862 31.1725 110.719 31.2831C110.576 31.3944 110.494 31.5391 110.476 31.7178L111.996 31.7156ZM112.216 31.8813H110.462C110.466 32.1334 110.536 32.3276 110.671 32.4632C110.806 32.5986 110.994 32.6664 111.236 32.6664C111.407 32.6664 111.555 32.6341 111.678 32.5694C111.801 32.5049 111.902 32.4067 111.982 32.2749L112.16 32.3527C112.056 32.5164 111.93 32.6364 111.78 32.714C111.63 32.7912 111.449 32.8301 111.236 32.8301C110.93 32.8301 110.691 32.7452 110.518 32.5751C110.344 32.4054 110.258 32.174 110.258 31.8813C110.258 31.6102 110.35 31.3877 110.536 31.214C110.721 31.0404 110.954 30.9533 111.236 30.9533C111.53 30.9533 111.767 31.0331 111.947 31.1911C112.126 31.3497 112.216 31.5626 112.216 31.83V31.8813Z" fill="#00364F"/>
<path d="M114.682 32.7919H114.477V31.6744C114.477 31.4791 114.437 31.3374 114.356 31.2492C114.275 31.1614 114.144 31.1173 113.961 31.1173C113.747 31.1173 113.589 31.1819 113.489 31.3108C113.389 31.4402 113.339 31.6456 113.339 31.9268V32.7919H113.135V30.9938H113.339V31.2941C113.406 31.1747 113.493 31.0886 113.599 31.0344C113.706 30.9807 113.842 30.9533 114.008 30.9533C114.216 30.9533 114.38 31.0114 114.5 31.1268C114.621 31.2422 114.682 31.4011 114.682 31.604V32.7919Z" fill="#00364F"/>
<path d="M116.381 31.1571H115.994V32.7919H115.79V31.1571H115.499V30.9938H115.79V30.2215H115.994V30.9938H116.381V31.1571Z" fill="#00364F"/>
<path d="M118.343 32.3206C118.343 32.4762 118.276 32.6002 118.145 32.6922C118.013 32.7839 117.833 32.8298 117.605 32.8298C117.439 32.8298 117.295 32.8003 117.172 32.7409C117.05 32.6811 116.961 32.5969 116.905 32.4879L117.091 32.3984C117.141 32.4909 117.211 32.5589 117.299 32.6018C117.387 32.6451 117.5 32.6664 117.638 32.6664C117.784 32.6664 117.905 32.6364 117.998 32.577C118.091 32.5176 118.138 32.4384 118.138 32.3395C118.138 32.2314 118.101 32.1514 118.027 32.0981C117.953 32.0449 117.806 31.9852 117.587 31.9193C117.41 31.8663 117.275 31.7968 117.181 31.7113C117.087 31.6255 117.04 31.5265 117.04 31.4135C117.04 31.2729 117.094 31.161 117.201 31.078C117.309 30.995 117.457 30.9533 117.647 30.9533C117.784 30.9533 117.901 30.9791 117.995 31.0297C118.089 31.0805 118.166 31.1575 118.225 31.2615L118.038 31.347C117.995 31.2674 117.941 31.209 117.876 31.1722C117.811 31.1356 117.728 31.1171 117.629 31.1171C117.514 31.1171 117.421 31.1442 117.351 31.1989C117.282 31.2534 117.247 31.325 117.247 31.4135C117.247 31.4923 117.281 31.5606 117.349 31.619C117.417 31.6771 117.521 31.7256 117.66 31.7635C117.911 31.8343 118.087 31.9109 118.189 31.9925C118.292 32.0743 118.343 32.1837 118.343 32.3206Z" fill="#00364F"/>
<path d="M78.253 32.3206C78.253 32.4762 78.187 32.6002 78.0552 32.6922C77.9234 32.7839 77.7435 32.8298 77.5151 32.8298C77.3493 32.8298 77.2051 32.8003 77.0828 32.7409C76.9604 32.6811 76.8712 32.5969 76.8149 32.4879L77.0019 32.3984C77.052 32.4909 77.1214 32.5589 77.2096 32.6018C77.2977 32.6451 77.4106 32.6664 77.5484 32.6664C77.695 32.6664 77.8152 32.6364 77.9084 32.577C78.002 32.5176 78.0487 32.4384 78.0487 32.3395C78.0487 32.2314 78.0115 32.1514 77.9377 32.0981C77.8635 32.0449 77.7165 31.9852 77.4973 31.9193C77.3209 31.8663 77.1857 31.7968 77.0919 31.7113C76.9977 31.6255 76.9507 31.5265 76.9507 31.4135C76.9507 31.2729 77.0044 31.161 77.1119 31.078C77.2193 30.995 77.3677 30.9533 77.5572 30.9533C77.695 30.9533 77.8111 30.9791 77.9051 31.0297C77.9991 31.0805 78.076 31.1575 78.1354 31.2615L77.9485 31.347C77.9054 31.2674 77.8516 31.209 77.7865 31.1722C77.7211 31.1356 77.6388 31.1171 77.5397 31.1171C77.4241 31.1171 77.3314 31.1442 77.2618 31.1989C77.1921 31.2534 77.1576 31.325 77.1576 31.4135C77.1576 31.4923 77.1913 31.5606 77.2597 31.619C77.3279 31.6771 77.4314 31.7256 77.5707 31.7635C77.821 31.8343 77.9975 31.9109 78.0995 31.9925C78.2021 32.0743 78.253 32.1837 78.253 32.3206Z" fill="#00364F"/>
</svg>
