<svg width="240" height="70" viewBox="0 0 240 70" fill="none" xmlns="http://www.w3.org/2000/svg">
<path d="M45.5864 64.8203H45.1711V62.5674C45.1711 62.1736 45.0892 61.8881 44.9249 61.7103C44.761 61.5332 44.4935 61.4443 44.1234 61.4443C43.6868 61.4443 43.3667 61.5746 43.1637 61.8345C42.9601 62.0953 42.8588 62.5093 42.8588 63.0763V64.8203H42.4435V61.1953H42.8588V61.8008C42.9943 61.5601 43.1705 61.3865 43.3873 61.2771C43.6039 61.169 43.881 61.1138 44.2182 61.1138C44.64 61.1138 44.9733 61.2309 45.2186 61.4635C45.4638 61.6962 45.5864 62.0164 45.5864 62.4255V64.8203Z" fill="white"/>
<path d="M51.1754 63.0002C51.1754 62.5221 51.0254 62.1435 50.7262 61.8633C50.4265 61.5842 50.0283 61.444 49.532 61.444C49.0586 61.444 48.6749 61.59 48.3797 61.8836C48.0851 62.1756 47.9373 62.5609 47.9373 63.0384C47.9373 63.5056 48.0873 63.8772 48.3864 64.1535C48.6865 64.4294 49.0863 64.5674 49.5862 64.5674C50.0705 64.5674 50.4565 64.4259 50.7446 64.1422C51.0318 63.8589 51.1754 63.4777 51.1754 63.0002ZM51.591 65.0083C51.591 65.6777 51.4303 66.167 51.108 66.476C50.7856 66.7857 50.278 66.9403 49.5862 66.9403C49.0621 66.9403 48.6452 66.8537 48.3348 66.6811C48.0247 66.5091 47.8214 66.2498 47.7256 65.9052H48.1722C48.2445 66.1455 48.3958 66.3226 48.6265 66.4378C48.8563 66.5534 49.1828 66.6105 49.6039 66.6105C50.1641 66.6105 50.5659 66.4901 50.8095 66.2498C51.0538 66.0098 51.1754 65.6228 51.1754 65.0889V64.1304C50.9828 64.3941 50.7533 64.5876 50.4868 64.7112C50.2206 64.8354 49.9018 64.8966 49.532 64.8966C48.9357 64.8966 48.452 64.7275 48.0796 64.3871C47.7082 64.0476 47.522 63.6006 47.522 63.0461C47.522 62.4708 47.7065 62.0061 48.0751 61.649C48.4439 61.2931 48.9189 61.1138 49.5 61.1138C49.9215 61.1138 50.2612 61.1741 50.5184 61.2931C50.7759 61.4115 50.9947 61.6082 51.1754 61.8852V61.1953H51.591V65.0083Z" fill="white"/>
<path d="M56.4575 59.6233L55.3916 60.8073L55.1525 60.6549L56.1596 59.4355L56.4575 59.6233ZM57.1396 62.6508C57.1125 62.2908 56.9583 62 56.6766 61.7777C56.3952 61.5553 56.0347 61.4443 55.5949 61.4443C55.1858 61.4443 54.8353 61.5556 54.5452 61.7789C54.2545 62.0032 54.0899 62.2949 54.0506 62.6556L57.1396 62.6508ZM57.5869 62.9848H54.0238C54.0325 63.4931 54.1738 63.8836 54.4478 64.158C54.7217 64.4307 55.1041 64.5674 55.5949 64.5674C55.9441 64.5674 56.2438 64.5023 56.4936 64.372C56.7437 64.2427 56.9499 64.0437 57.1125 63.778L57.4739 63.9353C57.2632 64.2651 57.0054 64.5077 56.7014 64.6637C56.3974 64.819 56.0286 64.8969 55.5949 64.8969C54.9747 64.8969 54.4884 64.7262 54.1367 64.3835C53.784 64.0421 53.6082 63.5752 53.6082 62.9848C53.6082 62.438 53.796 61.9898 54.1725 61.6394C54.5488 61.2893 55.0231 61.1141 55.5949 61.1141C56.1942 61.1141 56.6756 61.2745 57.0402 61.5935C57.4042 61.9131 57.5869 62.3424 57.5869 62.8815V62.9848Z" fill="white"/>
<path d="M62.6788 64.8203H62.2632V62.5674C62.2632 62.1736 62.1812 61.8881 62.017 61.7103C61.853 61.5332 61.5862 61.4443 61.2154 61.4443C60.7788 61.4443 60.459 61.5746 60.2561 61.8345C60.0528 62.0953 59.9508 62.5093 59.9508 63.0763V64.8203H59.5355V61.1953H59.9508V61.8008C60.0863 61.5601 60.2632 61.3865 60.4794 61.2771C60.6962 61.169 60.9737 61.1138 61.3106 61.1138C61.732 61.1138 62.0654 61.2309 62.3106 61.4635C62.5562 61.6962 62.6788 62.0164 62.6788 62.4255V64.8203Z" fill="white"/>
<path d="M65.5582 64.8203H65.1429V61.1953H65.5582V64.8203ZM65.7166 59.8762C65.7166 59.9634 65.6792 60.0372 65.6059 60.0988C65.5317 60.1595 65.4452 60.19 65.3462 60.19C65.2435 60.19 65.1561 60.1595 65.0841 60.0988C65.0122 60.0372 64.9757 59.9634 64.9757 59.8762C64.9757 59.7892 65.0122 59.7154 65.0841 59.6538C65.1561 59.5928 65.2435 59.562 65.3462 59.562C65.4452 59.562 65.5317 59.5928 65.6059 59.6538C65.6792 59.7154 65.7166 59.7892 65.7166 59.8762Z" fill="white"/>
<path d="M71.089 62.6505C71.0616 62.2908 70.9073 62 70.6259 61.7774C70.3449 61.555 69.9832 61.444 69.5443 61.444C69.1348 61.444 68.7847 61.5556 68.4943 61.7786C68.2042 62.0029 68.0387 62.2946 67.9999 62.655L71.089 62.6505ZM71.5359 62.9845H67.9728C67.9819 63.4928 68.1235 63.8843 68.3968 64.1577C68.6708 64.4307 69.0535 64.5674 69.5443 64.5674C69.8931 64.5674 70.1929 64.5023 70.4433 64.3717C70.6931 64.2417 70.8989 64.0437 71.0616 63.778L71.4233 63.935C71.2123 64.2648 70.9544 64.5068 70.6508 64.6634C70.3468 64.819 69.9777 64.8973 69.5443 64.8973C68.9241 64.8973 68.4378 64.7263 68.0858 64.3832C67.7331 64.0412 67.5569 63.5746 67.5569 62.9845C67.5569 62.438 67.7453 61.9895 68.1216 61.6394C68.4978 61.2893 68.9722 61.1138 69.5443 61.1138C70.1435 61.1138 70.625 61.2745 70.9893 61.5932C71.3536 61.9128 71.5359 62.3421 71.5359 62.8812V62.9845Z" fill="white"/>
<path d="M75.3364 61.1953L75.1964 61.5245C75.1544 61.4985 75.1018 61.4786 75.0383 61.4651C74.975 61.4513 74.9105 61.444 74.8443 61.444C74.5007 61.444 74.2483 61.5912 74.088 61.8868C73.9263 62.1817 73.846 62.636 73.846 63.2489V64.8203H73.4307V61.1953H73.846V61.7738C73.9457 61.5405 74.0809 61.373 74.2525 61.2694C74.4242 61.1658 74.6498 61.1138 74.9295 61.1138C75.005 61.1138 75.078 61.1218 75.1493 61.1356C75.2196 61.1491 75.2822 61.1696 75.3364 61.1953Z" fill="white"/>
<path d="M77.2813 64.8203H76.8656V61.1953H77.2813V64.8203ZM77.4391 59.8762C77.4391 59.9634 77.4019 60.0372 77.3281 60.0988C77.2548 60.1595 77.168 60.19 77.0686 60.19C76.966 60.19 76.8789 60.1595 76.8066 60.0988C76.7346 60.0372 76.6985 59.9634 76.6985 59.8762C76.6985 59.7892 76.7346 59.7154 76.8066 59.6538C76.8789 59.5928 76.966 59.562 77.0686 59.562C77.168 59.562 77.2548 59.5928 77.3281 59.6538C77.4019 59.7154 77.4391 59.7892 77.4391 59.8762Z" fill="white"/>
<path d="M82.8118 62.6505C82.784 62.2908 82.6301 62 82.349 61.7774C82.0673 61.555 81.7059 61.444 81.2674 61.444C80.8576 61.444 80.5075 61.5556 80.2171 61.7786C79.9266 62.0029 79.7614 62.2946 79.7224 62.655L82.8118 62.6505ZM83.2587 62.9845H79.6953C79.7046 63.4928 79.8463 63.8843 80.1199 64.1577C80.3936 64.4307 80.7763 64.5674 81.2674 64.5674C81.6162 64.5674 81.9157 64.5023 82.1658 64.3717C82.4155 64.2417 82.622 64.0437 82.784 63.778L83.1454 63.935C82.9347 64.2648 82.6772 64.5068 82.3736 64.6634C82.069 64.819 81.7004 64.8973 81.2674 64.8973C80.6466 64.8973 80.1612 64.7263 79.8082 64.3832C79.4562 64.0412 79.2797 63.5746 79.2797 62.9845C79.2797 62.438 79.4678 61.9895 79.8444 61.6394C80.2209 61.2893 80.6946 61.1138 81.2674 61.1138C81.8663 61.1138 82.3481 61.2745 82.7121 61.5932C83.0764 61.9128 83.2587 62.3421 83.2587 62.8812V62.9845Z" fill="white"/>
<path d="M91.1754 60.7419C91.1754 60.55 91.1015 60.3947 90.9547 60.2734C90.8082 60.153 90.6165 60.093 90.3803 60.093C90.1345 60.093 89.9392 60.1508 89.7947 60.2673C89.6507 60.3834 89.5785 60.5368 89.5785 60.7287C89.5785 60.8407 89.6133 60.9597 89.6837 61.0874C89.754 61.2155 89.8634 61.3605 90.0115 61.5226L90.2829 61.8097C90.6114 61.6179 90.8424 61.4449 90.9757 61.2902C91.1083 61.1362 91.1754 60.953 91.1754 60.7419ZM91.755 63.8647L90.1806 62.1775C89.6559 62.4711 89.3 62.7117 89.1135 62.8998C88.926 63.0872 88.8327 63.3195 88.8327 63.5964C88.8327 63.8948 88.955 64.1381 89.2 64.3267C89.4446 64.5154 89.7566 64.6101 90.1357 64.6101C90.4068 64.6101 90.6779 64.5478 90.9496 64.4227C91.2206 64.2979 91.4894 64.1124 91.755 63.8647ZM93.0961 64.8206H92.6482L91.9621 64.0887C91.6714 64.355 91.3713 64.5539 91.0641 64.6868C90.7566 64.8187 90.4381 64.8844 90.1093 64.8844C89.6224 64.8844 89.2251 64.7603 88.9192 64.5103C88.613 64.2616 88.4597 63.9417 88.4597 63.5515C88.4597 63.2746 88.5762 63.0153 88.8098 62.7737C89.0431 62.5311 89.4368 62.2644 89.9886 61.9721L89.6801 61.6403C89.5143 61.4571 89.3981 61.2941 89.3316 61.1513C89.2648 61.0082 89.2316 60.8635 89.2316 60.7165C89.2316 60.4499 89.3345 60.2336 89.5407 60.0674C89.7466 59.9011 90.0264 59.8184 90.3803 59.8184C90.7146 59.8184 90.988 59.9056 91.2016 60.0805C91.4152 60.2554 91.522 60.4755 91.522 60.7419C91.522 60.9832 91.4413 61.202 91.281 61.399C91.1199 61.596 90.8511 61.8004 90.4746 62.0106L91.9854 63.6346C92.1083 63.505 92.2267 63.3654 92.341 63.2162C92.4552 63.067 92.5649 62.9104 92.6708 62.7467L92.9496 62.8837C92.8211 63.0814 92.6953 63.2617 92.571 63.4241C92.4468 63.5852 92.3229 63.7312 92.1996 63.8586L93.0961 64.8206Z" fill="white"/>
<path d="M102.065 62.9768C102.065 62.5093 101.916 62.1371 101.616 61.8598C101.316 61.5829 100.917 61.4443 100.417 61.4443C99.9209 61.4443 99.5317 61.5755 99.25 61.839C98.9686 62.1014 98.8276 62.4669 98.8276 62.9345C98.8276 63.4251 98.9806 63.8204 99.2861 64.1191C99.5917 64.4179 99.9873 64.5674 100.472 64.5674C100.944 64.5674 101.328 64.4217 101.623 64.1307C101.918 63.8393 102.065 63.4546 102.065 62.9768ZM102.482 62.9697C102.482 63.5444 102.297 64.0097 101.928 64.3646C101.559 64.7198 101.083 64.8966 100.499 64.8966C100.113 64.8966 99.7847 64.8315 99.512 64.6999C99.2397 64.5684 99.0115 64.3659 98.8276 64.0928V66.8595H98.412V61.1953H98.8276V61.8467C99.0025 61.6034 99.2277 61.4209 99.5033 61.2976C99.7786 61.1754 100.101 61.1138 100.472 61.1138C101.067 61.1138 101.551 61.2851 101.924 61.6259C102.296 61.967 102.482 62.4149 102.482 62.9697Z" fill="white"/>
<path d="M107.687 62.6505C107.659 62.2908 107.505 62 107.224 61.7774C106.942 61.555 106.581 61.444 106.142 61.444C105.732 61.444 105.383 61.5556 105.092 61.7786C104.802 62.0029 104.636 62.2946 104.597 62.655L107.687 62.6505ZM108.133 62.9845H104.57C104.579 63.4928 104.721 63.8843 104.995 64.1577C105.268 64.4307 105.651 64.5674 106.142 64.5674C106.491 64.5674 106.79 64.5023 107.041 64.3717C107.291 64.2417 107.497 64.0437 107.659 63.778L108.021 63.935C107.809 64.2648 107.552 64.5068 107.249 64.6634C106.944 64.819 106.576 64.8973 106.142 64.8973C105.522 64.8973 105.036 64.7263 104.683 64.3832C104.331 64.0412 104.154 63.5746 104.154 62.9845C104.154 62.438 104.343 61.9895 104.719 61.6394C105.096 61.2893 105.57 61.1138 106.142 61.1138C106.741 61.1138 107.223 61.2745 107.586 61.5932C107.951 61.9128 108.133 62.3421 108.133 62.8812V62.9845Z" fill="white"/>
<path d="M111.934 61.1953L111.794 61.5245C111.752 61.4985 111.7 61.4786 111.636 61.4651C111.573 61.4513 111.508 61.444 111.442 61.444C111.098 61.444 110.846 61.5912 110.685 61.8868C110.524 62.1817 110.444 62.636 110.444 63.2489V64.8203H110.028V61.1953H110.444V61.7738C110.543 61.5405 110.679 61.373 110.85 61.2694C111.022 61.1658 111.248 61.1138 111.528 61.1138C111.603 61.1138 111.676 61.1218 111.747 61.1356C111.818 61.1491 111.88 61.1696 111.934 61.1953Z" fill="white"/>
<path d="M115.156 58.6879C115.082 58.6578 115.015 58.6347 114.956 58.6189C114.897 58.6035 114.842 58.5965 114.791 58.5965C114.535 58.5965 114.36 58.6696 114.265 58.8163C114.17 58.9636 114.122 59.2546 114.122 59.6884V61.1953H115.021V61.5248H114.122V64.8203H113.707V61.5248H113.079V61.1953H113.707V59.7119C113.707 59.1956 113.787 58.8256 113.946 58.6016C114.106 58.3783 114.374 58.2666 114.75 58.2666C114.828 58.2666 114.899 58.2717 114.96 58.2817C115.022 58.2923 115.089 58.3099 115.162 58.3349L115.156 58.6879Z" fill="white"/>
<path d="M120.195 63.0002C120.195 62.5609 120.022 62.1913 119.678 61.8925C119.332 61.5932 118.908 61.444 118.402 61.444C117.896 61.444 117.469 61.5932 117.122 61.89C116.774 62.1881 116.6 62.5577 116.6 63.0002C116.6 63.4389 116.775 63.8101 117.126 64.1134C117.477 64.416 117.902 64.5674 118.402 64.5674C118.902 64.5674 119.325 64.416 119.674 64.1134C120.021 63.8101 120.195 63.4389 120.195 63.0002ZM120.615 62.9929C120.615 63.521 120.398 63.9709 119.964 64.3415C119.531 64.7125 119.004 64.8966 118.384 64.8966C117.776 64.8966 117.257 64.7125 116.828 64.3415C116.399 63.9709 116.184 63.521 116.184 62.9929C116.184 62.4656 116.397 62.0212 116.824 61.6589C117.25 61.2954 117.769 61.1138 118.384 61.1138C119.013 61.1138 119.543 61.2951 119.971 61.6564C120.401 62.0183 120.615 62.4631 120.615 62.9929Z" fill="white"/>
<path d="M124.425 61.1953L124.284 61.5245C124.243 61.4985 124.19 61.4786 124.127 61.4651C124.064 61.4513 123.999 61.444 123.932 61.444C123.589 61.444 123.337 61.5912 123.176 61.8868C123.014 62.1817 122.934 62.636 122.934 63.2489V64.8203H122.519V61.1953H122.934V61.7738C123.034 61.5405 123.169 61.373 123.341 61.2694C123.512 61.1658 123.738 61.1138 124.018 61.1138C124.093 61.1138 124.166 61.1218 124.237 61.1356C124.308 61.1491 124.37 61.1696 124.425 61.1953Z" fill="white"/>
<path d="M131.085 64.8203H130.668V62.5674C130.668 62.1868 130.594 61.9035 130.447 61.7206C130.299 61.5364 130.071 61.4443 129.761 61.4443C129.375 61.4443 129.106 61.5463 128.953 61.7507C128.799 61.9551 128.722 62.3716 128.722 63.0002V64.8203H128.307V62.5674C128.307 62.1708 128.237 61.8848 128.099 61.7087C127.96 61.5325 127.728 61.4443 127.404 61.4443C127 61.4443 126.711 61.5713 126.537 61.8255C126.362 62.0796 126.275 62.4964 126.275 63.0763V64.8203H125.859V61.1953H126.275V61.743C126.367 61.5386 126.516 61.3827 126.72 61.2758C126.923 61.1683 127.175 61.1138 127.475 61.1138C127.74 61.1138 127.973 61.1709 128.171 61.2826C128.37 61.3955 128.514 61.5537 128.605 61.7587C128.704 61.5405 128.855 61.3795 129.056 61.2732C129.258 61.1677 129.517 61.1138 129.833 61.1138C130.206 61.1138 130.508 61.2322 130.739 61.4674C130.969 61.7019 131.085 62.0212 131.085 62.4255V64.8203Z" fill="white"/>
<path d="M136.718 63.0002C136.718 62.5221 136.568 62.1435 136.269 61.8633C135.969 61.5842 135.571 61.444 135.074 61.444C134.601 61.444 134.218 61.59 133.923 61.8836C133.628 62.1756 133.48 62.5609 133.48 63.0384C133.48 63.5056 133.63 63.8772 133.929 64.1535C134.229 64.4294 134.628 64.5674 135.128 64.5674C135.613 64.5674 135.999 64.4259 136.287 64.1422C136.575 63.8589 136.718 63.4777 136.718 63.0002ZM137.134 64.8203H136.718V64.1304C136.525 64.3941 136.295 64.5876 136.029 64.7112C135.763 64.8354 135.445 64.8966 135.074 64.8966C134.478 64.8966 133.994 64.7275 133.622 64.3871C133.251 64.0476 133.064 63.6006 133.064 63.0461C133.064 62.4708 133.249 62.0061 133.618 61.649C133.987 61.2931 134.461 61.1138 135.043 61.1138C135.464 61.1138 135.803 61.1741 136.06 61.2931C136.318 61.4115 136.537 61.6082 136.718 61.8852V61.1953H137.134V64.8203Z" fill="white"/>
<path d="M142.556 64.8203H142.14V62.5674C142.14 62.1736 142.058 61.8881 141.894 61.7103C141.73 61.5332 141.463 61.4443 141.092 61.4443C140.655 61.4443 140.336 61.5746 140.132 61.8345C139.93 62.0953 139.828 62.5093 139.828 63.0763V64.8203H139.412V61.1953H139.828V61.8008C139.963 61.5601 140.139 61.3865 140.356 61.2771C140.573 61.169 140.85 61.1138 141.187 61.1138C141.609 61.1138 141.942 61.2309 142.187 61.4635C142.433 61.6962 142.556 62.0164 142.556 62.4255V64.8203Z" fill="white"/>
<path d="M148.099 64.6329C147.895 64.7221 147.672 64.7882 147.431 64.8321C147.19 64.8758 146.932 64.8966 146.654 64.8966C146.016 64.8966 145.493 64.7227 145.085 64.3736C144.677 64.0254 144.472 63.5775 144.472 63.0304C144.472 62.4605 144.686 62 145.112 61.6448C145.538 61.2912 146.093 61.1138 146.776 61.1138C147.005 61.1138 147.221 61.1369 147.427 61.1815C147.631 61.2267 147.832 61.2938 148.026 61.3827V61.743C147.832 61.6455 147.627 61.572 147.415 61.521C147.203 61.4693 146.987 61.444 146.767 61.444C146.188 61.444 145.732 61.589 145.394 61.8791C145.056 62.1685 144.888 62.5635 144.888 63.0612C144.888 63.5008 145.064 63.8621 145.415 64.1442C145.765 64.4266 146.216 64.5674 146.767 64.5674C147.023 64.5674 147.261 64.5427 147.48 64.4927C147.701 64.4432 147.906 64.3672 148.099 64.2651V64.6329Z" fill="white"/>
<path d="M153.26 62.6505C153.232 62.2908 153.078 62 152.796 61.7774C152.515 61.555 152.154 61.444 151.715 61.444C151.305 61.444 150.955 61.5556 150.665 61.7786C150.374 62.0029 150.209 62.2946 150.17 62.655L153.26 62.6505ZM153.706 62.9845H150.144C150.152 63.4928 150.294 63.8843 150.567 64.1577C150.841 64.4307 151.224 64.5674 151.715 64.5674C152.064 64.5674 152.364 64.5023 152.613 64.3717C152.863 64.2417 153.07 64.0437 153.232 63.778L153.593 63.935C153.383 64.2648 153.125 64.5068 152.821 64.6634C152.517 64.819 152.148 64.8973 151.715 64.8973C151.094 64.8973 150.608 64.7263 150.256 64.3832C149.904 64.0412 149.728 63.5746 149.728 62.9845C149.728 62.438 149.916 61.9895 150.292 61.6394C150.668 61.2893 151.142 61.1138 151.715 61.1138C152.313 61.1138 152.796 61.2745 153.16 61.5932C153.524 61.9128 153.706 62.3421 153.706 62.8812V62.9845Z" fill="white"/>
<path d="M167.256 63.0004C167.256 62.5223 167.107 62.1436 166.807 61.8635C166.508 61.5843 166.11 61.4441 165.613 61.4441C165.14 61.4441 164.756 61.5901 164.461 61.8837C164.166 62.1757 164.019 62.5611 164.019 63.0386C164.019 63.5058 164.169 63.8774 164.468 64.1536C164.768 64.4296 165.167 64.5676 165.667 64.5676C166.151 64.5676 166.538 64.4261 166.825 64.1424C167.114 63.8591 167.256 63.4779 167.256 63.0004ZM167.672 64.8204H167.256V64.1305C167.064 64.3943 166.834 64.5878 166.568 64.7113C166.302 64.8355 165.983 64.8968 165.613 64.8968C165.017 64.8968 164.533 64.7277 164.161 64.3872C163.789 64.0477 163.603 63.6008 163.603 63.0463C163.603 62.4709 163.788 62.0063 164.157 61.6491C164.525 61.2933 165 61.1139 165.582 61.1139C166.026 61.1139 166.372 61.1749 166.617 61.2946C166.863 61.4149 167.076 61.6116 167.256 61.8853V58.3438H167.672V64.8204Z" fill="white"/>
<path d="M173.157 62.6505C173.131 62.2908 172.976 62 172.695 61.7774C172.413 61.555 172.052 61.444 171.613 61.444C171.204 61.444 170.853 61.5556 170.563 61.7786C170.273 62.0029 170.108 62.2946 170.069 62.655L173.157 62.6505ZM173.605 62.9845H170.042C170.05 63.4928 170.192 63.8843 170.466 64.1577C170.74 64.4307 171.122 64.5674 171.613 64.5674C171.963 64.5674 172.262 64.5023 172.512 64.3717C172.762 64.2417 172.968 64.0437 173.131 63.778L173.492 63.935C173.281 64.2648 173.024 64.5068 172.72 64.6634C172.416 64.819 172.046 64.8973 171.613 64.8973C170.993 64.8973 170.507 64.7263 170.155 64.3832C169.802 64.0412 169.626 63.5746 169.626 62.9845C169.626 62.438 169.814 61.9895 170.191 61.6394C170.567 61.2893 171.041 61.1138 171.613 61.1138C172.212 61.1138 172.693 61.2745 173.058 61.5932C173.422 61.9128 173.605 62.3421 173.605 62.8812V62.9845Z" fill="white"/>
<path d="M182.543 61.1953L180.619 64.9625L178.686 61.1953H179.151L180.619 64.1615L182.082 61.1953H182.543Z" fill="white"/>
<path d="M187.671 63.0002C187.671 62.5609 187.499 62.1913 187.154 61.8925C186.809 61.5932 186.385 61.444 185.879 61.444C185.373 61.444 184.946 61.5932 184.598 61.89C184.25 62.1881 184.076 62.5577 184.076 63.0002C184.076 63.4389 184.251 63.8101 184.602 64.1134C184.953 64.416 185.379 64.5674 185.879 64.5674C186.378 64.5674 186.802 64.416 187.15 64.1134C187.498 63.8101 187.671 63.4389 187.671 63.0002ZM188.091 62.9929C188.091 63.521 187.875 63.9709 187.441 64.3415C187.007 64.7125 186.481 64.8966 185.86 64.8966C185.252 64.8966 184.733 64.7125 184.305 64.3415C183.875 63.9709 183.661 63.521 183.661 62.9929C183.661 62.4656 183.874 62.0212 184.3 61.6589C184.726 61.2954 185.246 61.1138 185.86 61.1138C186.49 61.1138 187.019 61.2951 187.448 61.6564C187.877 62.0183 188.091 62.4631 188.091 62.9929Z" fill="white"/>
<path d="M192.245 63.8701C192.245 64.184 192.111 64.4339 191.842 64.6194C191.575 64.8042 191.209 64.8966 190.745 64.8966C190.408 64.8966 190.115 64.8373 189.867 64.7176C189.618 64.5969 189.436 64.4272 189.322 64.2074L189.702 64.0271C189.804 64.2135 189.945 64.3505 190.124 64.4371C190.303 64.5244 190.533 64.5674 190.813 64.5674C191.111 64.5674 191.355 64.5068 191.544 64.3871C191.734 64.2674 191.829 64.1076 191.829 63.9083C191.829 63.6904 191.754 63.529 191.603 63.4215C191.453 63.3144 191.154 63.194 190.709 63.0612C190.351 62.9543 190.076 62.8141 189.885 62.6418C189.694 62.4689 189.598 62.2693 189.598 62.0414C189.598 61.7581 189.707 61.5325 189.925 61.365C190.143 61.1978 190.446 61.1138 190.83 61.1138C191.111 61.1138 191.346 61.1658 191.538 61.2678C191.729 61.3702 191.885 61.5255 192.005 61.735L191.626 61.9073C191.538 61.7469 191.428 61.6291 191.296 61.555C191.164 61.4812 190.996 61.444 190.794 61.444C190.559 61.444 190.372 61.4985 190.23 61.6089C190.089 61.7186 190.018 61.863 190.018 62.0414C190.018 62.2003 190.087 62.3379 190.226 62.4557C190.364 62.5728 190.575 62.6707 190.858 62.7471C191.366 62.8898 191.725 63.0442 191.932 63.2088C192.14 63.3737 192.245 63.5942 192.245 63.8701Z" fill="white"/>
<path d="M201.607 63.0386C201.607 62.5611 201.459 62.1757 201.164 61.8834C200.869 61.5901 200.485 61.4441 200.013 61.4441C199.501 61.4441 199.099 61.5824 198.807 61.8577C198.515 62.134 198.368 62.5142 198.368 63.0004C198.368 63.4779 198.515 63.8591 198.81 64.1421C199.102 64.4261 199.491 64.5676 199.976 64.5676C200.473 64.5676 200.869 64.4309 201.164 64.1552C201.459 63.8812 201.607 63.5083 201.607 63.0386ZM202.022 63.0459C202.022 63.6008 201.836 64.0477 201.464 64.3872C201.092 64.7277 200.608 64.8974 200.013 64.8974C199.642 64.8974 199.324 64.8355 199.057 64.712C198.791 64.5878 198.561 64.3943 198.368 64.1305V64.8204H197.953V58.3438H198.368V61.8853C198.534 61.6321 198.758 61.4406 199.042 61.3093C199.325 61.1791 199.657 61.1139 200.04 61.1139C200.623 61.1139 201.1 61.2933 201.469 61.6492C201.838 62.0057 202.022 62.4706 202.022 63.0459Z" fill="white"/>
<path d="M206.948 60.6703L206.744 60.8083L205.773 59.9072L204.803 60.8083L204.6 60.6703L205.773 59.4355L206.948 60.6703ZM207.395 63.0005C207.395 62.5221 207.245 62.1438 206.945 61.8637C206.645 61.5845 206.248 61.4443 205.751 61.4443C205.278 61.4443 204.895 61.5903 204.6 61.8836C204.305 62.1756 204.157 62.5613 204.157 63.0387C204.157 63.5059 204.306 63.8775 204.606 64.1535C204.905 64.4297 205.305 64.568 205.805 64.568C206.29 64.568 206.676 64.4262 206.964 64.1429C207.251 63.8586 207.395 63.478 207.395 63.0005ZM207.81 64.8206H207.395V64.1307C207.202 64.3948 206.973 64.5879 206.706 64.7115C206.44 64.8353 206.121 64.897 205.751 64.897C205.154 64.897 204.671 64.7278 204.299 64.3874C203.927 64.0476 203.741 63.6009 203.741 63.0461C203.741 62.4708 203.926 62.0058 204.294 61.6493C204.663 61.2931 205.139 61.1147 205.719 61.1147C206.141 61.1147 206.48 61.1741 206.738 61.2931C206.995 61.4119 207.214 61.6092 207.395 61.8848V61.1956H207.81V64.8206Z" fill="white"/>
<path d="M211.326 61.5248H210.541V64.8206H210.125V61.5248H209.533V61.1956H210.125V59.6387H210.541V61.1956H211.326V61.5248Z" fill="white"/>
<path d="M213.51 64.8203H213.095V61.1953H213.51V64.8203ZM213.668 59.8762C213.668 59.9634 213.631 60.0372 213.557 60.0988C213.484 60.1595 213.397 60.19 213.298 60.19C213.196 60.19 213.108 60.1595 213.036 60.0988C212.965 60.0372 212.928 59.9634 212.928 59.8762C212.928 59.7892 212.965 59.7154 213.036 59.6538C213.108 59.5928 213.196 59.562 213.298 59.562C213.397 59.562 213.484 59.5928 213.557 59.6538C213.631 59.7154 213.668 59.7892 213.668 59.8762Z" fill="white"/>
<path d="M221.186 64.8203H220.77V62.5674C220.77 62.1868 220.696 61.9035 220.55 61.7206C220.401 61.5364 220.173 61.4443 219.863 61.4443C219.477 61.4443 219.208 61.5463 219.055 61.7507C218.901 61.9551 218.824 62.3716 218.824 63.0002V64.8203H218.408V62.5674C218.408 62.1708 218.339 61.8848 218.201 61.7087C218.062 61.5325 217.831 61.4443 217.505 61.4443C217.102 61.4443 216.813 61.5713 216.638 61.8255C216.464 62.0796 216.376 62.4964 216.376 63.0763V64.8203H215.961V61.1953H216.376V61.743C216.47 61.5386 216.618 61.3827 216.821 61.2758C217.025 61.1683 217.277 61.1138 217.578 61.1138C217.843 61.1138 218.074 61.1709 218.273 61.2826C218.471 61.3955 218.616 61.5537 218.706 61.7587C218.806 61.5405 218.957 61.3795 219.158 61.2732C219.36 61.1677 219.619 61.1138 219.935 61.1138C220.308 61.1138 220.61 61.2322 220.841 61.4674C221.071 61.7019 221.186 62.0212 221.186 62.4255V64.8203Z" fill="white"/>
<path d="M226.671 62.6505C226.644 62.2908 226.489 62 226.208 61.7774C225.926 61.555 225.566 61.444 225.126 61.444C224.717 61.444 224.366 61.5556 224.076 61.7786C223.786 62.0029 223.62 62.2946 223.582 62.655L226.671 62.6505ZM227.118 62.9845H223.555C223.564 63.4928 223.706 63.8843 223.979 64.1577C224.253 64.4307 224.636 64.5674 225.126 64.5674C225.476 64.5674 225.775 64.5023 226.025 64.3717C226.275 64.2417 226.481 64.0437 226.644 63.778L227.005 63.935C226.794 64.2648 226.537 64.5068 226.233 64.6634C225.929 64.819 225.56 64.8973 225.126 64.8973C224.506 64.8973 224.02 64.7263 223.668 64.3832C223.316 64.0412 223.14 63.5746 223.14 62.9845C223.14 62.438 223.327 61.9895 223.704 61.6394C224.08 61.2893 224.554 61.1138 225.126 61.1138C225.725 61.1138 226.207 61.2745 226.572 61.5932C226.936 61.9128 227.118 62.3421 227.118 62.8812V62.9845Z" fill="white"/>
<path d="M232.129 64.8203H231.713V62.5674C231.713 62.1736 231.631 61.8881 231.467 61.7103C231.303 61.5332 231.036 61.4443 230.665 61.4443C230.229 61.4443 229.909 61.5746 229.706 61.8345C229.503 62.0953 229.401 62.5093 229.401 63.0763V64.8203H228.986V61.1953H229.401V61.8008C229.537 61.5601 229.713 61.3865 229.929 61.2771C230.147 61.169 230.423 61.1138 230.76 61.1138C231.182 61.1138 231.516 61.2309 231.761 61.4635C232.006 61.6962 232.129 62.0164 232.129 62.4255V64.8203Z" fill="white"/>
<path d="M235.582 61.5248H234.796V64.8206H234.38V61.5248H233.789V61.1956H234.38V59.6387H234.796V61.1956H235.582V61.5248Z" fill="white"/>
<path d="M239.568 63.8701C239.568 64.184 239.433 64.4339 239.166 64.6194C238.898 64.8042 238.532 64.8966 238.068 64.8966C237.732 64.8966 237.438 64.8373 237.19 64.7176C236.941 64.5969 236.76 64.4272 236.646 64.2074L237.026 64.0271C237.127 64.2135 237.269 64.3505 237.448 64.4371C237.626 64.5244 237.856 64.5674 238.136 64.5674C238.434 64.5674 238.678 64.5068 238.868 64.3871C239.057 64.2674 239.152 64.1076 239.152 63.9083C239.152 63.6904 239.077 63.529 238.927 63.4215C238.776 63.3144 238.478 63.194 238.032 63.0612C237.674 62.9543 237.399 62.8141 237.209 62.6418C237.017 62.4689 236.922 62.2693 236.922 62.0414C236.922 61.7581 237.03 61.5325 237.249 61.365C237.467 61.1978 237.769 61.1138 238.154 61.1138C238.434 61.1138 238.67 61.1658 238.861 61.2678C239.052 61.3702 239.208 61.5255 239.329 61.735L238.949 61.9073C238.862 61.7469 238.752 61.6291 238.62 61.555C238.487 61.4812 238.32 61.444 238.118 61.444C237.884 61.444 237.695 61.4985 237.554 61.6089C237.412 61.7186 237.342 61.863 237.342 62.0414C237.342 62.2003 237.411 62.3379 237.55 62.4557C237.688 62.5728 237.898 62.6707 238.181 62.7471C238.69 62.8898 239.049 63.0442 239.256 63.2088C239.464 63.3737 239.568 63.5942 239.568 63.8701Z" fill="white"/>
<path d="M31.4027 0.00732422L-4.93399e-05 65.8917L12.9617 58.0249L31.3759 19.2947L31.4027 0.00732422Z" fill="white"/>
<path d="M55.0366 50.3323L31.3812 0.0078125V19.3043L46.0889 50.331" fill="white"/>
<path d="M12.9795 58.0288L0.000488281 65.8821L31.3855 65.8817L36.2848 61.9551L31.3855 58.0288H12.9795Z" fill="white"/>
<path d="M189.53 15.3608H170.459V18.5998H189.53V15.3608Z" fill="white"/>
<path d="M234.896 20.3772C231.5 17.0339 227.282 15.3608 222.242 15.3608C219.133 15.3608 216.243 16.1294 213.571 17.6673C210.901 19.2044 208.792 21.3289 207.245 24.0436C205.816 26.5497 205.056 29.2579 204.947 32.1612H208.385C208.486 29.7854 209.095 27.6134 210.22 25.6454C211.459 23.4862 213.181 21.7666 215.387 20.4914C217.593 19.2156 219.927 18.5774 222.389 18.5774C224.896 18.5774 227.268 19.2156 229.503 20.4914C231.739 21.7666 233.473 23.4666 234.703 25.5902C235.935 27.7145 236.55 30.0899 236.55 32.716C236.55 35.3582 235.935 37.759 234.703 39.9198C233.473 42.0822 231.758 43.7848 229.56 45.0315C227.362 46.2771 224.972 46.8993 222.389 46.8993C218.521 46.8993 215.217 45.5462 212.476 42.8354C210.336 40.7207 209.043 38.2288 208.574 35.3691H205.108C205.606 39.0775 207.23 42.3197 210.018 45.0774C213.413 48.437 217.579 50.1165 222.514 50.1165C227.388 50.1165 231.519 48.429 234.907 45.0552C238.295 41.6808 239.989 37.5716 239.989 32.7273C239.989 27.8377 238.291 23.722 234.896 20.3772Z" fill="white"/>
<path d="M138.325 46.9902C134.087 46.9902 130.577 45.6399 127.795 42.9413C125.617 40.8273 124.303 38.3001 123.83 35.3691H120.317C120.787 38.7756 122.12 41.7691 124.344 44.3352C127.708 48.1893 132.3 50.1165 138.122 50.1165C141.182 50.1165 143.954 49.5434 146.435 48.396C148.915 47.2485 150.986 45.6264 152.645 43.525L150.022 41.5455C146.883 45.1756 142.985 46.9902 138.325 46.9902Z" fill="white"/>
<path d="M146.492 17.195C143.987 15.9728 141.182 15.3608 138.075 15.3608C132.932 15.3608 128.654 17.014 125.239 20.3217C121.914 23.5375 120.221 27.4892 120.131 32.1612H123.641C123.738 29.7626 124.349 27.5845 125.486 25.6307C126.731 23.4929 128.484 21.791 130.746 20.5238C133.008 19.256 135.466 18.6229 138.122 18.6229C140.549 18.6229 142.777 19.1058 144.805 20.0743C146.835 21.0408 148.573 22.4629 150.021 24.3369L152.645 22.3352C151.046 20.1298 148.995 18.4169 146.492 17.195Z" fill="white"/>
<path d="M97.7063 17.195C95.2025 15.9728 92.3968 15.3608 89.2906 15.3608C84.1477 15.3608 79.8689 17.014 76.4526 20.3217C73.1293 23.5375 71.4361 27.4892 71.3464 32.1612H74.8556C74.9524 29.7626 75.5639 27.5845 76.7017 25.6307C77.9457 23.4929 79.6988 21.791 81.9615 20.5238C84.2229 19.256 86.6814 18.6229 89.3358 18.6229C91.764 18.6229 93.9915 19.1058 96.0209 20.0743C98.0489 21.0408 99.7876 22.4629 101.236 24.3369L103.859 22.3352C102.261 20.1298 100.21 18.4169 97.7063 17.195Z" fill="white"/>
<path d="M89.5398 46.9902C85.3019 46.9902 81.7921 45.6399 79.0099 42.9413C76.8331 40.8292 75.5204 38.3049 75.0464 35.3784H71.533C72.0044 38.781 73.3374 41.771 75.5588 44.3352C78.9218 48.1893 83.5146 50.1165 89.3361 50.1165C92.3974 50.1165 95.1683 49.5434 97.6501 48.3959C100.13 47.2485 102.2 45.6264 103.859 43.525L101.236 41.5454C98.0977 45.1756 94.1996 46.9902 89.5398 46.9902Z" fill="white"/>
<path d="M170.459 35.3783H173.784V35.3693H189.395V32.1611H170.459V35.3783Z" fill="white"/>
<path d="M189.395 46.8765H170.459V50.1164H189.395V46.8765Z" fill="white"/>
<path d="M222.469 31.9058C222.37 31.9058 222.287 31.9873 222.287 32.0864V33.5894H220.719C220.619 33.5894 220.538 33.67 220.538 33.7694C220.538 33.8689 220.619 33.9501 220.719 33.9501H222.287V35.4528C222.287 35.5519 222.37 35.6331 222.469 35.6331C222.569 35.6331 222.65 35.5519 222.65 35.4528V33.9501H224.219C224.318 33.9501 224.399 33.8689 224.399 33.7694C224.399 33.67 224.318 33.5894 224.219 33.5894H222.65V32.0864C222.65 31.9873 222.569 31.9058 222.469 31.9058Z" fill="white"/>
<path d="M39.6678 58.9033H40.1105V64.8207H39.6678V58.9033Z" fill="white"/>
<path d="M45.5864 64.8203H45.1711V62.5674C45.1711 62.1736 45.0892 61.8881 44.9249 61.7103C44.761 61.5332 44.4935 61.4443 44.1234 61.4443C43.6868 61.4443 43.3667 61.5746 43.1637 61.8345C42.9601 62.0953 42.8588 62.5093 42.8588 63.0763V64.8203H42.4435V61.1953H42.8588V61.8008C42.9943 61.5601 43.1705 61.3865 43.3873 61.2771C43.6039 61.169 43.881 61.1138 44.2182 61.1138C44.64 61.1138 44.9733 61.2309 45.2186 61.4635C45.4638 61.6962 45.5864 62.0164 45.5864 62.4255V64.8203Z" fill="white"/>
<path d="M51.1754 63.0002C51.1754 62.5221 51.0254 62.1435 50.7262 61.8633C50.4265 61.5842 50.0283 61.444 49.532 61.444C49.0586 61.444 48.6749 61.59 48.3797 61.8836C48.0851 62.1756 47.9373 62.5609 47.9373 63.0384C47.9373 63.5056 48.0873 63.8772 48.3864 64.1535C48.6865 64.4294 49.0863 64.5674 49.5862 64.5674C50.0705 64.5674 50.4565 64.4259 50.7446 64.1422C51.0318 63.8589 51.1754 63.4777 51.1754 63.0002ZM51.591 65.0083C51.591 65.6777 51.4303 66.167 51.108 66.476C50.7856 66.7857 50.278 66.9403 49.5862 66.9403C49.0621 66.9403 48.6452 66.8537 48.3348 66.6811C48.0247 66.5091 47.8214 66.2498 47.7256 65.9052H48.1722C48.2445 66.1455 48.3958 66.3226 48.6265 66.4378C48.8563 66.5534 49.1828 66.6105 49.6039 66.6105C50.1641 66.6105 50.5659 66.4901 50.8095 66.2498C51.0538 66.0098 51.1754 65.6228 51.1754 65.0889V64.1304C50.9828 64.3941 50.7533 64.5876 50.4868 64.7112C50.2206 64.8354 49.9018 64.8966 49.532 64.8966C48.9357 64.8966 48.452 64.7275 48.0796 64.3871C47.7082 64.0476 47.522 63.6006 47.522 63.0461C47.522 62.4708 47.7065 62.0061 48.0751 61.649C48.4439 61.2931 48.9189 61.1138 49.5 61.1138C49.9215 61.1138 50.2612 61.1741 50.5184 61.2931C50.7759 61.4115 50.9947 61.6082 51.1754 61.8852V61.1953H51.591V65.0083Z" fill="white"/>
<path d="M56.4575 59.6233L55.3916 60.8073L55.1525 60.6549L56.1596 59.4355L56.4575 59.6233ZM57.1396 62.6508C57.1125 62.2908 56.9583 62 56.6766 61.7777C56.3952 61.5553 56.0347 61.4443 55.5949 61.4443C55.1858 61.4443 54.8353 61.5556 54.5452 61.7789C54.2545 62.0032 54.0899 62.2949 54.0506 62.6556L57.1396 62.6508ZM57.5869 62.9848H54.0238C54.0325 63.4931 54.1738 63.8836 54.4478 64.158C54.7217 64.4307 55.1041 64.5674 55.5949 64.5674C55.9441 64.5674 56.2438 64.5023 56.4936 64.372C56.7437 64.2427 56.9499 64.0437 57.1125 63.778L57.4739 63.9353C57.2632 64.2651 57.0054 64.5077 56.7014 64.6637C56.3974 64.819 56.0286 64.8969 55.5949 64.8969C54.9747 64.8969 54.4884 64.7262 54.1367 64.3835C53.784 64.0421 53.6082 63.5752 53.6082 62.9848C53.6082 62.438 53.796 61.9898 54.1725 61.6394C54.5488 61.2893 55.0231 61.1141 55.5949 61.1141C56.1942 61.1141 56.6756 61.2745 57.0402 61.5935C57.4042 61.9131 57.5869 62.3424 57.5869 62.8815V62.9848Z" fill="white"/>
<path d="M62.6788 64.8203H62.2632V62.5674C62.2632 62.1736 62.1812 61.8881 62.017 61.7103C61.853 61.5332 61.5862 61.4443 61.2154 61.4443C60.7788 61.4443 60.459 61.5746 60.2561 61.8345C60.0528 62.0953 59.9508 62.5093 59.9508 63.0763V64.8203H59.5355V61.1953H59.9508V61.8008C60.0863 61.5601 60.2632 61.3865 60.4794 61.2771C60.6962 61.169 60.9737 61.1138 61.3106 61.1138C61.732 61.1138 62.0654 61.2309 62.3106 61.4635C62.5562 61.6962 62.6788 62.0164 62.6788 62.4255V64.8203Z" fill="white"/>
<path d="M65.5582 64.8203H65.1429V61.1953H65.5582V64.8203ZM65.7166 59.8762C65.7166 59.9634 65.6792 60.0372 65.6059 60.0988C65.5317 60.1595 65.4452 60.19 65.3462 60.19C65.2435 60.19 65.1561 60.1595 65.0841 60.0988C65.0122 60.0372 64.9757 59.9634 64.9757 59.8762C64.9757 59.7892 65.0122 59.7154 65.0841 59.6538C65.1561 59.5928 65.2435 59.562 65.3462 59.562C65.4452 59.562 65.5317 59.5928 65.6059 59.6538C65.6792 59.7154 65.7166 59.7892 65.7166 59.8762Z" fill="white"/>
<path d="M71.089 62.6505C71.0616 62.2908 70.9073 62 70.6259 61.7774C70.3449 61.555 69.9832 61.444 69.5443 61.444C69.1348 61.444 68.7847 61.5556 68.4943 61.7786C68.2042 62.0029 68.0387 62.2946 67.9999 62.655L71.089 62.6505ZM71.5359 62.9845H67.9728C67.9819 63.4928 68.1235 63.8843 68.3968 64.1577C68.6708 64.4307 69.0535 64.5674 69.5443 64.5674C69.8931 64.5674 70.1929 64.5023 70.4433 64.3717C70.6931 64.2417 70.8989 64.0437 71.0616 63.778L71.4233 63.935C71.2123 64.2648 70.9544 64.5068 70.6508 64.6634C70.3468 64.819 69.9777 64.8973 69.5443 64.8973C68.9241 64.8973 68.4378 64.7263 68.0858 64.3832C67.7331 64.0412 67.5569 63.5746 67.5569 62.9845C67.5569 62.438 67.7453 61.9895 68.1216 61.6394C68.4978 61.2893 68.9722 61.1138 69.5443 61.1138C70.1435 61.1138 70.625 61.2745 70.9893 61.5932C71.3536 61.9128 71.5359 62.3421 71.5359 62.8812V62.9845Z" fill="white"/>
<path d="M75.3364 61.1953L75.1964 61.5245C75.1544 61.4985 75.1018 61.4786 75.0383 61.4651C74.975 61.4513 74.9105 61.444 74.8443 61.444C74.5007 61.444 74.2483 61.5912 74.088 61.8868C73.9263 62.1817 73.846 62.636 73.846 63.2489V64.8203H73.4307V61.1953H73.846V61.7738C73.9457 61.5405 74.0809 61.373 74.2525 61.2694C74.4242 61.1658 74.6498 61.1138 74.9295 61.1138C75.005 61.1138 75.078 61.1218 75.1493 61.1356C75.2196 61.1491 75.2822 61.1696 75.3364 61.1953Z" fill="white"/>
<path d="M77.2813 64.8203H76.8656V61.1953H77.2813V64.8203ZM77.4391 59.8762C77.4391 59.9634 77.4019 60.0372 77.3281 60.0988C77.2548 60.1595 77.168 60.19 77.0686 60.19C76.966 60.19 76.8789 60.1595 76.8066 60.0988C76.7346 60.0372 76.6985 59.9634 76.6985 59.8762C76.6985 59.7892 76.7346 59.7154 76.8066 59.6538C76.8789 59.5928 76.966 59.562 77.0686 59.562C77.168 59.562 77.2548 59.5928 77.3281 59.6538C77.4019 59.7154 77.4391 59.7892 77.4391 59.8762Z" fill="white"/>
<path d="M82.8118 62.6505C82.784 62.2908 82.6301 62 82.349 61.7774C82.0673 61.555 81.7059 61.444 81.2674 61.444C80.8576 61.444 80.5075 61.5556 80.2171 61.7786C79.9266 62.0029 79.7614 62.2946 79.7224 62.655L82.8118 62.6505ZM83.2587 62.9845H79.6953C79.7046 63.4928 79.8463 63.8843 80.1199 64.1577C80.3936 64.4307 80.7763 64.5674 81.2674 64.5674C81.6162 64.5674 81.9157 64.5023 82.1658 64.3717C82.4155 64.2417 82.622 64.0437 82.784 63.778L83.1454 63.935C82.9347 64.2648 82.6772 64.5068 82.3736 64.6634C82.069 64.819 81.7004 64.8973 81.2674 64.8973C80.6466 64.8973 80.1612 64.7263 79.8082 64.3832C79.4562 64.0412 79.2797 63.5746 79.2797 62.9845C79.2797 62.438 79.4678 61.9895 79.8444 61.6394C80.2209 61.2893 80.6946 61.1138 81.2674 61.1138C81.8663 61.1138 82.3481 61.2745 82.7121 61.5932C83.0764 61.9128 83.2587 62.3421 83.2587 62.8812V62.9845Z" fill="white"/>
<path d="M91.1754 60.7419C91.1754 60.55 91.1015 60.3947 90.9547 60.2734C90.8082 60.153 90.6165 60.093 90.3803 60.093C90.1345 60.093 89.9392 60.1508 89.7947 60.2673C89.6507 60.3834 89.5785 60.5368 89.5785 60.7287C89.5785 60.8407 89.6133 60.9597 89.6837 61.0874C89.754 61.2155 89.8634 61.3605 90.0115 61.5226L90.2829 61.8097C90.6114 61.6179 90.8424 61.4449 90.9757 61.2902C91.1083 61.1362 91.1754 60.953 91.1754 60.7419ZM91.755 63.8647L90.1806 62.1775C89.6559 62.4711 89.3 62.7117 89.1135 62.8998C88.926 63.0872 88.8327 63.3195 88.8327 63.5964C88.8327 63.8948 88.955 64.1381 89.2 64.3267C89.4446 64.5154 89.7566 64.6101 90.1357 64.6101C90.4068 64.6101 90.6779 64.5478 90.9496 64.4227C91.2206 64.2979 91.4894 64.1124 91.755 63.8647ZM93.0961 64.8206H92.6482L91.9621 64.0887C91.6714 64.355 91.3713 64.5539 91.0641 64.6868C90.7566 64.8187 90.4381 64.8844 90.1093 64.8844C89.6224 64.8844 89.2251 64.7603 88.9192 64.5103C88.613 64.2616 88.4597 63.9417 88.4597 63.5515C88.4597 63.2746 88.5762 63.0153 88.8098 62.7737C89.0431 62.5311 89.4368 62.2644 89.9886 61.9721L89.6801 61.6403C89.5143 61.4571 89.3981 61.2941 89.3316 61.1513C89.2648 61.0082 89.2316 60.8635 89.2316 60.7165C89.2316 60.4499 89.3345 60.2336 89.5407 60.0674C89.7466 59.9011 90.0264 59.8184 90.3803 59.8184C90.7146 59.8184 90.988 59.9056 91.2016 60.0805C91.4152 60.2554 91.522 60.4755 91.522 60.7419C91.522 60.9832 91.4413 61.202 91.281 61.399C91.1199 61.596 90.8511 61.8004 90.4746 62.0106L91.9854 63.6346C92.1083 63.505 92.2267 63.3654 92.341 63.2162C92.4552 63.067 92.5649 62.9104 92.6708 62.7467L92.9496 62.8837C92.8211 63.0814 92.6953 63.2617 92.571 63.4241C92.4468 63.5852 92.3229 63.7312 92.1996 63.8586L93.0961 64.8206Z" fill="white"/>
<path d="M102.065 62.9768C102.065 62.5093 101.916 62.1371 101.616 61.8598C101.316 61.5829 100.917 61.4443 100.417 61.4443C99.9209 61.4443 99.5317 61.5755 99.25 61.839C98.9686 62.1014 98.8276 62.4669 98.8276 62.9345C98.8276 63.4251 98.9806 63.8204 99.2861 64.1191C99.5917 64.4179 99.9873 64.5674 100.472 64.5674C100.944 64.5674 101.328 64.4217 101.623 64.1307C101.918 63.8393 102.065 63.4546 102.065 62.9768ZM102.482 62.9697C102.482 63.5444 102.297 64.0097 101.928 64.3646C101.559 64.7198 101.083 64.8966 100.499 64.8966C100.113 64.8966 99.7847 64.8315 99.512 64.6999C99.2397 64.5684 99.0115 64.3659 98.8276 64.0928V66.8595H98.412V61.1953H98.8276V61.8467C99.0025 61.6034 99.2277 61.4209 99.5033 61.2976C99.7786 61.1754 100.101 61.1138 100.472 61.1138C101.067 61.1138 101.551 61.2851 101.924 61.6259C102.296 61.967 102.482 62.4149 102.482 62.9697Z" fill="white"/>
<path d="M107.687 62.6505C107.659 62.2908 107.505 62 107.224 61.7774C106.942 61.555 106.581 61.444 106.142 61.444C105.732 61.444 105.383 61.5556 105.092 61.7786C104.802 62.0029 104.636 62.2946 104.597 62.655L107.687 62.6505ZM108.133 62.9845H104.57C104.579 63.4928 104.721 63.8843 104.995 64.1577C105.268 64.4307 105.651 64.5674 106.142 64.5674C106.491 64.5674 106.79 64.5023 107.041 64.3717C107.291 64.2417 107.497 64.0437 107.659 63.778L108.021 63.935C107.809 64.2648 107.552 64.5068 107.249 64.6634C106.944 64.819 106.576 64.8973 106.142 64.8973C105.522 64.8973 105.036 64.7263 104.683 64.3832C104.331 64.0412 104.154 63.5746 104.154 62.9845C104.154 62.438 104.343 61.9895 104.719 61.6394C105.096 61.2893 105.57 61.1138 106.142 61.1138C106.741 61.1138 107.223 61.2745 107.586 61.5932C107.951 61.9128 108.133 62.3421 108.133 62.8812V62.9845Z" fill="white"/>
<path d="M111.934 61.1953L111.794 61.5245C111.752 61.4985 111.7 61.4786 111.636 61.4651C111.573 61.4513 111.508 61.444 111.442 61.444C111.098 61.444 110.846 61.5912 110.685 61.8868C110.524 62.1817 110.444 62.636 110.444 63.2489V64.8203H110.028V61.1953H110.444V61.7738C110.543 61.5405 110.679 61.373 110.85 61.2694C111.022 61.1658 111.248 61.1138 111.528 61.1138C111.603 61.1138 111.676 61.1218 111.747 61.1356C111.818 61.1491 111.88 61.1696 111.934 61.1953Z" fill="white"/>
<path d="M115.156 58.6879C115.082 58.6578 115.015 58.6347 114.956 58.6189C114.897 58.6035 114.842 58.5965 114.791 58.5965C114.535 58.5965 114.36 58.6696 114.265 58.8163C114.17 58.9636 114.122 59.2546 114.122 59.6884V61.1953H115.021V61.5248H114.122V64.8203H113.707V61.5248H113.079V61.1953H113.707V59.7119C113.707 59.1956 113.787 58.8256 113.946 58.6016C114.106 58.3783 114.374 58.2666 114.75 58.2666C114.828 58.2666 114.899 58.2717 114.96 58.2817C115.022 58.2923 115.089 58.3099 115.162 58.3349L115.156 58.6879Z" fill="white"/>
<path d="M120.195 63.0002C120.195 62.5609 120.022 62.1913 119.678 61.8925C119.332 61.5932 118.908 61.444 118.402 61.444C117.896 61.444 117.469 61.5932 117.122 61.89C116.774 62.1881 116.6 62.5577 116.6 63.0002C116.6 63.4389 116.775 63.8101 117.126 64.1134C117.477 64.416 117.902 64.5674 118.402 64.5674C118.902 64.5674 119.325 64.416 119.674 64.1134C120.021 63.8101 120.195 63.4389 120.195 63.0002ZM120.615 62.9929C120.615 63.521 120.398 63.9709 119.964 64.3415C119.531 64.7125 119.004 64.8966 118.384 64.8966C117.776 64.8966 117.257 64.7125 116.828 64.3415C116.399 63.9709 116.184 63.521 116.184 62.9929C116.184 62.4656 116.397 62.0212 116.824 61.6589C117.25 61.2954 117.769 61.1138 118.384 61.1138C119.013 61.1138 119.543 61.2951 119.971 61.6564C120.401 62.0183 120.615 62.4631 120.615 62.9929Z" fill="white"/>
<path d="M124.425 61.1953L124.284 61.5245C124.243 61.4985 124.19 61.4786 124.127 61.4651C124.064 61.4513 123.999 61.444 123.932 61.444C123.589 61.444 123.337 61.5912 123.176 61.8868C123.014 62.1817 122.934 62.636 122.934 63.2489V64.8203H122.519V61.1953H122.934V61.7738C123.034 61.5405 123.169 61.373 123.341 61.2694C123.512 61.1658 123.738 61.1138 124.018 61.1138C124.093 61.1138 124.166 61.1218 124.237 61.1356C124.308 61.1491 124.37 61.1696 124.425 61.1953Z" fill="white"/>
<path d="M131.085 64.8203H130.668V62.5674C130.668 62.1868 130.594 61.9035 130.447 61.7206C130.299 61.5364 130.071 61.4443 129.761 61.4443C129.375 61.4443 129.106 61.5463 128.953 61.7507C128.799 61.9551 128.722 62.3716 128.722 63.0002V64.8203H128.307V62.5674C128.307 62.1708 128.237 61.8848 128.099 61.7087C127.96 61.5325 127.728 61.4443 127.404 61.4443C127 61.4443 126.711 61.5713 126.537 61.8255C126.362 62.0796 126.275 62.4964 126.275 63.0763V64.8203H125.859V61.1953H126.275V61.743C126.367 61.5386 126.516 61.3827 126.72 61.2758C126.923 61.1683 127.175 61.1138 127.475 61.1138C127.74 61.1138 127.973 61.1709 128.171 61.2826C128.37 61.3955 128.514 61.5537 128.605 61.7587C128.704 61.5405 128.855 61.3795 129.056 61.2732C129.258 61.1677 129.517 61.1138 129.833 61.1138C130.206 61.1138 130.508 61.2322 130.739 61.4674C130.969 61.7019 131.085 62.0212 131.085 62.4255V64.8203Z" fill="white"/>
<path d="M136.718 63.0002C136.718 62.5221 136.568 62.1435 136.269 61.8633C135.969 61.5842 135.571 61.444 135.074 61.444C134.601 61.444 134.218 61.59 133.923 61.8836C133.628 62.1756 133.48 62.5609 133.48 63.0384C133.48 63.5056 133.63 63.8772 133.929 64.1535C134.229 64.4294 134.628 64.5674 135.128 64.5674C135.613 64.5674 135.999 64.4259 136.287 64.1422C136.575 63.8589 136.718 63.4777 136.718 63.0002ZM137.134 64.8203H136.718V64.1304C136.525 64.3941 136.295 64.5876 136.029 64.7112C135.763 64.8354 135.445 64.8966 135.074 64.8966C134.478 64.8966 133.994 64.7275 133.622 64.3871C133.251 64.0476 133.064 63.6006 133.064 63.0461C133.064 62.4708 133.249 62.0061 133.618 61.649C133.987 61.2931 134.461 61.1138 135.043 61.1138C135.464 61.1138 135.803 61.1741 136.06 61.2931C136.318 61.4115 136.537 61.6082 136.718 61.8852V61.1953H137.134V64.8203Z" fill="white"/>
<path d="M142.556 64.8203H142.14V62.5674C142.14 62.1736 142.058 61.8881 141.894 61.7103C141.73 61.5332 141.463 61.4443 141.092 61.4443C140.655 61.4443 140.336 61.5746 140.132 61.8345C139.93 62.0953 139.828 62.5093 139.828 63.0763V64.8203H139.412V61.1953H139.828V61.8008C139.963 61.5601 140.139 61.3865 140.356 61.2771C140.573 61.169 140.85 61.1138 141.187 61.1138C141.609 61.1138 141.942 61.2309 142.187 61.4635C142.433 61.6962 142.556 62.0164 142.556 62.4255V64.8203Z" fill="white"/>
<path d="M148.099 64.6329C147.895 64.7221 147.672 64.7882 147.431 64.8321C147.19 64.8758 146.932 64.8966 146.654 64.8966C146.016 64.8966 145.493 64.7227 145.085 64.3736C144.677 64.0254 144.472 63.5775 144.472 63.0304C144.472 62.4605 144.686 62 145.112 61.6448C145.538 61.2912 146.093 61.1138 146.776 61.1138C147.005 61.1138 147.221 61.1369 147.427 61.1815C147.631 61.2267 147.832 61.2938 148.026 61.3827V61.743C147.832 61.6455 147.627 61.572 147.415 61.521C147.203 61.4693 146.987 61.444 146.767 61.444C146.188 61.444 145.732 61.589 145.394 61.8791C145.056 62.1685 144.888 62.5635 144.888 63.0612C144.888 63.5008 145.064 63.8621 145.415 64.1442C145.765 64.4266 146.216 64.5674 146.767 64.5674C147.023 64.5674 147.261 64.5427 147.48 64.4927C147.701 64.4432 147.906 64.3672 148.099 64.2651V64.6329Z" fill="white"/>
<path d="M153.26 62.6505C153.232 62.2908 153.078 62 152.796 61.7774C152.515 61.555 152.154 61.444 151.715 61.444C151.305 61.444 150.955 61.5556 150.665 61.7786C150.374 62.0029 150.209 62.2946 150.17 62.655L153.26 62.6505ZM153.706 62.9845H150.144C150.152 63.4928 150.294 63.8843 150.567 64.1577C150.841 64.4307 151.224 64.5674 151.715 64.5674C152.064 64.5674 152.364 64.5023 152.613 64.3717C152.863 64.2417 153.07 64.0437 153.232 63.778L153.593 63.935C153.383 64.2648 153.125 64.5068 152.821 64.6634C152.517 64.819 152.148 64.8973 151.715 64.8973C151.094 64.8973 150.608 64.7263 150.256 64.3832C149.904 64.0412 149.728 63.5746 149.728 62.9845C149.728 62.438 149.916 61.9895 150.292 61.6394C150.668 61.2893 151.142 61.1138 151.715 61.1138C152.313 61.1138 152.796 61.2745 153.16 61.5932C153.524 61.9128 153.706 62.3421 153.706 62.8812V62.9845Z" fill="white"/>
<path d="M167.256 63.0004C167.256 62.5223 167.107 62.1436 166.807 61.8635C166.508 61.5843 166.11 61.4441 165.613 61.4441C165.14 61.4441 164.756 61.5901 164.461 61.8837C164.166 62.1757 164.019 62.5611 164.019 63.0386C164.019 63.5058 164.169 63.8774 164.468 64.1536C164.768 64.4296 165.167 64.5676 165.667 64.5676C166.151 64.5676 166.538 64.4261 166.825 64.1424C167.114 63.8591 167.256 63.4779 167.256 63.0004ZM167.672 64.8204H167.256V64.1305C167.064 64.3943 166.834 64.5878 166.568 64.7113C166.302 64.8355 165.983 64.8968 165.613 64.8968C165.017 64.8968 164.533 64.7277 164.161 64.3872C163.789 64.0477 163.603 63.6008 163.603 63.0463C163.603 62.4709 163.788 62.0063 164.157 61.6491C164.525 61.2933 165 61.1139 165.582 61.1139C166.026 61.1139 166.372 61.1749 166.617 61.2946C166.863 61.4149 167.076 61.6116 167.256 61.8853V58.3438H167.672V64.8204Z" fill="white"/>
<path d="M173.157 62.6505C173.131 62.2908 172.976 62 172.695 61.7774C172.413 61.555 172.052 61.444 171.613 61.444C171.204 61.444 170.853 61.5556 170.563 61.7786C170.273 62.0029 170.108 62.2946 170.069 62.655L173.157 62.6505ZM173.605 62.9845H170.042C170.05 63.4928 170.192 63.8843 170.466 64.1577C170.74 64.4307 171.122 64.5674 171.613 64.5674C171.963 64.5674 172.262 64.5023 172.512 64.3717C172.762 64.2417 172.968 64.0437 173.131 63.778L173.492 63.935C173.281 64.2648 173.024 64.5068 172.72 64.6634C172.416 64.819 172.046 64.8973 171.613 64.8973C170.993 64.8973 170.507 64.7263 170.155 64.3832C169.802 64.0412 169.626 63.5746 169.626 62.9845C169.626 62.438 169.814 61.9895 170.191 61.6394C170.567 61.2893 171.041 61.1138 171.613 61.1138C172.212 61.1138 172.693 61.2745 173.058 61.5932C173.422 61.9128 173.605 62.3421 173.605 62.8812V62.9845Z" fill="white"/>
<path d="M182.543 61.1953L180.619 64.9625L178.686 61.1953H179.151L180.619 64.1615L182.082 61.1953H182.543Z" fill="white"/>
<path d="M187.671 63.0002C187.671 62.5609 187.499 62.1913 187.154 61.8925C186.809 61.5932 186.385 61.444 185.879 61.444C185.373 61.444 184.946 61.5932 184.598 61.89C184.25 62.1881 184.076 62.5577 184.076 63.0002C184.076 63.4389 184.251 63.8101 184.602 64.1134C184.953 64.416 185.379 64.5674 185.879 64.5674C186.378 64.5674 186.802 64.416 187.15 64.1134C187.498 63.8101 187.671 63.4389 187.671 63.0002ZM188.091 62.9929C188.091 63.521 187.875 63.9709 187.441 64.3415C187.007 64.7125 186.481 64.8966 185.86 64.8966C185.252 64.8966 184.733 64.7125 184.305 64.3415C183.875 63.9709 183.661 63.521 183.661 62.9929C183.661 62.4656 183.874 62.0212 184.3 61.6589C184.726 61.2954 185.246 61.1138 185.86 61.1138C186.49 61.1138 187.019 61.2951 187.448 61.6564C187.877 62.0183 188.091 62.4631 188.091 62.9929Z" fill="white"/>
<path d="M192.245 63.8701C192.245 64.184 192.111 64.4339 191.842 64.6194C191.575 64.8042 191.209 64.8966 190.745 64.8966C190.408 64.8966 190.115 64.8373 189.867 64.7176C189.618 64.5969 189.436 64.4272 189.322 64.2074L189.702 64.0271C189.804 64.2135 189.945 64.3505 190.124 64.4371C190.303 64.5244 190.533 64.5674 190.813 64.5674C191.111 64.5674 191.355 64.5068 191.544 64.3871C191.734 64.2674 191.829 64.1076 191.829 63.9083C191.829 63.6904 191.754 63.529 191.603 63.4215C191.453 63.3144 191.154 63.194 190.709 63.0612C190.351 62.9543 190.076 62.8141 189.885 62.6418C189.694 62.4689 189.598 62.2693 189.598 62.0414C189.598 61.7581 189.707 61.5325 189.925 61.365C190.143 61.1978 190.446 61.1138 190.83 61.1138C191.111 61.1138 191.346 61.1658 191.538 61.2678C191.729 61.3702 191.885 61.5255 192.005 61.735L191.626 61.9073C191.538 61.7469 191.428 61.6291 191.296 61.555C191.164 61.4812 190.996 61.444 190.794 61.444C190.559 61.444 190.372 61.4985 190.23 61.6089C190.089 61.7186 190.018 61.863 190.018 62.0414C190.018 62.2003 190.087 62.3379 190.226 62.4557C190.364 62.5728 190.575 62.6707 190.858 62.7471C191.366 62.8898 191.725 63.0442 191.932 63.2088C192.14 63.3737 192.245 63.5942 192.245 63.8701Z" fill="white"/>
<path d="M201.607 63.0386C201.607 62.5611 201.459 62.1757 201.164 61.8834C200.869 61.5901 200.485 61.4441 200.013 61.4441C199.501 61.4441 199.099 61.5824 198.807 61.8577C198.515 62.134 198.368 62.5142 198.368 63.0004C198.368 63.4779 198.515 63.8591 198.81 64.1421C199.102 64.4261 199.491 64.5676 199.976 64.5676C200.473 64.5676 200.869 64.4309 201.164 64.1552C201.459 63.8812 201.607 63.5083 201.607 63.0386ZM202.022 63.0459C202.022 63.6008 201.836 64.0477 201.464 64.3872C201.092 64.7277 200.608 64.8974 200.013 64.8974C199.642 64.8974 199.324 64.8355 199.057 64.712C198.791 64.5878 198.561 64.3943 198.368 64.1305V64.8204H197.953V58.3438H198.368V61.8853C198.534 61.6321 198.758 61.4406 199.042 61.3093C199.325 61.1791 199.657 61.1139 200.04 61.1139C200.623 61.1139 201.1 61.2933 201.469 61.6492C201.838 62.0057 202.022 62.4706 202.022 63.0459Z" fill="white"/>
<path d="M206.948 60.6703L206.744 60.8083L205.773 59.9072L204.803 60.8083L204.6 60.6703L205.773 59.4355L206.948 60.6703ZM207.395 63.0005C207.395 62.5221 207.245 62.1438 206.945 61.8637C206.645 61.5845 206.248 61.4443 205.751 61.4443C205.278 61.4443 204.895 61.5903 204.6 61.8836C204.305 62.1756 204.157 62.5613 204.157 63.0387C204.157 63.5059 204.306 63.8775 204.606 64.1535C204.905 64.4297 205.305 64.568 205.805 64.568C206.29 64.568 206.676 64.4262 206.964 64.1429C207.251 63.8586 207.395 63.478 207.395 63.0005ZM207.81 64.8206H207.395V64.1307C207.202 64.3948 206.973 64.5879 206.706 64.7115C206.44 64.8353 206.121 64.897 205.751 64.897C205.154 64.897 204.671 64.7278 204.299 64.3874C203.927 64.0476 203.741 63.6009 203.741 63.0461C203.741 62.4708 203.926 62.0058 204.294 61.6493C204.663 61.2931 205.139 61.1147 205.719 61.1147C206.141 61.1147 206.48 61.1741 206.738 61.2931C206.995 61.4119 207.214 61.6092 207.395 61.8848V61.1956H207.81V64.8206Z" fill="white"/>
<path d="M211.326 61.5248H210.541V64.8206H210.125V61.5248H209.533V61.1956H210.125V59.6387H210.541V61.1956H211.326V61.5248Z" fill="white"/>
<path d="M213.51 64.8203H213.095V61.1953H213.51V64.8203ZM213.668 59.8762C213.668 59.9634 213.631 60.0372 213.557 60.0988C213.484 60.1595 213.397 60.19 213.298 60.19C213.196 60.19 213.108 60.1595 213.036 60.0988C212.965 60.0372 212.928 59.9634 212.928 59.8762C212.928 59.7892 212.965 59.7154 213.036 59.6538C213.108 59.5928 213.196 59.562 213.298 59.562C213.397 59.562 213.484 59.5928 213.557 59.6538C213.631 59.7154 213.668 59.7892 213.668 59.8762Z" fill="white"/>
<path d="M221.186 64.8203H220.77V62.5674C220.77 62.1868 220.696 61.9035 220.55 61.7206C220.401 61.5364 220.173 61.4443 219.863 61.4443C219.477 61.4443 219.208 61.5463 219.055 61.7507C218.901 61.9551 218.824 62.3716 218.824 63.0002V64.8203H218.408V62.5674C218.408 62.1708 218.339 61.8848 218.201 61.7087C218.062 61.5325 217.831 61.4443 217.505 61.4443C217.102 61.4443 216.813 61.5713 216.638 61.8255C216.464 62.0796 216.376 62.4964 216.376 63.0763V64.8203H215.961V61.1953H216.376V61.743C216.47 61.5386 216.618 61.3827 216.821 61.2758C217.025 61.1683 217.277 61.1138 217.578 61.1138C217.843 61.1138 218.074 61.1709 218.273 61.2826C218.471 61.3955 218.616 61.5537 218.706 61.7587C218.806 61.5405 218.957 61.3795 219.158 61.2732C219.36 61.1677 219.619 61.1138 219.935 61.1138C220.308 61.1138 220.61 61.2322 220.841 61.4674C221.071 61.7019 221.186 62.0212 221.186 62.4255V64.8203Z" fill="white"/>
<path d="M226.671 62.6505C226.644 62.2908 226.489 62 226.208 61.7774C225.926 61.555 225.566 61.444 225.126 61.444C224.717 61.444 224.366 61.5556 224.076 61.7786C223.786 62.0029 223.62 62.2946 223.582 62.655L226.671 62.6505ZM227.118 62.9845H223.555C223.564 63.4928 223.706 63.8843 223.979 64.1577C224.253 64.4307 224.636 64.5674 225.126 64.5674C225.476 64.5674 225.775 64.5023 226.025 64.3717C226.275 64.2417 226.481 64.0437 226.644 63.778L227.005 63.935C226.794 64.2648 226.537 64.5068 226.233 64.6634C225.929 64.819 225.56 64.8973 225.126 64.8973C224.506 64.8973 224.02 64.7263 223.668 64.3832C223.316 64.0412 223.14 63.5746 223.14 62.9845C223.14 62.438 223.327 61.9895 223.704 61.6394C224.08 61.2893 224.554 61.1138 225.126 61.1138C225.725 61.1138 226.207 61.2745 226.572 61.5932C226.936 61.9128 227.118 62.3421 227.118 62.8812V62.9845Z" fill="white"/>
<path d="M232.129 64.8203H231.713V62.5674C231.713 62.1736 231.631 61.8881 231.467 61.7103C231.303 61.5332 231.036 61.4443 230.665 61.4443C230.229 61.4443 229.909 61.5746 229.706 61.8345C229.503 62.0953 229.401 62.5093 229.401 63.0763V64.8203H228.986V61.1953H229.401V61.8008C229.537 61.5601 229.713 61.3865 229.929 61.2771C230.147 61.169 230.423 61.1138 230.76 61.1138C231.182 61.1138 231.516 61.2309 231.761 61.4635C232.006 61.6962 232.129 62.0164 232.129 62.4255V64.8203Z" fill="white"/>
<path d="M235.582 61.5248H234.796V64.8206H234.38V61.5248H233.789V61.1956H234.38V59.6387H234.796V61.1956H235.582V61.5248Z" fill="white"/>
<path d="M239.568 63.8701C239.568 64.184 239.433 64.4339 239.166 64.6194C238.898 64.8042 238.532 64.8966 238.068 64.8966C237.732 64.8966 237.438 64.8373 237.19 64.7176C236.941 64.5969 236.76 64.4272 236.646 64.2074L237.026 64.0271C237.127 64.2135 237.269 64.3505 237.448 64.4371C237.626 64.5244 237.856 64.5674 238.136 64.5674C238.434 64.5674 238.678 64.5068 238.868 64.3871C239.057 64.2674 239.152 64.1076 239.152 63.9083C239.152 63.6904 239.077 63.529 238.927 63.4215C238.776 63.3144 238.478 63.194 238.032 63.0612C237.674 62.9543 237.399 62.8141 237.209 62.6418C237.017 62.4689 236.922 62.2693 236.922 62.0414C236.922 61.7581 237.03 61.5325 237.249 61.365C237.467 61.1978 237.769 61.1138 238.154 61.1138C238.434 61.1138 238.67 61.1658 238.861 61.2678C239.052 61.3702 239.208 61.5255 239.329 61.735L238.949 61.9073C238.862 61.7469 238.752 61.6291 238.62 61.555C238.487 61.4812 238.32 61.444 238.118 61.444C237.884 61.444 237.695 61.4985 237.554 61.6089C237.412 61.7186 237.342 61.863 237.342 62.0414C237.342 62.2003 237.411 62.3379 237.55 62.4557C237.688 62.5728 237.898 62.6707 238.181 62.7471C238.69 62.8898 239.049 63.0442 239.256 63.2088C239.464 63.3737 239.568 63.5942 239.568 63.8701Z" fill="white"/>
<path d="M158.106 63.8701C158.106 64.184 157.972 64.4339 157.704 64.6194C157.436 64.8042 157.071 64.8966 156.607 64.8966C156.27 64.8966 155.977 64.8373 155.728 64.7176C155.479 64.5969 155.298 64.4272 155.184 64.2074L155.564 64.0271C155.666 64.2135 155.807 64.3505 155.986 64.4371C156.165 64.5244 156.394 64.5674 156.674 64.5674C156.972 64.5674 157.216 64.5068 157.406 64.3871C157.596 64.2674 157.691 64.1076 157.691 63.9083C157.691 63.6904 157.615 63.529 157.465 63.4215C157.315 63.3144 157.016 63.194 156.57 63.0612C156.212 62.9543 155.937 62.8141 155.747 62.6418C155.555 62.4689 155.46 62.2693 155.46 62.0414C155.46 61.7581 155.569 61.5325 155.787 61.365C156.005 61.1978 156.307 61.1138 156.692 61.1138C156.972 61.1138 157.208 61.1658 157.399 61.2678C157.59 61.3702 157.746 61.5255 157.867 61.735L157.487 61.9073C157.4 61.7469 157.29 61.6291 157.158 61.555C157.025 61.4812 156.858 61.444 156.657 61.444C156.422 61.444 156.233 61.4985 156.092 61.6089C155.95 61.7186 155.88 61.863 155.88 62.0414C155.88 62.2003 155.949 62.3379 156.088 62.4557C156.226 62.5728 156.437 62.6707 156.719 62.7471C157.228 62.8898 157.587 63.0442 157.794 63.2088C158.002 63.3737 158.106 63.5942 158.106 63.8701Z" fill="white"/>
</svg>
