<svg width="29" height="28" viewBox="0 0 29 28" fill="none" xmlns="http://www.w3.org/2000/svg">
<path d="M16.8334 12.8335H9.83341M12.1667 17.5002H9.83341M19.1667 8.16683H9.83341M23.8334 12.2502V7.9335C23.8334 5.97331 23.8334 4.99322 23.4519 4.24453C23.1164 3.58596 22.5809 3.05053 21.9224 2.71497C21.1737 2.3335 20.1936 2.3335 18.2334 2.3335H10.7667C8.80656 2.3335 7.82647 2.3335 7.07778 2.71497C6.41921 3.05053 5.88378 3.58596 5.54823 4.24453C5.16675 4.99322 5.16675 5.97331 5.16675 7.9335V20.0668C5.16675 22.027 5.16675 23.0071 5.54823 23.7558C5.88378 24.4144 6.41921 24.9498 7.07778 25.2854C7.82647 25.6668 8.80656 25.6668 10.7667 25.6668H13.9167M26.1667 25.6668L24.4167 23.9168M25.5834 21.0002C25.5834 23.2553 23.7552 25.0835 21.5001 25.0835C19.2449 25.0835 17.4167 23.2553 17.4167 21.0002C17.4167 18.745 19.2449 16.9168 21.5001 16.9168C23.7552 16.9168 25.5834 18.745 25.5834 21.0002Z" stroke="#2E76B8" stroke-width="2" stroke-linecap="round" stroke-linejoin="round"/>
</svg>
