<svg width="49" height="48" viewBox="0 0 49 48" fill="none" xmlns="http://www.w3.org/2000/svg">
<path d="M34.3333 29.0001V22.989C34.3333 22.63 34.3333 22.4505 34.2786 22.2921C34.2303 22.152 34.1514 22.0243 34.0477 21.9184C33.9304 21.7987 33.7699 21.7184 33.4488 21.5579L24.3333 17.0001M8.33325 19.0001V32.6134C8.33325 33.3572 8.33325 33.7291 8.44929 34.0547C8.55187 34.3426 8.71905 34.6031 8.93801 34.8163C9.18568 35.0575 9.5238 35.2125 10.2 35.5224L23 41.389C23.4904 41.6138 23.7357 41.7262 23.9911 41.7706C24.2175 41.8099 24.449 41.8099 24.6754 41.7706C24.9308 41.7262 25.1761 41.6138 25.6665 41.389L38.4665 35.5224C39.1427 35.2125 39.4808 35.0575 39.7285 34.8163C39.9474 34.6031 40.1146 34.3426 40.2172 34.0547C40.3333 33.7291 40.3333 33.3572 40.3333 32.6134V19.0001M4.33325 17.0001L23.6177 7.3579C23.8801 7.22672 24.0113 7.16113 24.1489 7.13531C24.2707 7.11245 24.3958 7.11245 24.5177 7.13531C24.6552 7.16113 24.7864 7.22672 25.0488 7.3579L44.3333 17.0001L25.0488 26.6424C24.7864 26.7735 24.6552 26.8391 24.5177 26.8649C24.3958 26.8878 24.2707 26.8878 24.1489 26.8649C24.0113 26.8391 23.8801 26.7735 23.6177 26.6424L4.33325 17.0001Z" stroke="#2E76B8" stroke-width="3" stroke-linecap="round" stroke-linejoin="round"/>
</svg>
