<svg width="48" height="49" viewBox="0 0 48 49" fill="none" xmlns="http://www.w3.org/2000/svg">
<path d="M14 44.6669V22.6669M4 26.6669V40.6669C4 42.876 5.79086 44.6669 8 44.6669H34.8525C37.8139 44.6669 40.3324 42.5062 40.7827 39.5792L42.9366 25.5792C43.4957 21.9447 40.6836 18.6669 37.0063 18.6669H30C28.8954 18.6669 28 17.7714 28 16.6669V9.59855C28 6.87486 25.792 4.66687 23.0683 4.66687C22.4187 4.66687 21.83 5.04946 21.5661 5.64312L14.5279 21.4791C14.2069 22.2014 13.4906 22.6669 12.7003 22.6669H8C5.79086 22.6669 4 24.4577 4 26.6669Z" stroke="#2E76B8" stroke-width="3" stroke-linecap="round" stroke-linejoin="round"/>
</svg>
