<svg width="20" height="20" viewBox="0 0 20 20" fill="none" xmlns="http://www.w3.org/2000/svg">
<g clip-path="url(#clip0_116_1105)">
<path fill-rule="evenodd" clip-rule="evenodd" d="M8.43115 12.866C8.75459 12.866 9.01709 13.1285 9.01709 13.4519C9.01709 13.7753 8.75459 14.0378 8.43115 14.0378C8.10799 14.0378 7.84521 13.7753 7.84521 13.4519C7.84521 13.1285 8.10799 12.866 8.43115 12.866Z" fill="#05354E"/>
<path fill-rule="evenodd" clip-rule="evenodd" d="M11.5688 12.866C11.8923 12.866 12.1548 13.1285 12.1548 13.4519C12.1548 13.7753 11.8923 14.0378 11.5688 14.0378C11.2457 14.0378 10.9829 13.7753 10.9829 13.4519C10.9829 13.1285 11.2457 12.866 11.5688 12.866Z" fill="#05354E"/>
<path fill-rule="evenodd" clip-rule="evenodd" d="M10 11.2969C10.3234 11.2969 10.5859 11.5594 10.5859 11.8828C10.5859 12.2063 10.3234 12.4688 10 12.4688C9.67684 12.4688 9.41406 12.2063 9.41406 11.8828C9.41406 11.5594 9.67684 11.2969 10 11.2969Z" fill="#05354E"/>
<path fill-rule="evenodd" clip-rule="evenodd" d="M10 14.4349C10.3234 14.4349 10.5859 14.6974 10.5859 15.0209C10.5859 15.3443 10.3234 15.6068 10 15.6068C9.67684 15.6068 9.41406 15.3443 9.41406 15.0209C9.41406 14.6974 9.67684 14.4349 10 14.4349Z" fill="#05354E"/>
<path d="M3.09619 8.11724C3.09619 8.81045 3.65818 9.37244 4.35138 9.37244H7.14735C7.43874 9.37246 7.72437 9.29132 7.97223 9.13813C8.22009 8.98493 8.42039 8.76573 8.55067 8.5051C8.72989 8.14674 8.93258 7.74162 9.09164 7.42342C9.17595 7.25474 9.30557 7.11287 9.46597 7.01372C9.62638 6.91456 9.81123 6.86205 9.9998 6.86205H10.0001C10.1887 6.86205 10.3735 6.91456 10.5339 7.01372C10.6944 7.11287 10.824 7.25474 10.9083 7.42342C11.0673 7.74162 11.2701 8.14674 11.4489 8.5051C11.5793 8.76576 11.7796 8.98497 12.0276 9.13816C12.2755 9.29135 12.5612 9.37248 12.8526 9.37244H15.6482C16.3417 9.37244 16.9035 8.81045 16.9035 8.11724V4.97925C16.9035 4.64631 16.7713 4.32699 16.536 4.09148C16.3005 3.85613 15.9812 3.72397 15.6482 3.72405H4.35138C4.01857 3.72406 3.69938 3.85622 3.46396 4.09148C3.22853 4.32694 3.09624 4.64627 3.09619 4.97925V8.11724Z" stroke="#05354E" stroke-miterlimit="10" stroke-linecap="round" stroke-linejoin="round"/>
<path d="M13.7656 13.1381C13.7656 11.0582 12.0799 9.37244 9.99999 9.37244C7.92042 9.37244 6.23438 11.0582 6.23438 13.1381V15.0209L8.11749 16.904C8.36472 17.1512 8.65823 17.3473 8.98125 17.4812C9.30428 17.615 9.6505 17.6838 10.0001 17.6838C10.3498 17.6838 10.696 17.615 11.019 17.4812C11.3421 17.3473 11.6356 17.1512 11.8828 16.904L13.7656 15.0209V13.1381Z" stroke="#05354E" stroke-miterlimit="10" stroke-linecap="round" stroke-linejoin="round"/>
<path d="M8.11699 16.9036L5.60657 19.4141L1.21338 15.0208L3.7238 12.5104L8.11699 16.9036Z" stroke="#05354E" stroke-miterlimit="10" stroke-linecap="round" stroke-linejoin="round"/>
<path d="M11.8828 16.9036L14.3932 19.4141L18.7864 15.0208L16.276 12.5104L11.8828 16.9036Z" stroke="#05354E" stroke-miterlimit="10" stroke-linecap="round" stroke-linejoin="round"/>
<path d="M16.2762 3.72406C16.2762 1.99094 14.8713 0.586062 13.1382 0.586062H6.86149C6.44952 0.586033 6.04158 0.667158 5.66097 0.824805C5.28035 0.982452 4.93452 1.21353 4.64322 1.50485C4.35185 1.79618 4.12071 2.14206 3.96301 2.52273C3.80531 2.90339 3.72413 3.3114 3.72412 3.72344V3.72406H16.2762Z" stroke="#05354E" stroke-miterlimit="10" stroke-linecap="round" stroke-linejoin="round"/>
<path d="M3.72412 12.5105V9.3725" stroke="#05354E" stroke-miterlimit="10" stroke-linecap="round" stroke-linejoin="round"/>
<path d="M16.2759 12.5105V9.3725" stroke="#05354E" stroke-miterlimit="10" stroke-linecap="round" stroke-linejoin="round"/>
</g>
<defs>
<clipPath id="clip0_116_1105">
<rect width="20" height="20" fill="white"/>
</clipPath>
</defs>
</svg>
