<svg width="29" height="28" viewBox="0 0 29 28" fill="none" xmlns="http://www.w3.org/2000/svg">
<path d="M19.1667 4.66683C20.2517 4.66683 20.7942 4.66683 21.2393 4.78609C22.4471 5.10972 23.3905 6.05314 23.7142 7.26096C23.8334 7.70605 23.8334 8.24853 23.8334 9.3335V20.0668C23.8334 22.027 23.8334 23.0071 23.4519 23.7558C23.1164 24.4144 22.5809 24.9498 21.9224 25.2854C21.1737 25.6668 20.1936 25.6668 18.2334 25.6668H10.7667C8.80656 25.6668 7.82647 25.6668 7.07778 25.2854C6.41921 24.9498 5.88378 24.4144 5.54823 23.7558C5.16675 23.0071 5.16675 22.027 5.16675 20.0668V9.3335C5.16675 8.24853 5.16675 7.70605 5.28601 7.26096C5.60964 6.05314 6.55306 5.10972 7.76088 4.78609C8.20596 4.66683 8.74845 4.66683 9.83342 4.66683M11.0001 17.5002L13.3334 19.8335L18.5834 14.5835M11.7001 7.00016H17.3001C17.9535 7.00016 18.2802 7.00016 18.5297 6.873C18.7493 6.76115 18.9277 6.58267 19.0396 6.36315C19.1667 6.11359 19.1667 5.78689 19.1667 5.1335V4.20016C19.1667 3.54677 19.1667 3.22007 19.0396 2.97051C18.9277 2.75098 18.7493 2.57251 18.5297 2.46066C18.2802 2.3335 17.9535 2.3335 17.3001 2.3335H11.7001C11.0467 2.3335 10.72 2.3335 10.4704 2.46066C10.2509 2.57251 10.0724 2.75098 9.96057 2.97051C9.83342 3.22007 9.83342 3.54677 9.83342 4.20016V5.1335C9.83342 5.78689 9.83342 6.11359 9.96057 6.36315C10.0724 6.58267 10.2509 6.76115 10.4704 6.873C10.72 7.00016 11.0467 7.00016 11.7001 7.00016Z" stroke="#2E76B8" stroke-width="2" stroke-linecap="round" stroke-linejoin="round"/>
</svg>
