<svg width="26" height="26" viewBox="0 0 26 26" fill="none" xmlns="http://www.w3.org/2000/svg">
<path d="M10.6667 16.5002L7.07891 20.1328C6.57846 20.6395 6.32823 20.8929 6.11315 20.9107C5.92656 20.9262 5.74386 20.8512 5.62199 20.7091C5.48152 20.5452 5.48152 20.1891 5.48152 19.477V17.657C5.48152 17.0181 4.95829 16.5558 4.32611 16.4632C2.79607 16.2391 1.59445 15.0375 1.37033 13.5074C1.33337 13.2551 1.33337 12.9541 1.33337 12.352V6.9335C1.33337 4.97331 1.33337 3.99322 1.71485 3.24453C2.05041 2.58596 2.58584 2.05053 3.24441 1.71497C3.9931 1.3335 4.97319 1.3335 6.93337 1.3335H15.5667C17.5269 1.3335 18.507 1.3335 19.2557 1.71497C19.9142 2.05053 20.4497 2.58596 20.7852 3.24453C21.1667 3.99322 21.1667 4.97331 21.1667 6.9335V11.8335M21.1667 24.6668L18.6276 22.9015C18.2706 22.6534 18.0922 22.5293 17.8979 22.4413C17.7256 22.3633 17.5443 22.3064 17.3582 22.2721C17.1485 22.2335 16.9312 22.2335 16.4964 22.2335H14.4C13.0933 22.2335 12.4399 22.2335 11.9407 21.9792C11.5017 21.7555 11.1447 21.3985 10.921 20.9595C10.6667 20.4603 10.6667 19.807 10.6667 18.5002V15.5668C10.6667 14.26 10.6667 13.6066 10.921 13.1075C11.1447 12.6685 11.5017 12.3115 11.9407 12.0878C12.4399 11.8335 13.0933 11.8335 14.4 11.8335H20.9334C22.2402 11.8335 22.8936 11.8335 23.3927 12.0878C23.8317 12.3115 24.1887 12.6685 24.4124 13.1075C24.6667 13.6066 24.6667 14.26 24.6667 15.5668V18.7335C24.6667 19.8207 24.6667 20.3643 24.4891 20.7931C24.2523 21.3648 23.798 21.8191 23.2263 22.0559C22.7975 22.2335 22.2539 22.2335 21.1667 22.2335V24.6668Z" stroke="#2E76B8" stroke-width="2" stroke-linecap="round" stroke-linejoin="round"/>
</svg>
