<svg width="30" height="30" viewBox="0 0 30 30" fill="none" xmlns="http://www.w3.org/2000/svg">
<path d="M11.0003 15L13.667 17.6666L19.667 11.6666M22.8686 5.66464C23.1431 6.32867 23.6701 6.85649 24.3337 7.13206L26.6606 8.09593C27.3247 8.371 27.8523 8.89862 28.1274 9.5627C28.4024 10.2268 28.4024 10.973 28.1274 11.637L27.1642 13.9624C26.889 14.6267 26.8886 15.3737 27.1651 16.0377L28.1266 18.3624C28.2629 18.6913 28.3331 19.0438 28.3332 19.3999C28.3332 19.7559 28.2631 20.1085 28.1269 20.4375C27.9906 20.7664 27.7909 21.0653 27.5391 21.3171C27.2873 21.5688 26.9884 21.7684 26.6594 21.9046L24.3341 22.8678C23.6701 23.1423 23.1423 23.6694 22.8668 24.333L21.9029 26.66C21.6279 27.3241 21.1003 27.8517 20.4362 28.1268C19.7721 28.4018 19.026 28.4018 18.3619 28.1268L16.0367 27.1636C15.3726 26.8892 14.6268 26.8897 13.9631 27.1651L11.6362 28.1276C10.9725 28.4021 10.227 28.4018 9.56348 28.127C8.89996 27.8521 8.37266 27.3251 8.09741 26.6618L7.13328 24.3341C6.85873 23.67 6.33172 23.1422 5.66812 22.8667L3.34121 21.9028C2.67744 21.6278 2.15 21.1006 1.87484 20.4368C1.59967 19.7731 1.5993 19.0273 1.8738 18.3634L2.83694 16.038C3.11133 15.3739 3.11077 14.628 2.83539 13.9643L1.87362 11.6357C1.73726 11.3068 1.66705 10.9542 1.66699 10.5981C1.66694 10.2421 1.73704 9.88949 1.87329 9.56054C2.00954 9.23158 2.20928 8.9327 2.46108 8.68096C2.71289 8.42923 3.01182 8.22958 3.34081 8.09343L5.66605 7.13025C6.32949 6.85592 6.85697 6.32956 7.13273 5.6667L8.09657 3.33971C8.37163 2.67562 8.89923 2.148 9.56329 1.87293C10.2274 1.59786 10.9735 1.59786 11.6375 1.87293L13.9628 2.83611C14.6269 3.11051 15.3727 3.10995 16.0364 2.83455L18.3643 1.87442C19.0283 1.59951 19.7742 1.59956 20.4382 1.87458C21.1021 2.1496 21.6296 2.67706 21.9047 3.34098L22.8689 5.66867L22.8686 5.66464Z" stroke="white" stroke-width="2" stroke-linecap="round" stroke-linejoin="round"/>
</svg>
