<svg width="44" height="39" viewBox="0 0 44 39" fill="none" xmlns="http://www.w3.org/2000/svg">
<path d="M32.3333 24.0001V17.989C32.3333 17.63 32.3333 17.4505 32.2786 17.2921C32.2303 17.152 32.1514 17.0243 32.0477 16.9184C31.9304 16.7987 31.7699 16.7184 31.4488 16.5579L22.3333 12.0001M6.33325 14.0001V27.6134C6.33325 28.3572 6.33325 28.7291 6.44929 29.0547C6.55187 29.3426 6.71905 29.6031 6.93801 29.8163C7.18568 30.0575 7.5238 30.2125 8.19996 30.5224L21 36.389C21.4904 36.6138 21.7357 36.7262 21.9911 36.7706C22.2175 36.8099 22.449 36.8099 22.6754 36.7706C22.9308 36.7262 23.1761 36.6138 23.6665 36.389L36.4665 30.5224C37.1427 30.2125 37.4808 30.0575 37.7285 29.8163C37.9474 29.6031 38.1146 29.3426 38.2172 29.0547C38.3333 28.7291 38.3333 28.3572 38.3333 27.6134V14.0001M2.33325 12.0001L21.6177 2.3579C21.8801 2.22672 22.0113 2.16113 22.1489 2.13531C22.2707 2.11245 22.3958 2.11245 22.5177 2.13531C22.6552 2.16113 22.7864 2.22672 23.0488 2.3579L42.3333 12.0001L23.0488 21.6424C22.7864 21.7735 22.6552 21.8391 22.5177 21.8649C22.3958 21.8878 22.2707 21.8878 22.1489 21.8649C22.0113 21.8391 21.8801 21.7735 21.6177 21.6424L2.33325 12.0001Z" stroke="#2E76B8" stroke-width="3" stroke-linecap="round" stroke-linejoin="round"/>
</svg>
