<svg width="20" height="20" viewBox="0 0 20 20" fill="none" xmlns="http://www.w3.org/2000/svg">
<path d="M11.1391 12.3429H10.0469C9.31234 12.3429 8.7168 11.7474 8.7168 11.0127V6.62108C8.7168 5.95217 9.25906 5.40991 9.92797 5.40991C10.5969 5.40991 11.1391 5.95217 11.1391 6.62108V12.3429Z" stroke="#05354E" stroke-miterlimit="10" stroke-linecap="round" stroke-linejoin="round"/>
<path d="M11.3405 2.13464C11.3405 2.91445 10.7084 3.54663 9.92855 3.54663C9.14871 3.54663 8.5166 2.91445 8.5166 2.13464C8.5166 1.35484 9.14875 0.722655 9.92855 0.722655C10.7084 0.722655 11.3405 1.35484 11.3405 2.13464Z" stroke="#05354E" stroke-miterlimit="10" stroke-linecap="round" stroke-linejoin="round"/>
<path d="M13.8014 14.4666C13.5057 17.172 11.2132 19.2773 8.42901 19.2773C5.44413 19.2773 3.02441 16.8576 3.02441 13.8727C3.02441 11.5417 4.50019 9.55526 6.56839 8.79691" stroke="#05354E" stroke-miterlimit="10" stroke-linecap="round" stroke-linejoin="round"/>
<path d="M11.1396 8.65271H14.5064" stroke="#05354E" stroke-miterlimit="10" stroke-linecap="round" stroke-linejoin="round"/>
<path d="M11.1396 12.343H15.133L16.9757 15.9283" stroke="#05354E" stroke-miterlimit="10" stroke-linecap="round" stroke-linejoin="round"/>
</svg>
