<svg width="28" height="28" viewBox="0 0 28 28" fill="none" xmlns="http://www.w3.org/2000/svg">
<path d="M9.48035 16.3337C9.9984 18.3464 11.8255 19.8337 14 19.8337C16.1745 19.8337 18.0016 18.3464 18.5196 16.3337M12.854 3.22503L4.94129 9.37935C4.41236 9.79074 4.14789 9.99643 3.95736 10.254C3.78859 10.4822 3.66287 10.7393 3.58637 11.0126C3.5 11.3211 3.5 11.6562 3.5 12.3263V20.767C3.5 22.0738 3.5 22.7272 3.75432 23.2263C3.97802 23.6654 4.33498 24.0223 4.77402 24.246C5.27315 24.5003 5.92654 24.5003 7.23333 24.5003H20.7667C22.0735 24.5003 22.7269 24.5003 23.226 24.246C23.665 24.0223 24.022 23.6654 24.2457 23.2263C24.5 22.7272 24.5 22.0738 24.5 20.767V12.3263C24.5 11.6562 24.5 11.3211 24.4136 11.0126C24.3371 10.7393 24.2114 10.4822 24.0426 10.254C23.8521 9.99643 23.5876 9.79074 23.0587 9.37935L15.146 3.22503C14.7361 2.90624 14.5312 2.74684 14.3049 2.68557C14.1052 2.6315 13.8948 2.6315 13.6951 2.68557C13.4688 2.74684 13.2639 2.90624 12.854 3.22503Z" stroke="#2E76B8" stroke-width="2" stroke-linecap="round" stroke-linejoin="round"/>
</svg>
