<svg width="24" height="25" viewBox="0 0 24 25" fill="none" xmlns="http://www.w3.org/2000/svg">
<path d="M7.48035 15.3337C7.9984 17.3464 9.82552 18.8337 12 18.8337C14.1745 18.8337 16.0016 17.3464 16.5196 15.3337M10.854 2.22503L2.94129 8.37935C2.41236 8.79074 2.14789 8.99643 1.95736 9.25403C1.78859 9.48222 1.66287 9.73928 1.58637 10.0126C1.5 10.3211 1.5 10.6562 1.5 11.3263V19.767C1.5 21.0738 1.5 21.7272 1.75432 22.2263C1.97802 22.6654 2.33498 23.0223 2.77402 23.246C3.27315 23.5003 3.92654 23.5003 5.23333 23.5003H18.7667C20.0735 23.5003 20.7269 23.5003 21.226 23.246C21.665 23.0223 22.022 22.6654 22.2457 22.2263C22.5 21.7272 22.5 21.0738 22.5 19.767V11.3263C22.5 10.6562 22.5 10.3211 22.4136 10.0126C22.3371 9.73928 22.2114 9.48222 22.0426 9.25403C21.8521 8.99643 21.5876 8.79074 21.0587 8.37935L13.146 2.22503C12.7361 1.90624 12.5312 1.74684 12.3049 1.68557C12.1052 1.6315 11.8948 1.6315 11.6951 1.68557C11.4688 1.74684 11.2639 1.90624 10.854 2.22503Z" stroke="#2E76B8" stroke-width="2" stroke-linecap="round" stroke-linejoin="round"/>
</svg>
