<svg width="44" height="40" viewBox="0 0 44 40" fill="none" xmlns="http://www.w3.org/2000/svg">
<path d="M41.6667 38.3334V34.3334C41.6667 30.6057 39.1172 27.4735 35.6667 26.5854M28.6667 2.91489C31.5986 4.10167 33.6667 6.976 33.6667 10.3334C33.6667 13.6908 31.5986 16.5651 28.6667 17.7519M31.6667 38.3334C31.6667 34.6058 31.6667 32.7421 31.0578 31.2719C30.2458 29.3117 28.6884 27.7543 26.7282 26.9423C25.258 26.3334 23.3943 26.3334 19.6667 26.3334H13.6667C9.93922 26.3334 8.07545 26.3334 6.60528 26.9423C4.64506 27.7543 3.08766 29.3117 2.27571 31.2719C1.66675 32.7421 1.66675 34.6058 1.66675 38.3334M24.6667 10.3334C24.6667 14.7517 21.085 18.3334 16.6667 18.3334C12.2485 18.3334 8.66675 14.7517 8.66675 10.3334C8.66675 5.9151 12.2485 2.33337 16.6667 2.33337C21.085 2.33337 24.6667 5.9151 24.6667 10.3334Z" stroke="#2E76B8" stroke-width="3" stroke-linecap="round" stroke-linejoin="round"/>
</svg>
