<svg width="26" height="26" viewBox="0 0 26 26" fill="none" xmlns="http://www.w3.org/2000/svg">
<path d="M10.6667 19.6018V22.3335C10.6667 23.6222 11.7114 24.6668 13 24.6668C14.2887 24.6668 15.3334 23.6222 15.3334 22.3335V19.6018M13 1.3335V2.50016M2.50004 13.0002H1.33337M5.41671 5.41683L4.71659 4.71672M20.5834 5.41683L21.2837 4.71672M24.6667 13.0002H23.5M20 13.0002C20 16.8662 16.866 20.0002 13 20.0002C9.13405 20.0002 6.00004 16.8662 6.00004 13.0002C6.00004 9.13417 9.13405 6.00016 13 6.00016C16.866 6.00016 20 9.13417 20 13.0002Z" stroke="#2E76B8" stroke-width="2" stroke-linecap="round" stroke-linejoin="round"/>
</svg>
