<svg width="28" height="28" viewBox="0 0 28 28" fill="none" xmlns="http://www.w3.org/2000/svg">
<path d="M11.6667 20.6018V23.3335C11.6667 24.6222 12.7114 25.6668 14 25.6668C15.2887 25.6668 16.3334 24.6222 16.3334 23.3335V20.6018M14 2.3335V3.50016M3.50004 14.0002H2.33337M6.41671 6.41683L5.71659 5.71672M21.5834 6.41683L22.2837 5.71672M25.6667 14.0002H24.5M21 14.0002C21 17.8662 17.866 21.0002 14 21.0002C10.134 21.0002 7.00004 17.8662 7.00004 14.0002C7.00004 10.1342 10.134 7.00016 14 7.00016C17.866 7.00016 21 10.1342 21 14.0002Z" stroke="#2E76B8" stroke-width="2" stroke-linecap="round" stroke-linejoin="round"/>
</svg>
