<svg width="28" height="28" viewBox="0 0 28 28" fill="none" xmlns="http://www.w3.org/2000/svg">
<path d="M11.6667 17.5002L8.07891 21.1328C7.57846 21.6395 7.32823 21.8929 7.11315 21.9107C6.92656 21.9262 6.74386 21.8512 6.62199 21.7091C6.48152 21.5452 6.48152 21.1891 6.48152 20.477V18.657C6.48152 18.0181 5.95829 17.5558 5.32611 17.4632C3.79607 17.2391 2.59445 16.0375 2.37033 14.5074C2.33337 14.2551 2.33337 13.9541 2.33337 13.352V7.9335C2.33337 5.97331 2.33337 4.99322 2.71485 4.24453C3.05041 3.58596 3.58584 3.05053 4.24441 2.71497C4.9931 2.3335 5.97319 2.3335 7.93337 2.3335H16.5667C18.5269 2.3335 19.507 2.3335 20.2557 2.71497C20.9142 3.05053 21.4497 3.58596 21.7852 4.24453C22.1667 4.99322 22.1667 5.97331 22.1667 7.9335V12.8335M22.1667 25.6668L19.6276 23.9015C19.2706 23.6534 19.0922 23.5293 18.8979 23.4413C18.7256 23.3633 18.5443 23.3064 18.3582 23.2721C18.1485 23.2335 17.9312 23.2335 17.4964 23.2335H15.4C14.0933 23.2335 13.4399 23.2335 12.9407 22.9792C12.5017 22.7555 12.1447 22.3985 11.921 21.9595C11.6667 21.4603 11.6667 20.807 11.6667 19.5002V16.5668C11.6667 15.26 11.6667 14.6066 11.921 14.1075C12.1447 13.6685 12.5017 13.3115 12.9407 13.0878C13.4399 12.8335 14.0933 12.8335 15.4 12.8335H21.9334C23.2402 12.8335 23.8936 12.8335 24.3927 13.0878C24.8317 13.3115 25.1887 13.6685 25.4124 14.1075C25.6667 14.6066 25.6667 15.26 25.6667 16.5668V19.7335C25.6667 20.8207 25.6667 21.3643 25.4891 21.7931C25.2523 22.3648 24.798 22.8191 24.2263 23.0559C23.7975 23.2335 23.2539 23.2335 22.1667 23.2335V25.6668Z" stroke="#2E76B8" stroke-width="2" stroke-linecap="round" stroke-linejoin="round"/>
</svg>
