<svg width="23" height="24" viewBox="0 0 23 24" fill="none" xmlns="http://www.w3.org/2000/svg">
<path d="M3.33333 22.5002L3.33333 15.5002M3.33333 15.5002C4.622 15.5002 5.66667 14.4556 5.66667 13.1669C5.66667 11.8782 4.622 10.8336 3.33333 10.8336C2.04467 10.8336 1 11.8782 1 13.1669C1 14.4556 2.04467 15.5002 3.33333 15.5002ZM3.33333 6.16691V1.50024M11.5 22.5002V15.5002M11.5 6.16691V1.50024M11.5 6.16691C10.2113 6.16691 9.16667 7.21158 9.16667 8.50024C9.16667 9.78891 10.2113 10.8336 11.5 10.8336C12.7887 10.8336 13.8333 9.78891 13.8333 8.50024C13.8333 7.21158 12.7887 6.16691 11.5 6.16691ZM19.6667 22.5002V17.8336M19.6667 17.8336C20.9553 17.8336 22 16.7889 22 15.5002C22 14.2116 20.9553 13.1669 19.6667 13.1669C18.378 13.1669 17.3333 14.2116 17.3333 15.5002C17.3333 16.7889 18.378 17.8336 19.6667 17.8336ZM19.6667 8.50024V1.50024" stroke="#2E76B8" stroke-width="2" stroke-linecap="round" stroke-linejoin="round"/>
</svg>
