<svg width="16" height="17" viewBox="0 0 16 17" fill="none" xmlns="http://www.w3.org/2000/svg">
<path d="M11.3333 2.5663L11.3333 14.233M6.33333 1.73297L6.33333 15.0663M0.5 8.39963H15.5M0.5 3.39061L0.5 13.4087C0.5 14.5454 0.5 15.1137 0.734451 15.5076C0.940022 15.8531 1.2635 16.1125 1.64528 16.2383C2.0807 16.3817 2.63552 16.2584 3.74515 16.0118L13.4118 13.8637C14.1569 13.6981 14.5295 13.6153 14.8076 13.415C15.0528 13.2382 15.2455 12.9981 15.3648 12.7204C15.5 12.4054 15.5 12.0238 15.5 11.2605V5.53876C15.5 4.77548 15.5 4.39384 15.3648 4.07891C15.2455 3.80113 15.0528 3.56102 14.8076 3.38431C14.5295 3.18396 14.1569 3.10117 13.4118 2.93559L3.74515 0.787444C2.63552 0.54086 2.0807 0.417567 1.64528 0.560978C1.2635 0.686722 0.940022 0.946207 0.734451 1.29162C0.5 1.68556 0.5 2.25391 0.5 3.39061Z" stroke="#05354E" stroke-linecap="round" stroke-linejoin="round"/>
</svg>
