<svg width="18" height="16" viewBox="0 0 18 16" fill="none" xmlns="http://www.w3.org/2000/svg">
<path d="M12.9703 3.41667C13.428 2.90521 14.0933 2.58333 14.8337 2.58333C16.2144 2.58333 17.3337 3.70262 17.3337 5.08333C17.3337 6.46404 16.2144 7.58333 14.8337 7.58333H9.83366M4.6369 1.33333C5.09467 0.821876 5.75991 0.5 6.50033 0.5C7.88104 0.5 9.00033 1.61929 9.00033 3C9.00033 4.38071 7.88104 5.5 6.50033 5.5H0.666992M7.97024 14.6667C8.42801 15.1781 9.09324 15.5 9.83366 15.5C11.2144 15.5 12.3337 14.3807 12.3337 13C12.3337 11.6193 11.2144 10.5 9.83366 10.5H0.666992" stroke="#05354E" stroke-linecap="round" stroke-linejoin="round"/>
</svg>
