<svg width="49" height="49" viewBox="0 0 49 49" fill="none" xmlns="http://www.w3.org/2000/svg">
<path d="M10.3331 26.6669C10.3331 20.0395 15.7057 14.6669 22.3331 14.6669M10.3331 26.6669C10.3331 29.9636 11.6626 32.9499 13.8146 35.1188C14.0221 35.328 14.1259 35.4325 14.1872 35.5331C14.2456 35.6291 14.2797 35.7117 14.3058 35.821C14.3331 35.9355 14.3331 36.0659 14.3331 36.3265V41.0669C14.3331 41.6269 14.3331 41.9069 14.4421 42.1209C14.538 42.309 14.691 42.462 14.8791 42.5579C15.093 42.6669 15.3731 42.6669 15.9331 42.6669H19.7331C20.2932 42.6669 20.5732 42.6669 20.7871 42.5579C20.9753 42.462 21.1282 42.309 21.2241 42.1209C21.3331 41.9069 21.3331 41.6269 21.3331 41.0669V40.2669C21.3331 39.7068 21.3331 39.4268 21.4421 39.2129C21.538 39.0247 21.691 38.8717 21.8791 38.7759C22.093 38.6669 22.3731 38.6669 22.9331 38.6669H25.7331C26.2932 38.6669 26.5732 38.6669 26.7871 38.7759C26.9753 38.8717 27.1282 39.0247 27.2241 39.2129C27.3331 39.4268 27.3331 39.7068 27.3331 40.2669V41.0669C27.3331 41.6269 27.3331 41.9069 27.4421 42.1209C27.538 42.309 27.691 42.462 27.8791 42.5579C28.093 42.6669 28.3731 42.6669 28.9331 42.6669H32.7333C33.2933 42.6669 33.5733 42.6669 33.7872 42.5579C33.9754 42.462 34.1284 42.309 34.2243 42.1209C34.3333 41.9069 34.3333 41.6269 34.3333 41.0669V39.1155C34.3333 38.7114 34.3333 38.5093 34.3908 38.3471C34.4459 38.1917 34.5154 38.0828 34.6332 37.9674C34.7561 37.8469 34.9643 37.7502 35.3806 37.5569C37.3451 36.6449 39.0213 35.217 40.2355 33.4472C40.449 33.136 40.5557 32.9804 40.6698 32.8884C40.7788 32.8005 40.8766 32.749 41.0107 32.7089C41.151 32.6669 41.3176 32.6669 41.6507 32.6669H42.7333C43.2933 32.6669 43.5733 32.6669 43.7872 32.5579C43.9754 32.462 44.1284 32.309 44.2243 32.1209C44.3333 31.9069 44.3333 31.6269 44.3333 31.0669V24.2384C44.3333 23.7052 44.3333 23.4386 44.2342 23.2329C44.1359 23.0289 43.9713 22.8642 43.7672 22.7659C43.5615 22.6669 43.2949 22.6669 42.7618 22.6669C42.3758 22.6669 42.1829 22.6669 42.0274 22.6145C41.8598 22.558 41.7423 22.4828 41.6207 22.3544C41.508 22.2353 41.4159 22.0361 41.2318 21.6378C40.6408 20.3593 39.8316 19.2024 38.8518 18.2149C38.6442 18.0058 38.5404 17.9012 38.4792 17.8006C38.4207 17.7047 38.3867 17.622 38.3606 17.5128C38.3333 17.3982 38.3333 17.2679 38.3333 17.0072V14.788C38.3333 14.0679 38.3333 13.7079 38.1833 13.4659C38.0519 13.2539 37.8461 13.0986 37.6062 13.0306C37.3323 12.9529 36.9861 13.0518 36.2937 13.2496L31.5486 14.6053C31.4679 14.6284 31.4276 14.6399 31.3866 14.648C31.3502 14.6551 31.3134 14.6603 31.2765 14.6634C31.2348 14.6669 31.1926 14.6669 31.108 14.6669H22.3331M10.3331 26.6669H8.33325C6.12411 26.6669 4.33325 24.876 4.33325 22.6669C4.33325 21.1863 5.13765 19.8936 6.33325 19.202M22.3331 14.6669H30.2624C30.3091 14.3403 30.3333 14.0064 30.3333 13.6669C30.3333 9.80088 27.1992 6.66687 23.3333 6.66687C19.4673 6.66687 16.3333 9.80088 16.3333 13.6669C16.3333 14.5013 16.4792 15.3016 16.7471 16.0436C18.4155 15.1645 20.3161 14.6669 22.3331 14.6669Z" stroke="#2E76B8" stroke-width="3" stroke-linecap="round" stroke-linejoin="round"/>
</svg>
