<svg width="43" height="44" viewBox="0 0 43 44" fill="none" xmlns="http://www.w3.org/2000/svg">
<path d="M12 41.6669V19.6669M2 23.6669V37.6669C2 39.876 3.79086 41.6669 6 41.6669H32.8525C35.8139 41.6669 38.3324 39.5062 38.7827 36.5792L40.9366 22.5792C41.4957 18.9447 38.6836 15.6669 35.0063 15.6669H28C26.8954 15.6669 26 14.7714 26 13.6669V6.59855C26 3.87486 23.792 1.66687 21.0683 1.66687C20.4187 1.66687 19.83 2.04946 19.5661 2.64312L12.5279 18.4791C12.2069 19.2014 11.4906 19.6669 10.7003 19.6669H6C3.79086 19.6669 2 21.4577 2 23.6669Z" stroke="#2E76B8" stroke-width="3" stroke-linecap="round" stroke-linejoin="round"/>
</svg>
