<svg width="29" height="28" viewBox="0 0 29 28" fill="none" xmlns="http://www.w3.org/2000/svg">
<path d="M6.33333 24.5002L6.33333 17.5002M6.33333 17.5002C7.622 17.5002 8.66667 16.4556 8.66667 15.1669C8.66667 13.8782 7.622 12.8336 6.33333 12.8336C5.04467 12.8336 4 13.8782 4 15.1669C4 16.4556 5.04467 17.5002 6.33333 17.5002ZM6.33333 8.16691V3.50024M14.5 24.5002V17.5002M14.5 8.16691V3.50024M14.5 8.16691C13.2113 8.16691 12.1667 9.21158 12.1667 10.5002C12.1667 11.7889 13.2113 12.8336 14.5 12.8336C15.7887 12.8336 16.8333 11.7889 16.8333 10.5002C16.8333 9.21158 15.7887 8.16691 14.5 8.16691ZM22.6667 24.5002V19.8336M22.6667 19.8336C23.9553 19.8336 25 18.7889 25 17.5002C25 16.2116 23.9553 15.1669 22.6667 15.1669C21.378 15.1669 20.3333 16.2116 20.3333 17.5002C20.3333 18.7889 21.378 19.8336 22.6667 19.8336ZM22.6667 10.5002V3.50024" stroke="#2E76B8" stroke-width="2" stroke-linecap="round" stroke-linejoin="round"/>
</svg>
