<svg width="30" height="29" viewBox="0 0 30 29" fill="none" xmlns="http://www.w3.org/2000/svg">
<path d="M7.00033 6.99996L13.0003 13M7.00033 6.99996L3.00033 6.99996L1.66699 2.99996L3.00033 1.66663L7.00033 2.99996L7.00033 6.99996ZM24.679 2.65464L21.1755 6.15813C20.6475 6.68615 20.3835 6.95017 20.2845 7.2546C20.1975 7.52239 20.1975 7.81086 20.2845 8.07865C20.3835 8.38309 20.6475 8.6471 21.1755 9.17512L21.4918 9.49146C22.0199 10.0195 22.2839 10.2835 22.5883 10.3824C22.8561 10.4694 23.1446 10.4694 23.4123 10.3824C23.7168 10.2835 23.9808 10.0195 24.5088 9.49147L27.786 6.21425C28.139 7.07314 28.3337 8.01382 28.3337 8.99996C28.3337 13.05 25.0504 16.3333 21.0003 16.3333C20.512 16.3333 20.0349 16.2856 19.5733 16.1945C18.9251 16.0667 18.601 16.0028 18.4046 16.0224C18.1957 16.0432 18.0928 16.0745 17.9077 16.1735C17.7336 16.2667 17.559 16.4413 17.2097 16.7906L7.66699 26.3333C6.56242 27.4378 4.77156 27.4378 3.66699 26.3333C2.56242 25.2287 2.56242 23.4378 3.66699 22.3333L13.2097 12.7906C13.559 12.4413 13.7336 12.2667 13.8267 12.0926C13.9258 11.9075 13.9571 11.8046 13.9779 11.5957C13.9975 11.3992 13.9336 11.0751 13.8057 10.4269C13.7147 9.96537 13.667 9.48824 13.667 8.99996C13.667 4.94987 16.9502 1.66663 21.0003 1.66663C22.341 1.66663 23.5976 2.02639 24.679 2.65464ZM15.0004 18.9999L22.3337 26.3331C23.4382 27.4377 25.2291 27.4377 26.3336 26.3331C27.4382 25.2286 27.4382 23.4377 26.3336 22.3331L20.3007 16.3004C19.8737 16.2599 19.4573 16.1829 19.0547 16.0724C18.536 15.93 17.9669 16.0334 17.5865 16.4137L15.0004 18.9999Z" stroke="white" stroke-width="2" stroke-linecap="round" stroke-linejoin="round"/>
</svg>
