<svg width="32" height="32" viewBox="0 0 32 32" fill="none" xmlns="http://www.w3.org/2000/svg">
<path d="M20.8415 10.1751C20.3135 9.6471 20.0494 9.38309 19.9505 9.07865C19.8635 8.81086 19.8635 8.52239 19.9505 8.2546C20.0494 7.95017 20.3135 7.68615 20.8415 7.15813L24.626 3.37364C23.6217 2.91946 22.5069 2.66663 21.333 2.66663C16.9147 2.66663 13.333 6.24835 13.333 10.6666C13.333 11.3213 13.4116 11.9577 13.56 12.5667C13.7189 13.2189 13.7983 13.5451 13.7842 13.7511C13.7694 13.9667 13.7373 14.0815 13.6378 14.2734C13.5428 14.4568 13.3608 14.6388 12.9967 15.0029L4.66632 23.3333C3.56175 24.4379 3.56175 26.2287 4.66632 27.3333C5.77089 28.4379 7.56175 28.4379 8.66632 27.3333L16.9967 19.0029C17.3608 18.6388 17.5428 18.4568 17.7262 18.3618C17.9181 18.2623 18.0329 18.2302 18.2485 18.2154C18.4546 18.2013 18.7807 18.2807 19.4329 18.4396C20.0419 18.588 20.6783 18.6666 21.333 18.6666C25.7513 18.6666 29.333 15.0849 29.333 10.6666C29.333 9.49275 29.0802 8.37792 28.626 7.37364L24.8415 11.1581C24.3135 11.6862 24.0494 11.9502 23.745 12.0491C23.4772 12.1361 23.1888 12.1361 22.921 12.0491C22.6165 11.9502 22.3525 11.6862 21.8245 11.1581L20.8415 10.1751Z" stroke="white" stroke-width="2" stroke-linecap="round" stroke-linejoin="round"/>
</svg>
