<svg width="49" height="49" viewBox="0 0 49 49" fill="none" xmlns="http://www.w3.org/2000/svg">
<path d="M44.6667 42.3334V38.3334C44.6667 34.6057 42.1172 31.4735 38.6667 30.5854M31.6667 6.91489C34.5986 8.10167 36.6667 10.976 36.6667 14.3334C36.6667 17.6908 34.5986 20.5651 31.6667 21.7519M34.6667 42.3334C34.6667 38.6058 34.6667 36.7421 34.0578 35.2719C33.2458 33.3117 31.6884 31.7543 29.7282 30.9423C28.258 30.3334 26.3943 30.3334 22.6667 30.3334H16.6667C12.9392 30.3334 11.0754 30.3334 9.60528 30.9423C7.64506 31.7543 6.08766 33.3117 5.27571 35.2719C4.66675 36.7421 4.66675 38.6058 4.66675 42.3334M27.6667 14.3334C27.6667 18.7517 24.085 22.3334 19.6667 22.3334C15.2485 22.3334 11.6667 18.7517 11.6667 14.3334C11.6667 9.9151 15.2485 6.33337 19.6667 6.33337C24.085 6.33337 27.6667 9.9151 27.6667 14.3334Z" stroke="#2E76B8" stroke-width="3" stroke-linecap="round" stroke-linejoin="round"/>
</svg>
