<svg width="32" height="32" viewBox="0 0 32 32" fill="none" xmlns="http://www.w3.org/2000/svg">
<path d="M8.66667 26.6667H6.66667C5.19391 26.6667 4 25.4728 4 24L4 5.33335C4 3.86059 5.19391 2.66669 6.66667 2.66669L25.3333 2.66669C26.8061 2.66669 28 3.86059 28 5.33335L28 24C28 25.4728 26.8061 26.6667 25.3333 26.6667H23.3333M16 25.3334C18.2091 25.3334 20 23.5425 20 21.3334C20 19.1242 18.2091 17.3334 16 17.3334C13.7909 17.3334 12 19.1242 12 21.3334C12 23.5425 13.7909 25.3334 16 25.3334ZM16 25.3334L16.0286 25.3331L11.7716 29.5901L8.00033 25.8189L12.0262 21.793M16 25.3334L20.2571 29.5901L24.0283 25.8189L20.0024 21.793M12 8.00002L20 8.00002M9.33333 12.6667L22.6667 12.6667" stroke="white" stroke-width="2" stroke-linecap="round" stroke-linejoin="round"/>
</svg>
